<svg id="Layer_1" xmlns="http://www.w3.org/2000/svg" viewBox="0 0 675.1 723">
  <style>
    .st0{fill:#FFFFFF;}
  </style>
  <g id="XMLID_1_">
    <path class="st0" d="M675.1 103.4v46.2c-.4 2.7-.3 5.4-.6 8-.4 3.4-1.2 6.6-2.3 9.8-1.4 4.1-2.8 8.1-4.6 12.1-3.6 7.7-6.8 15.6-12.1 22.5-4.4 5.8-9 11.4-14.3 16.2-7.1 6.4-14.8 12.1-22.9 17.2-7.3 4.6-14.8 8.9-22.7 12.4-7.4 3.3-14.7 6.8-22.1 10-6 2.6-11.7 5.7-17 9.4-5.3 3.7-9.8 8.3-12.6 14.5-1.8 4-3.4 7.9-4.2 12.1-.8 4.5-1.9 9-2.8 13.4-1.1 5.7-2.1 11.4-3.6 17-1 3.7-1.8 7.5-2.9 11.1-2 6.4-3.5 13-5 19.5-1.1 4.5-2.2 9-3 13.6-.9 4.5-1.8 9.1-2.8 13.6-1 4.9-2.7 9.6-3.8 14.4-.9 3.9-2.4 7.7-3.3 11.6-1 4.4-2.7 8.5-4 12.7-1.1 3.6-2.5 7.1-4.2 10.5-1.9 3.9-2.9 8.1-4.5 12.1-2.2 5.5-4.8 10.9-6.9 16.4-1.3 3.3-2.9 6.4-4.2 9.7-2.4 6.2-4.9 12.3-7.3 18.4-2.2 5.7-4.2 11.5-6.3 17.2-2.3 6.5-4.4 13.2-6.6 19.8-1.4 4.3-2.4 8.8-3.5 13.3-.8 3.3-1.2 6.7-1.8 10.1-.7 4.3-.5 8.5-.6 12.7-.1 6.2 1.5 12.1 3.1 18 .9 3.2 1.7 6.4 2.7 9.5.9 2.8 1.2 5.8 2.1 8.6 1.1 3.4 1.3 7 1.3 10.6.1 12.2.2 24.3 0 36.5-.1 5.4-1.1 10.7-2.9 15.8-2.6 7.4-6.4 14.1-10.9 20.4-2.6 3.7-6 6.8-8.9 10.2-2.9 3.5-6.1 6.8-9.7 9.6-2 1.5-3.7 3.3-5.6 4.8-5.7 4.5-12.4 7.1-18.8 10.2-4.9 2.4-10.1 4-15.4 5.5-7.1 2-14.3 2.5-21.6 2.4-.3 0-.5 0-.8.2h-77.8c-1.7-.4-3.5 0-5.2-.2-3.3-.4-6.6-.2-9.8-.9-1.7-.3-3.3-1.1-5-1.7-7.6-2.5-15.2-5.1-22.4-8.5-8.9-4.3-16.5-10.3-22.8-18.1-3.9-4.9-8.2-9.5-12.1-14.4-5.9-7.4-10.3-15.6-13.3-24.6-1.5-4.5-2.2-9.2-2.3-13.9-.1-10-.2-20 0-30 .1-4 .6-7.8 1.6-11.8 1.7-6.7 4.2-13.1 6.2-19.7 2.3-7.4 4.2-15 3.8-22.8-.3-5.6-.6-11.3-2.3-16.7-1.2-3.7-1.8-7.6-3.2-11.2-1.6-3.9-2.6-8-4.3-11.9-1.3-2.9-2.1-6.1-3.4-9.1-2.6-6.3-5.5-12.4-8.1-18.7-1.9-4.5-4.1-8.9-5.7-13.6-1.7-5-3.7-9.8-5.2-14.9-2.1-7.3-4.6-14.5-6.9-21.8-1.5-5-3.8-9.8-5.7-14.7-2.9-7.6-5.8-15.2-8.4-23-2.1-6.1-4.3-12.2-6.3-18.3-2.2-6.7-4.1-13.5-5.5-20.4-1.6-8.5-3.2-17-5.2-25.5-.8-3.4-1.2-6.9-1.9-10.3-.7-3.5-1.3-7-2.1-10.4-1.1-4.7-2.7-12.4-3.6-17.1-1.5-8.3-3.6-16.3-8.9-23-4.4-5.6-10-9.9-16.6-12.9-5.3-2.3-10.5-4.8-15.9-7-8.7-3.5-17.2-7.4-25.4-11.9-8.3-4.5-16.6-9-24.2-14.5-5.7-4.2-10.3-9.5-15.4-14.3-6.6-6.3-12-13.5-16.6-21.3-3.6-6.2-6.3-12.8-9.2-19.3-1.6-3.5-3.2-7-4.7-10.5-1.8-4.1-2.8-8.4-3.1-12.8-.9-16.2-.2-32.4-.4-48.7v-1.9c.3-5.5 3.6-9 8.7-10.8 4.6-1.7 9.2-1.3 13.9-1.3 4.3 0 8.5.8 12.8.8 1.5 0 3.1.4 4.6.8 2.6.6 5.2.4 7.8.9 3.2.5 6.4 1 9.5 1.7 4.8 1 9.5 2.4 14.1 4 5.6 1.9 11.2 3.6 16.7 5.9 8.4 3.4 16.4 7.5 23.9 12.4 4.1 2.7 8.1 5.6 11.6 9.1 3.9 3.9 7.8 7.9 11.3 12.1 2.9 3.4 5.4 7.2 8.1 10.8 3 4 5.7 8.1 8.9 12 2.8 3.3 5.5 6.7 8.9 9.4 3.7 2.9 7.7 4.9 12.3 5.6 3.7.5 7-.6 10.2-2.4 8.6-5 13.2-13.1 16.6-22.1.3-.7.6-1.5.9-2.2 1.7-3.9 2.2-8.2 3.2-12.3.8-3 1.2-6.1 1.6-9.1.8-6.5 1.8-13 1.6-19.7-.1-4.7.1-9.4.7-14.1.9-6.5 1.4-13.1 2.6-19.5.7-3.9 1.2-8 2.7-11.8.6-1.5.8-3.1 1.1-4.7.8-4.6 2.4-9 4.2-13.2 1.6-3.9 2.9-7.8 4-11.8.4-1.3 1-2.5 1.6-3.7 2.3-4.6 3.9-9.4 6.5-13.9 2.8-4.9 6.7-8.7 11.5-11.6 1.5-.9 3.2-1.3 5-1.2.7 0 1.4.1 2.1-.1 1.1-.1 2.5-.2 3.6-.3 1.9.6 3.8.2 5.7.5 5.2.7 9.2 3.6 12.4 7.4 6.5 7.7 10 17 12.9 26.5 1.6 5.2 2.2 10.6 3.3 16 .6 2.8 1.1 5.6 1.8 8.3.6 2.7 1 5.4 1.3 8.1.1 1.6.7 3 1 4.5 1.2 7.1 2.3 14.2 4.1 21.2 2.4 9 6 17.5 13.1 24 3.3 3 6.9 5.5 11.2 7 7.7 2.7 15.6 3.8 23.6 3.3 4.3-.3 8.5-1 12.7-2 5.1-1.2 9.7-3.4 13.7-6.6 5.5-4.4 9.7-9.7 12.4-16.4 1.9-4.7 2.8-9.5 4.2-14.3.6-2 .6-4.2 1-6.4.9-4.9 1.9-9.9 2.3-14.9.4-4.6 1.7-9 2-13.6.2-3 1.3-6 1.9-9.1.7-3.6 1.5-7.1 2.1-10.7.5-3.4 1.9-6.6 3-9.8.9-2.5 2.1-4.8 3.2-7.2 3-7.1 8.3-12 15.5-14.8 1.6-.6 3.3-.4 5-.5 4-.2 8.1-.4 12 .7 3 .8 5.7 2.3 8.1 4.4 5.8 4.9 9.2 11.2 11.6 18.2 1 3.1 3 5.8 3.8 8.9 1.3 5.1 3.4 9.9 5 15 1.5 5 2.8 10.1 3.6 15.3.8 4.5 1.8 9 2.7 13.6.5 2.4.7 5 .9 7.4.2 4.4 1 8.7 1.1 13.1.1 7.6 1.1 15.2 1.4 22.8.2 5.2 1.7 10.2 1.9 15.4.1 2.6 1 5.2 1.7 7.7 2 6.7 4.2 13.2 8.2 19 3.4 5 7.8 8.6 13.5 10.4 1 .3 2.8.6 3.9.6 7.2 0 13-3.1 18.2-7.7 4.8-4.3 8.2-9.6 11.7-14.9 4.9-7.5 9.8-15.1 16.4-21.2 5.4-5 11.3-9.4 17.4-13.6 6.9-4.7 14.1-8.7 21.7-12.1 7.1-3.2 14.3-6 22-7.4 2.7-.5 5.4-1.3 8-2.1 4.8-1.6 9.9-2 14.9-2.9 3.4-.6 6.8-.3 10.1-1.3.4-.1.9-.2 1.3-.2 5.6 0 11.2-.7 16.8-.5 3.6.1 6.9 1.1 10 2.9 3.3 2 4.2 5.2 4.5 8.8.4.3.1 1.1.6 2z"/>
  </g>
</svg>
