<svg viewBox="0 0 114 12" fill="none" xmlns="http://www.w3.org/2000/svg">
<path d="M7.61539 0C7.06455 0 6.53628 0.218818 6.14678 0.608317C5.75728 0.997815 5.53846 1.52609 5.53846 2.07692C5.53846 2.62776 5.75728 3.15603 6.14678 3.54553C6.53628 3.93503 7.06455 4.15385 7.61539 4.15385C8.16622 4.15385 8.69449 3.93503 9.08399 3.54553C9.47349 3.15603 9.69231 2.62776 9.69231 2.07692C9.69231 1.52609 9.47349 0.997815 9.08399 0.608317C8.69449 0.218818 8.16622 0 7.61539 0ZM3.46154 1.50231C3.00251 1.50231 2.56228 1.68466 2.2377 2.00924C1.91312 2.33382 1.73077 2.77405 1.73077 3.23308C1.73077 3.46036 1.77554 3.68543 1.86252 3.89541C1.9495 4.1054 2.07698 4.2962 2.2377 4.45692C2.39842 4.61763 2.58922 4.74512 2.7992 4.8321C3.00919 4.91908 3.23425 4.96385 3.46154 4.96385C4.07077 4.96385 4.60385 4.64538 4.90846 4.17462C4.44462 3.58615 4.15385 2.87308 4.15385 2.07692C4.15385 1.93846 4.15385 1.8 4.18154 1.66154C3.96 1.55769 3.71769 1.50231 3.46154 1.50231ZM11.7692 1.50231C11.5131 1.50231 11.2708 1.55769 11.0492 1.66154C11.0769 1.8 11.0769 1.93846 11.0769 2.07692C11.0769 2.87308 10.7862 3.58615 10.3223 4.17462C10.6269 4.64538 11.16 4.96385 11.7692 4.96385C11.9965 4.96385 12.2216 4.91908 12.4316 4.8321C12.6416 4.74512 12.8324 4.61763 12.9931 4.45692C13.1538 4.2962 13.2813 4.1054 13.3683 3.89541C13.4552 3.68543 13.5 3.46036 13.5 3.23308C13.5 3.00579 13.4552 2.78073 13.3683 2.57074C13.2813 2.36075 13.1538 2.16996 12.9931 2.00924C12.8324 1.84852 12.6416 1.72103 12.4316 1.63405C12.2216 1.54708 11.9965 1.50231 11.7692 1.50231ZM7.61539 5.53846C6.23077 5.53846 3.46154 6.23077 3.46154 7.61539V9H11.7692V7.61539C11.7692 6.23077 9 5.53846 7.61539 5.53846ZM2.54077 6.21C1.38462 6.41077 0 6.95077 0 7.84385V9H2.07692V7.61539C2.07692 7.07539 2.27769 6.59769 2.54077 6.21ZM12.69 6.21C12.9531 6.59769 13.1538 7.07539 13.1538 7.61539V9H15.2308V7.84385C15.2308 6.95077 13.8462 6.41077 12.69 6.21Z" fill="#525C7A"/>
<path d="M26.5684 5.94141C26.4629 6.84375 26.1289 7.54102 25.5664 8.0332C25.0078 8.52148 24.2637 8.76562 23.334 8.76562C22.3262 8.76562 21.5176 8.4043 20.9082 7.68164C20.3027 6.95898 20 5.99219 20 4.78125V3.96094C20 3.16797 20.1406 2.4707 20.4219 1.86914C20.707 1.26758 21.1094 0.806641 21.6289 0.486328C22.1484 0.162109 22.75 0 23.4336 0C24.3398 0 25.0664 0.253906 25.6133 0.761719C26.1602 1.26562 26.4785 1.96484 26.5684 2.85938H25.4375C25.3398 2.17969 25.127 1.6875 24.7988 1.38281C24.4746 1.07812 24.0195 0.925781 23.4336 0.925781C22.7148 0.925781 22.1504 1.19141 21.7402 1.72266C21.334 2.25391 21.1309 3.00977 21.1309 3.99023V4.81641C21.1309 5.74219 21.3242 6.47852 21.7109 7.02539C22.0977 7.57227 22.6387 7.8457 23.334 7.8457C23.959 7.8457 24.4375 7.70508 24.7695 7.42383C25.1055 7.13867 25.3281 6.64453 25.4375 5.94141H26.5684Z" fill="#525C7A"/>
<path d="M27.6523 5.41992C27.6523 4.79883 27.7734 4.24023 28.0156 3.74414C28.2617 3.24805 28.6016 2.86523 29.0352 2.5957C29.4727 2.32617 29.9707 2.19141 30.5293 2.19141C31.3926 2.19141 32.0898 2.49023 32.6211 3.08789C33.1562 3.68555 33.4238 4.48047 33.4238 5.47266V5.54883C33.4238 6.16602 33.3047 6.7207 33.0664 7.21289C32.832 7.70117 32.4941 8.08203 32.0527 8.35547C31.6152 8.62891 31.1113 8.76562 30.541 8.76562C29.6816 8.76562 28.9844 8.4668 28.4492 7.86914C27.918 7.27148 27.6523 6.48047 27.6523 5.49609V5.41992ZM28.7422 5.54883C28.7422 6.25195 28.9043 6.81641 29.2285 7.24219C29.5566 7.66797 29.9941 7.88086 30.541 7.88086C31.0918 7.88086 31.5293 7.66602 31.8535 7.23633C32.1777 6.80273 32.3398 6.19727 32.3398 5.41992C32.3398 4.72461 32.1738 4.16211 31.8418 3.73242C31.5137 3.29883 31.0762 3.08203 30.5293 3.08203C29.9941 3.08203 29.5625 3.29492 29.2344 3.7207C28.9062 4.14648 28.7422 4.75586 28.7422 5.54883Z" fill="#525C7A"/>
<path d="M35.8027 2.30859L35.832 3.01172C36.2969 2.46484 36.9238 2.19141 37.7129 2.19141C38.5996 2.19141 39.2031 2.53125 39.5234 3.21094C39.7344 2.90625 40.0078 2.66016 40.3438 2.47266C40.6836 2.28516 41.084 2.19141 41.5449 2.19141C42.9355 2.19141 43.6426 2.92773 43.666 4.40039V8.64844H42.582V4.46484C42.582 4.01172 42.4785 3.67383 42.2715 3.45117C42.0645 3.22461 41.7168 3.11133 41.2285 3.11133C40.8262 3.11133 40.4922 3.23242 40.2266 3.47461C39.9609 3.71289 39.8066 4.03516 39.7637 4.44141V8.64844H38.6738V4.49414C38.6738 3.57227 38.2227 3.11133 37.3203 3.11133C36.6094 3.11133 36.123 3.41406 35.8613 4.01953V8.64844H34.7773V2.30859H35.8027Z" fill="#525C7A"/>
<path d="M46.3262 2.30859L46.3555 3.01172C46.8203 2.46484 47.4473 2.19141 48.2363 2.19141C49.123 2.19141 49.7266 2.53125 50.0469 3.21094C50.2578 2.90625 50.5312 2.66016 50.8672 2.47266C51.207 2.28516 51.6074 2.19141 52.0684 2.19141C53.459 2.19141 54.166 2.92773 54.1895 4.40039V8.64844H53.1055V4.46484C53.1055 4.01172 53.002 3.67383 52.7949 3.45117C52.5879 3.22461 52.2402 3.11133 51.752 3.11133C51.3496 3.11133 51.0156 3.23242 50.75 3.47461C50.4844 3.71289 50.3301 4.03516 50.2871 4.44141V8.64844H49.1973V4.49414C49.1973 3.57227 48.7461 3.11133 47.8438 3.11133C47.1328 3.11133 46.6465 3.41406 46.3848 4.01953V8.64844H45.3008V2.30859H46.3262Z" fill="#525C7A"/>
<path d="M59.7441 8.02148C59.3223 8.51758 58.7031 8.76562 57.8867 8.76562C57.2109 8.76562 56.6953 8.57031 56.3398 8.17969C55.9883 7.78516 55.8105 7.20312 55.8066 6.43359V2.30859H56.8906V6.4043C56.8906 7.36523 57.2812 7.8457 58.0625 7.8457C58.8906 7.8457 59.4414 7.53711 59.7148 6.91992V2.30859H60.7988V8.64844H59.7676L59.7441 8.02148Z" fill="#525C7A"/>
<path d="M63.4766 2.30859L63.5117 3.10547C63.9961 2.49609 64.6289 2.19141 65.4102 2.19141C66.75 2.19141 67.4258 2.94727 67.4375 4.45898V8.64844H66.3535V4.45312C66.3496 3.99609 66.2441 3.6582 66.0371 3.43945C65.834 3.2207 65.5156 3.11133 65.082 3.11133C64.7305 3.11133 64.4219 3.20508 64.1562 3.39258C63.8906 3.58008 63.6836 3.82617 63.5352 4.13086V8.64844H62.4512V2.30859H63.4766Z" fill="#525C7A"/>
<path d="M70.25 8.64844H69.166V2.30859H70.25V8.64844ZM69.0781 0.626953C69.0781 0.451172 69.1309 0.302734 69.2363 0.181641C69.3457 0.0605469 69.5059 0 69.7168 0C69.9277 0 70.0879 0.0605469 70.1973 0.181641C70.3066 0.302734 70.3613 0.451172 70.3613 0.626953C70.3613 0.802734 70.3066 0.949219 70.1973 1.06641C70.0879 1.18359 69.9277 1.24219 69.7168 1.24219C69.5059 1.24219 69.3457 1.18359 69.2363 1.06641C69.1309 0.949219 69.0781 0.802734 69.0781 0.626953Z" fill="#525C7A"/>
<path d="M73.4609 0.773438V2.30859H74.6445V3.14648H73.4609V7.07812C73.4609 7.33203 73.5137 7.52344 73.6191 7.65234C73.7246 7.77734 73.9043 7.83984 74.1582 7.83984C74.2832 7.83984 74.4551 7.81641 74.6738 7.76953V8.64844C74.3887 8.72656 74.1113 8.76562 73.8418 8.76562C73.3574 8.76562 72.9922 8.61914 72.7461 8.32617C72.5 8.0332 72.377 7.61719 72.377 7.07812V3.14648H71.2227V2.30859H72.377V0.773438H73.4609Z" fill="#525C7A"/>
<path d="M77.9902 7.06055L79.4668 2.30859H80.627L78.0781 9.62695C77.6836 10.6816 77.0566 11.209 76.1973 11.209L75.9922 11.1914L75.5879 11.1152V10.2363L75.8809 10.2598C76.248 10.2598 76.5332 10.1855 76.7363 10.0371C76.9434 9.88867 77.1133 9.61719 77.2461 9.22266L77.4863 8.57812L75.2246 2.30859H76.4082L77.9902 7.06055Z" fill="#525C7A"/>
<path d="M83 9V0.46875H85.9883C87.0234 0.46875 87.8086 0.667969 88.3438 1.06641C88.8789 1.46094 89.1465 2.04102 89.1465 2.80664C89.1465 3.22461 89.0391 3.59375 88.8242 3.91406C88.6094 4.23047 88.3105 4.46289 87.9277 4.61133C88.3652 4.7207 88.709 4.94141 88.959 5.27344C89.2129 5.60547 89.3398 6.01172 89.3398 6.49219C89.3398 7.3125 89.0781 7.93359 88.5547 8.35547C88.0312 8.77734 87.2852 8.99219 86.3164 9H83ZM84.7578 5.28516V7.58789H86.2637C86.6777 7.58789 87 7.49023 87.2305 7.29492C87.4648 7.0957 87.582 6.82227 87.582 6.47461C87.582 5.69336 87.1777 5.29688 86.3691 5.28516H84.7578ZM84.7578 4.04297H86.0586C86.9453 4.02734 87.3887 3.67383 87.3887 2.98242C87.3887 2.5957 87.2754 2.31836 87.0488 2.15039C86.8262 1.97852 86.4727 1.89258 85.9883 1.89258H84.7578V4.04297Z" fill="#055092"/>
<path d="M90.2891 5.77148C90.2891 5.14258 90.4102 4.58203 90.6523 4.08984C90.8945 3.59766 91.2422 3.2168 91.6953 2.94727C92.1523 2.67773 92.6816 2.54297 93.2832 2.54297C94.1387 2.54297 94.8359 2.80469 95.375 3.32812C95.918 3.85156 96.2207 4.5625 96.2832 5.46094L96.2949 5.89453C96.2949 6.86719 96.0234 7.64844 95.4805 8.23828C94.9375 8.82422 94.209 9.11719 93.2949 9.11719C92.3809 9.11719 91.6504 8.82422 91.1035 8.23828C90.5605 7.65234 90.2891 6.85547 90.2891 5.84766V5.77148ZM91.9824 5.89453C91.9824 6.49609 92.0957 6.95703 92.3223 7.27734C92.5488 7.59375 92.873 7.75195 93.2949 7.75195C93.7051 7.75195 94.0254 7.5957 94.2559 7.2832C94.4863 6.9668 94.6016 6.46289 94.6016 5.77148C94.6016 5.18164 94.4863 4.72461 94.2559 4.40039C94.0254 4.07617 93.7012 3.91406 93.2832 3.91406C92.8691 3.91406 92.5488 4.07617 92.3223 4.40039C92.0957 4.7207 91.9824 5.21875 91.9824 5.89453Z" fill="#055092"/>
<path d="M101.012 9C100.934 8.84766 100.877 8.6582 100.842 8.43164C100.432 8.88867 99.8984 9.11719 99.2422 9.11719C98.6211 9.11719 98.1055 8.9375 97.6953 8.57812C97.2891 8.21875 97.0859 7.76562 97.0859 7.21875C97.0859 6.54688 97.334 6.03125 97.8301 5.67188C98.3301 5.3125 99.0508 5.13086 99.9922 5.12695H100.771V4.76367C100.771 4.4707 100.695 4.23633 100.543 4.06055C100.395 3.88477 100.158 3.79688 99.834 3.79688C99.5488 3.79688 99.3242 3.86523 99.1602 4.00195C99 4.13867 98.9199 4.32617 98.9199 4.56445H97.2266C97.2266 4.19727 97.3398 3.85742 97.5664 3.54492C97.793 3.23242 98.1133 2.98828 98.5273 2.8125C98.9414 2.63281 99.4062 2.54297 99.9219 2.54297C100.703 2.54297 101.322 2.74023 101.779 3.13477C102.24 3.52539 102.471 4.07617 102.471 4.78711V7.53516C102.475 8.13672 102.559 8.5918 102.723 8.90039V9H101.012ZM99.6113 7.82227C99.8613 7.82227 100.092 7.76758 100.303 7.6582C100.514 7.54492 100.67 7.39453 100.771 7.20703V6.11719H100.139C99.291 6.11719 98.8398 6.41016 98.7852 6.99609L98.7793 7.0957C98.7793 7.30664 98.8535 7.48047 99.002 7.61719C99.1504 7.75391 99.3535 7.82227 99.6113 7.82227Z" fill="#055092"/>
<path d="M107.334 4.24805C107.104 4.2168 106.9 4.20117 106.725 4.20117C106.084 4.20117 105.664 4.41797 105.465 4.85156V9H103.771V2.66016H105.371L105.418 3.41602C105.758 2.83398 106.229 2.54297 106.83 2.54297C107.018 2.54297 107.193 2.56836 107.357 2.61914L107.334 4.24805Z" fill="#055092"/>
<path d="M107.773 5.7832C107.773 4.79492 107.994 4.00781 108.436 3.42188C108.881 2.83594 109.488 2.54297 110.258 2.54297C110.875 2.54297 111.385 2.77344 111.787 3.23438V0H113.486V9H111.957L111.875 8.32617C111.453 8.85352 110.91 9.11719 110.246 9.11719C109.5 9.11719 108.9 8.82422 108.447 8.23828C107.998 7.64844 107.773 6.83008 107.773 5.7832ZM109.467 5.90625C109.467 6.5 109.57 6.95508 109.777 7.27148C109.984 7.58789 110.285 7.74609 110.68 7.74609C111.203 7.74609 111.572 7.52539 111.787 7.08398V4.58203C111.576 4.14062 111.211 3.91992 110.691 3.91992C109.875 3.91992 109.467 4.58203 109.467 5.90625Z" fill="#055092"/>
</svg>
