<?xml version="1.0" standalone="no"?>
<!DOCTYPE svg PUBLIC "-//W3C//DTD SVG 20010904//EN"
 "http://www.w3.org/TR/2001/REC-SVG-20010904/DTD/svg10.dtd">
<svg version="1.0" xmlns="http://www.w3.org/2000/svg"
 width="1809.000000pt" height="1776.000000pt" viewBox="0 0 1809.000000 1776.000000"
 preserveAspectRatio="xMidYMid meet">

<g transform="translate(0.000000,1776.000000) scale(0.100000,-0.100000)"
fill="#000000" stroke="none">
<path d="M8935 16890 c-98 -11 -149 -26 -236 -71 -236 -123 -372 -345 -373
-609 -1 -129 13 -187 71 -310 l45 -95 1887 -1890 c1856 -1859 1971 -1977 2162
-2230 426 -564 723 -1249 844 -1948 133 -767 69 -1565 -179 -2245 -79 -215
-105 -277 -195 -459 -246 -499 -553 -909 -952 -1270 -482 -435 -1018 -746
-1609 -933 -184 -58 -246 -87 -337 -153 -115 -86 -219 -243 -254 -387 -22 -86
-15 -289 12 -375 62 -202 191 -355 370 -440 119 -56 184 -68 329 -62 114 4
139 9 275 52 925 290 1731 783 2405 1472 828 845 1366 1946 1534 3136 45 321
51 413 50 822 0 406 -9 547 -55 860 -147 1025 -569 2019 -1202 2840 -127 164
-171 216 -329 390 -219 242 -3767 3779 -3821 3810 -144 82 -284 112 -442 95z"/>
<path d="M12765 16370 c-153 -25 -270 -85 -386 -200 -73 -72 -94 -101 -132
-180 -101 -210 -101 -417 1 -630 35 -73 64 -103 1002 -1045 925 -929 1075
-1086 1256 -1310 694 -863 1137 -1831 1339 -2930 106 -576 132 -1266 68 -1825
-41 -361 -5 -528 148 -682 86 -86 186 -134 364 -176 174 -42 197 -44 288 -32
248 32 445 185 522 407 25 71 49 253 77 568 16 196 17 906 0 1125 -125 1629
-674 3075 -1641 4320 -252 325 -379 459 -1385 1466 -1077 1078 -1037 1042
-1208 1098 -88 30 -219 40 -313 26z"/>
<path d="M6280 16091 c-159 -46 -241 -92 -346 -196 -82 -81 -141 -176 -180
-290 -25 -72 -28 -94 -29 -215 0 -114 4 -147 23 -210 30 -97 80 -188 150 -274
31 -38 564 -573 1185 -1190 846 -841 1143 -1130 1190 -1159 92 -56 173 -79
305 -84 129 -6 203 5 310 48 183 73 317 200 402 383 94 200 91 419 -8 626 -35
73 -64 103 -1226 1266 -1104 1104 -1196 1193 -1261 1227 -107 55 -202 78 -335
83 -91 3 -128 0 -180 -15z"/>
<path d="M3888 14680 c-213 -36 -421 -189 -518 -380 -75 -148 -99 -325 -66
-485 22 -110 89 -242 169 -335 36 -41 1149 -1155 2473 -2475 2333 -2325 2411
-2402 2484 -2438 116 -58 223 -81 345 -74 224 13 409 106 546 277 60 75 121
196 145 290 23 88 23 254 1 340 -24 90 -68 180 -121 248 -77 98 -4875 4885
-4937 4925 -145 93 -351 135 -521 107z"/>
<path d="M2521 12344 c-80 -17 -199 -73 -269 -125 -116 -88 -227 -263 -257
-404 -34 -162 -11 -326 66 -478 42 -82 56 -96 2413 -2453 1360 -1360 2407
-2399 2456 -2438 594 -467 1230 -704 1962 -732 631 -24 1278 144 1828 476 475
287 882 692 1173 1170 329 539 493 1209 457 1855 -44 767 -305 1448 -786 2052
-120 151 -446 477 -533 534 -150 99 -356 134 -532 90 -136 -34 -220 -82 -325
-186 -79 -78 -98 -103 -137 -185 -103 -213 -101 -416 4 -629 38 -77 60 -103
238 -285 108 -111 222 -235 253 -276 225 -297 361 -628 413 -1005 24 -167 16
-465 -15 -620 -88 -441 -322 -824 -681 -1114 -347 -281 -745 -430 -1194 -448
-375 -14 -742 80 -1070 275 -184 109 -187 112 -2575 2497 -2299 2296 -2326
2322 -2406 2363 -148 76 -327 100 -483 66z"/>
<path d="M1635 9635 c-259 -47 -475 -249 -540 -505 -24 -93 -17 -290 14 -380
56 -163 -50 -51 2010 -2111 1399 -1398 1948 -1941 2063 -2038 641 -543 1302
-906 2039 -1121 91 -26 202 -54 245 -60 131 -20 266 4 395 71 211 110 335 312
347 566 6 134 -11 219 -64 329 -94 192 -260 320 -504 389 -544 152 -1048 424
-1530 823 -70 59 -860 839 -2030 2007 -1461 1457 -1929 1918 -1973 1944 -79
46 -170 78 -261 90 -94 13 -121 13 -211 -4z"/>
<path d="M15460 5924 c-36 -8 -108 -35 -160 -61 -80 -40 -109 -61 -185 -137
-72 -72 -101 -112 -144 -191 -242 -448 -423 -730 -708 -1097 -447 -577 -852
-955 -1440 -1346 -272 -181 -504 -311 -828 -464 -587 -277 -1257 -469 -1948
-559 -497 -64 -1124 -69 -1612 -13 -1261 144 -2442 620 -3416 1377 -292 227
-441 368 -1364 1288 -511 509 -953 942 -982 962 -121 81 -284 125 -425 113
-192 -16 -357 -105 -479 -257 -104 -128 -153 -269 -152 -439 0 -174 49 -312
160 -450 66 -81 1665 -1679 1853 -1851 1229 -1124 2752 -1838 4420 -2073 438
-62 746 -79 1280 -73 339 4 481 10 643 26 1372 138 2601 575 3697 1315 737
497 1455 1205 1971 1942 262 375 591 969 634 1146 16 68 22 230 10 284 -35
157 -108 287 -221 395 -134 128 -262 180 -439 178 -55 -1 -129 -7 -165 -15z"/>
</g>
</svg>
