<?xml version="1.0" standalone="no"?>
<!DOCTYPE svg PUBLIC "-//W3C//DTD SVG 20010904//EN"
 "http://www.w3.org/TR/2001/REC-SVG-20010904/DTD/svg10.dtd">
<svg version="1.0" xmlns="http://www.w3.org/2000/svg"
 width="700.000000pt" height="700.000000pt" viewBox="0 0 700.000000 700.000000"
 preserveAspectRatio="xMidYMid meet">
<metadata>
Created by potrace 1.11, written by Peter Selinger 2001-2013
</metadata>
<g transform="translate(0.000000,700.000000) scale(0.100000,-0.100000)"
fill="#000000" stroke="none">
<path d="M3278 6996 c-1 -2 -41 -6 -88 -10 -87 -7 -105 -9 -225 -27 -116 -18
-123 -19 -192 -35 -178 -40 -243 -58 -369 -99 -250 -83 -499 -199 -729 -339
-707 -430 -1246 -1112 -1505 -1906 -28 -87 -75 -256 -85 -311 -3 -13 -11 -58
-20 -99 -29 -150 -37 -204 -52 -375 -15 -167 -8 -601 12 -703 1 -9 6 -44 9
-77 22 -192 138 -642 206 -790 5 -11 20 -47 34 -80 112 -275 301 -591 497
-835 51 -63 102 -125 114 -136 167 -176 267 -272 355 -344 30 -25 61 -51 69
-59 8 -7 49 -39 90 -70 42 -31 78 -59 79 -63 2 -5 8 -8 13 -8 6 0 40 -21 76
-46 117 -81 348 -209 523 -287 274 -123 642 -227 930 -263 14 -2 41 -5 60 -8
182 -28 656 -28 850 0 375 55 683 140 985 275 133 59 291 140 345 176 19 12
38 23 43 23 4 0 13 5 20 10 7 6 62 43 122 83 248 164 475 361 664 576 31 35
63 71 71 80 13 14 67 82 92 116 4 6 18 24 31 40 253 323 496 840 598 1270 24
102 22 91 42 205 15 81 18 101 33 215 3 27 8 61 11 75 8 50 10 527 2 612 -16
172 -24 235 -50 364 -5 28 -12 64 -15 80 -12 70 -66 268 -99 369 -294 883
-916 1606 -1746 2028 -68 35 -144 71 -169 82 -25 10 -67 28 -95 40 -175 77
-559 184 -755 210 -19 3 -46 7 -60 10 -13 2 -52 7 -86 11 -33 3 -74 8 -90 10
-33 5 -540 14 -546 10z m852 -1115 c85 -30 150 -71 207 -135 55 -61 108 -170
118 -245 11 -83 9 -341 -4 -387 -22 -80 -116 -161 -195 -166 l-35 -3 2 -225 2
-225 129 -220 c71 -121 150 -257 177 -303 27 -45 49 -85 49 -88 0 -3 8 -18 19
-32 10 -15 31 -49 46 -77 30 -54 220 -385 664 -1155 157 -272 296 -522 310
-555 47 -116 59 -309 25 -417 -3 -9 -7 -25 -9 -36 -16 -84 -108 -234 -192
-312 -85 -79 -97 -88 -182 -130 -161 -79 -29 -74 -1750 -75 l-1535 -1 -88 23
c-205 51 -374 183 -466 361 -52 100 -65 141 -81 249 -13 89 1 240 29 308 4 11
14 36 21 55 7 19 20 46 29 60 10 14 28 45 42 70 14 25 94 164 178 310 307 534
387 672 598 1040 118 206 226 392 239 412 12 21 23 39 23 41 0 2 63 112 139
245 l139 241 -1 217 -2 217 -31 3 c-77 6 -174 89 -195 168 -15 55 -14 337 1
411 39 188 194 339 385 374 22 4 285 7 585 6 540 -1 546 -1 610 -24z"/>
<path d="M3260 4902 l0 -524 -54 -91 c-29 -51 -64 -112 -78 -137 -14 -25 -61
-106 -105 -180 -43 -75 -82 -142 -86 -150 -4 -8 -17 -31 -28 -50 -12 -19 -132
-226 -267 -460 -134 -234 -254 -441 -266 -461 -17 -29 -140 -242 -290 -502
-10 -17 -70 -122 -134 -232 -63 -110 -121 -217 -127 -239 -35 -117 45 -255
167 -290 33 -9 379 -12 1523 -11 1645 1 1511 -4 1593 70 64 57 90 149 67 230
-6 22 -148 276 -315 565 -167 289 -327 566 -355 615 -309 536 -416 721 -520
900 -67 116 -134 233 -149 260 -16 28 -43 75 -62 106 l-34 57 0 523 0 524
-240 0 -240 1 0 -524z m415 -1418 c35 -16 65 -65 65 -104 0 -12 -7 -37 -16
-55 -16 -35 -65 -65 -104 -65 -68 0 -128 69 -117 136 14 85 93 126 172 88z
m-245 -635 l310 -312 161 159 c88 88 161 160 162 161 2 2 77 -127 178 -306 14
-25 83 -144 153 -264 70 -121 125 -221 122 -225 -9 -8 -2027 -8 -2032 0 -2 4
4 22 14 40 57 100 586 1017 598 1036 8 12 16 22 19 22 2 0 144 -140 315 -311z"/>
</g>
</svg>
