<?xml version="1.0" standalone="no"?>
<!DOCTYPE svg PUBLIC "-//W3C//DTD SVG 20010904//EN"
 "http://www.w3.org/TR/2001/REC-SVG-20010904/DTD/svg10.dtd">
<svg version="1.0" xmlns="http://www.w3.org/2000/svg"
 width="200.000000pt" height="200.000000pt" viewBox="0 0 200.000000 200.000000"
 preserveAspectRatio="xMidYMid meet">
<metadata>
Created by potrace 1.11, written by Peter Selinger 2001-2013
</metadata>
<g transform="translate(0.000000,200.000000) scale(0.100000,-0.100000)"
fill="#000000" stroke="none">
<path d="M1458 1565 c-2 -1 -34 -5 -73 -8 -271 -23 -683 -216 -910 -425 -71
-66 -71 -66 -67 -22 8 78 -71 155 -154 153 -88 -3 -154 -68 -154 -152 0 -41
28 -127 67 -208 l35 -72 -22 -31 c-12 -18 -24 -52 -27 -84 -21 -199 195 -314
512 -272 255 34 624 203 844 386 l60 50 38 -71 c44 -81 40 -83 104 44 47 93
77 166 84 208 3 17 19 47 35 67 74 95 60 243 -32 328 -63 58 -133 90 -217 99
-85 9 -120 12 -123 10z m198 -160 c45 -8 105 -39 133 -69 28 -30 41 -119 21
-155 -11 -22 -11 -22 -33 11 -47 70 -141 91 -214 47 -35 -22 -73 -90 -73 -131
0 -22 30 -122 55 -180 5 -13 -5 -25 -47 -51 -213 -137 -556 -259 -818 -293
-25 -3 -53 -8 -62 -10 -33 -10 -235 -6 -274 5 -106 29 -159 103 -131 184 l10
29 17 -27 17 -26 21 35 c26 44 112 223 112 233 0 14 181 129 285 181 327 165
753 259 981 217z"/>
<path d="M664 1129 c-15 -17 -19 -36 -18 -111 0 -83 2 -93 24 -110 15 -12 32
-17 46 -14 29 8 37 -5 24 -38 -12 -32 -23 -33 -51 -5 -19 19 -23 20 -31 5 -11
-20 7 -56 30 -57 9 0 25 -2 36 -4 10 -2 29 7 42 20 23 23 24 29 24 180 0 148
-1 155 -20 155 -11 0 -20 -5 -20 -10 0 -7 -6 -7 -19 0 -29 15 -46 12 -67 -11z
m77 -41 c6 -129 -5 -174 -34 -149 -13 10 -15 64 -8 159 1 6 10 12 21 12 14 0
20 -7 21 -22z"/>
<path d="M872 1141 c-21 -13 -39 -78 -36 -131 5 -105 21 -130 81 -130 51 0 71
64 64 201 -2 51 -67 87 -109 60z m59 -58 c3 -71 -2 -158 -10 -166 -5 -5 -15 0
-24 14 -13 21 -15 61 -8 162 1 10 9 17 21 17 15 0 20 -7 21 -27z"/>
<path d="M1029 1138 c-6 -76 1 -231 11 -243 14 -17 47 -19 69 -6 9 6 21 5 32
-2 10 -6 21 -9 24 -5 5 5 9 176 6 249 -1 10 -9 16 -23 15 -22 -1 -23 -5 -24
-101 -2 -131 -1 -125 -24 -125 -24 0 -22 -10 -24 120 -1 100 -3 105 -24 108
-13 2 -22 -2 -23 -10z"/>
<path d="M1224 971 c1 -169 2 -176 21 -176 17 0 20 8 23 46 l3 47 38 -5 c37
-5 39 -4 50 30 18 55 12 193 -10 220 -16 20 -20 21 -50 10 -18 -7 -35 -9 -38
-4 -4 4 -13 8 -22 8 -14 0 -16 -21 -15 -176z m94 59 c2 -41 0 -85 -3 -98 -5
-19 -9 -21 -25 -12 -17 9 -20 21 -20 94 0 86 4 99 30 94 12 -3 16 -20 18 -78z"/>
</g>
</svg>
