<?xml version="1.0" encoding="UTF-8" standalone="no"?>
<svg
   xmlns:dc="http://purl.org/dc/elements/1.1/"
   xmlns:cc="http://creativecommons.org/ns#"
   xmlns:rdf="http://www.w3.org/1999/02/22-rdf-syntax-ns#"
   xmlns:svg="http://www.w3.org/2000/svg"
   xmlns="http://www.w3.org/2000/svg"
   xmlns:sodipodi="http://sodipodi.sourceforge.net/DTD/sodipodi-0.dtd"
   xmlns:inkscape="http://www.inkscape.org/namespaces/inkscape"
   inkscape:export-ydpi="6.3200002"
   inkscape:export-xdpi="6.3200002"
   inkscape:export-filename="/home/rknet/rkau2905/Bilder/geeklab-favicon-32.png"
   sodipodi:docname="geeklab_invert.svg"
   inkscape:version="1.0 (4035a4fb49, 2020-05-01)"
   id="svg8"
   version="1.1"
   viewBox="0 0 128.54926 128.54977"
   height="128.54977mm"
   width="128.54926mm">
  <defs
     id="defs2" />
  <sodipodi:namedview
     inkscape:document-rotation="0"
     inkscape:window-maximized="1"
     inkscape:window-y="27"
     inkscape:window-x="0"
     inkscape:window-height="845"
     inkscape:window-width="1600"
     showguides="true"
     inkscape:snap-text-baseline="false"
     showgrid="false"
     inkscape:current-layer="layer1"
     inkscape:document-units="mm"
     inkscape:cy="276.14727"
     inkscape:cx="224.41157"
     inkscape:zoom="0.9556962"
     inkscape:pageshadow="2"
     inkscape:pageopacity="0.0"
     borderopacity="1.0"
     bordercolor="#666666"
     pagecolor="#ffffff"
     id="base">
    <inkscape:grid
       originy="-126.48947"
       originx="-33.356623"
       id="grid817"
       type="xygrid" />
  </sodipodi:namedview>
  <metadata
     id="metadata5">
    <rdf:RDF>
      <cc:Work
         rdf:about="">
        <dc:format>image/svg+xml</dc:format>
        <dc:type
           rdf:resource="http://purl.org/dc/dcmitype/StillImage" />
        <dc:title></dc:title>
      </cc:Work>
    </rdf:RDF>
  </metadata>
  <g
     transform="translate(-33.356621,-41.960747)"
     id="layer1"
     inkscape:groupmode="layer"
     inkscape:label="Ebene 1">
    <path
       inkscape:connector-curvature="0"
       id="circle923"
       d="M 97.631249,42.025425 A 64.609326,64.21017 0 0 0 33.022157,106.23536 64.609326,64.21017 0 0 0 97.631249,170.44584 64.609326,64.21017 0 0 0 162.24034,106.23536 64.609326,64.21017 0 0 0 97.631249,42.025425 Z m -9.264543,18.173944 h 18.529084 a 9.2644455,9.2072099 0 0 1 9.26454,9.207307 v 4.603384 a 4.6322228,4.603605 0 0 1 -4.63254,4.603922 v 8.332397 l 25.47709,44.010511 c 1.48237,2.16379 2.31654,4.7416 2.31654,7.50378 a 13.896668,13.810815 0 0 1 -13.89708,13.81069 H 69.838161 A 13.896668,13.810815 0 0 1 55.941077,138.46067 c 0,-2.76218 0.834138,-5.33999 2.316542,-7.50378 L 83.734706,86.946379 V 78.613982 A 4.6322228,4.603605 0 0 1 79.102163,74.01006 v -4.603384 a 9.2644455,9.2072099 0 0 1 9.264543,-9.207307 z m 4.632001,9.207307 V 89.432203 L 66.03938,135.83647 c -0.509649,0.736 -0.83376,1.6566 -0.83376,2.6242 a 4.6322228,4.603605 0 0 0 4.632541,4.60338 h 55.586179 a 4.6322228,4.603605 0 0 0 4.63254,-4.60338 c 0,-0.96741 -0.32412,-1.88767 -0.83376,-2.6242 L 102.26325,89.432203 V 69.406676 Z m 6.948542,36.828684 a 2.3161114,2.3018025 0 0 1 2.316001,2.30169 2.3161114,2.3018025 0 0 1 -2.316001,2.3017 2.3161114,2.3018025 0 0 1 -2.316,-2.3017 2.3161114,2.3018025 0 0 1 2.316,-2.30169 z m -9.773792,6.39898 12.089793,12.01564 6.20742,-6.16908 8.94003,15.37638 H 77.851794 Z"
       style="fill:#ffffff;fill-opacity:1;stroke-width:1.3164" />
  </g>
</svg>
