<svg id="svg" version="1.1" xmlns="http://www.w3.org/2000/svg" xmlns:xlink="http://www.w3.org/1999/xlink" width="400" height="224.94623655913978" viewBox="0, 0, 400,224.94623655913978"><g id="svgg"><path id="path0" d="M207.957 9.661 C 205.155 10.214,201.572 13.324,200.300 16.307 C 199.739 17.624,199.623 20.431,200.131 20.428 C 203.377 20.407,207.328 17.114,208.586 13.382 C 209.017 12.103,209.212 9.435,208.871 9.487 C 208.782 9.501,208.371 9.579,207.957 9.661 M286.196 17.650 C 276.623 18.722,269.923 28.506,272.664 37.410 C 277.919 54.480,302.995 51.850,302.534 34.278 L 302.473 31.935 295.269 31.935 L 288.065 31.935 288.065 33.978 L 288.065 36.022 293.093 36.079 L 298.122 36.137 297.985 37.155 C 296.840 45.682,283.520 47.186,278.494 39.355 C 271.741 28.830,285.052 16.668,295.015 24.261 L 295.729 24.805 297.273 23.250 L 298.817 21.695 297.957 20.946 C 295.282 18.618,290.221 17.200,286.196 17.650 M370.580 18.766 C 370.162 19.269,370.235 47.623,370.655 48.044 C 371.082 48.471,374.386 48.539,374.796 48.129 C 375.069 47.856,375.192 19.536,374.923 18.835 C 374.753 18.392,370.940 18.332,370.580 18.766 M188.393 20.979 C 177.921 23.888,176.049 39.572,184.732 51.669 C 188.757 57.278,190.767 58.101,196.008 56.289 C 199.730 55.002,201.407 55.010,205.161 56.333 C 208.421 57.482,209.503 57.552,211.194 56.720 C 214.140 55.272,217.706 50.731,219.660 45.941 C 220.144 44.755,220.123 44.704,218.795 43.871 C 212.051 39.641,211.687 30.508,218.064 25.545 L 218.814 24.961 217.901 24.031 C 214.277 20.338,209.059 19.646,202.688 22.012 C 200.558 22.804,199.644 22.750,196.977 21.678 C 194.335 20.616,190.750 20.324,188.393 20.979 M9.140 23.143 C 5.775 23.615,3.328 25.151,2.367 27.393 C 1.328 29.819,1.617 30.210,4.618 30.435 C 6.910 30.607,6.953 30.590,7.379 29.350 C 8.140 27.136,11.735 26.791,12.457 28.863 C 12.728 29.639,12.768 31.613,12.513 31.613 C 5.563 31.613,1.283 34.600,1.295 39.443 C 1.309 45.323,7.907 47.946,12.512 43.902 C 13.476 43.056,13.585 43.059,14.271 43.958 C 15.748 45.895,16.407 45.889,18.643 43.916 C 20.366 42.397,20.384 42.323,19.416 40.769 L 18.602 39.462 18.494 33.441 C 18.374 26.758,18.328 26.531,16.767 25.004 C 15.467 23.734,11.620 22.795,9.140 23.143 M60.000 23.232 C 56.928 23.659,54.864 24.962,53.760 27.172 C 52.522 29.650,52.876 30.216,55.802 30.435 C 58.068 30.605,58.375 30.498,58.603 29.457 C 59.272 26.413,63.654 26.913,63.831 30.053 L 63.916 31.557 63.195 31.681 C 62.798 31.749,61.892 31.868,61.183 31.944 C 55.259 32.582,52.609 34.902,52.598 39.462 C 52.584 45.431,58.819 47.872,63.867 43.874 C 64.874 43.076,64.952 43.075,65.471 43.850 C 66.784 45.810,67.745 45.823,69.883 43.910 C 71.617 42.357,71.645 42.250,70.699 40.777 L 70.000 39.689 69.885 33.769 C 69.776 28.161,69.743 27.790,69.266 26.719 C 68.059 24.008,64.379 22.623,60.000 23.232 M31.344 23.519 C 30.375 23.881,29.124 24.803,28.813 25.385 C 28.455 26.053,28.172 25.878,28.172 24.989 C 28.172 23.772,27.938 23.656,25.484 23.656 C 22.514 23.656,22.796 22.518,22.796 34.516 C 22.796 46.545,22.493 45.376,25.608 45.376 C 28.584 45.376,28.330 46.054,28.433 37.849 C 28.541 29.323,28.798 28.387,31.036 28.387 C 32.885 28.387,33.116 29.426,33.117 37.780 C 33.119 46.075,32.843 45.376,36.118 45.376 C 39.147 45.376,38.886 46.079,38.965 37.736 C 39.027 31.245,39.067 30.578,39.445 29.846 C 40.009 28.753,41.071 28.253,42.146 28.575 C 43.520 28.987,43.541 29.114,43.613 37.410 C 43.689 46.120,43.424 45.376,46.445 45.376 C 49.793 45.376,49.503 46.294,49.422 35.974 L 49.355 27.388 48.706 26.120 C 46.914 22.618,41.092 22.267,39.032 25.537 C 38.460 26.445,38.271 26.412,37.459 25.261 C 36.308 23.627,33.328 22.779,31.344 23.519 M97.261 23.640 C 92.448 25.016,89.811 31.423,91.266 38.201 C 93.642 49.268,107.216 48.106,108.816 36.699 C 110.030 28.044,104.342 21.615,97.261 23.640 M120.378 23.532 C 119.195 23.954,118.544 24.438,117.893 25.380 C 117.096 26.532,116.774 26.481,116.774 25.204 C 116.774 23.763,116.596 23.656,114.194 23.656 C 111.349 23.656,111.613 22.547,111.613 34.516 C 111.613 46.519,111.328 45.376,114.318 45.376 C 117.163 45.376,116.934 45.976,117.033 38.280 L 117.117 31.720 117.727 30.477 C 118.687 28.519,119.860 27.904,121.050 28.738 C 122.083 29.461,122.151 30.009,122.151 37.612 C 122.151 46.075,121.891 45.376,125.028 45.376 C 128.288 45.376,127.987 46.320,127.912 36.340 L 127.849 27.849 127.275 26.647 C 125.969 23.907,123.037 22.583,120.378 23.532 M14.726 24.099 C 17.818 25.336,18.101 26.110,18.262 33.769 L 18.387 39.689 19.086 40.777 C 20.026 42.241,20.005 42.322,18.298 43.840 C 16.456 45.476,16.194 45.486,14.718 43.975 L 13.560 42.788 12.263 43.743 C 8.221 46.718,2.852 45.615,1.712 41.575 C 0.260 36.430,3.487 32.900,10.323 32.157 C 10.973 32.086,11.820 31.972,12.204 31.904 L 12.903 31.780 12.903 30.306 C 12.903 26.760,8.628 25.900,7.188 29.156 L 6.671 30.325 4.787 30.187 C 1.957 29.979,1.655 29.613,2.597 27.527 C 4.187 24.006,10.229 22.299,14.726 24.099 M35.678 24.134 C 36.244 24.415,36.973 25.036,37.389 25.591 C 38.313 26.825,38.464 26.838,39.253 25.748 C 41.627 22.466,46.959 22.870,48.586 26.455 C 49.117 27.627,49.288 44.389,48.774 44.903 C 48.290 45.387,44.361 45.245,44.087 44.734 C 43.938 44.455,43.865 41.994,43.878 37.691 C 43.904 28.980,43.714 28.170,41.650 28.173 C 39.115 28.176,38.838 29.062,38.710 37.589 C 38.585 45.877,38.843 45.153,36.011 45.158 C 33.347 45.163,33.549 45.741,33.546 38.075 C 33.543 29.537,33.202 28.172,31.073 28.172 C 28.547 28.172,28.319 28.927,28.217 37.634 C 28.122 45.794,28.341 45.161,25.608 45.161 C 22.746 45.161,23.011 46.246,23.011 34.516 C 23.011 22.822,22.767 23.871,25.484 23.871 C 27.795 23.871,27.957 23.980,27.957 25.527 C 27.957 26.887,28.144 26.947,28.888 25.824 C 30.374 23.578,33.164 22.884,35.678 24.134 M65.737 23.973 C 69.046 25.113,69.677 26.808,69.677 34.546 C 69.677 39.553,69.712 39.777,70.714 41.333 C 71.349 42.320,71.384 42.242,69.578 43.838 C 67.694 45.504,66.461 45.361,65.386 43.352 C 64.992 42.615,64.899 42.635,63.519 43.760 C 58.900 47.522,52.855 45.088,52.849 39.462 C 52.844 34.867,55.238 32.956,62.107 32.071 C 64.504 31.762,64.758 31.359,64.048 28.989 C 63.275 26.412,59.400 26.672,58.370 29.371 L 57.999 30.342 56.472 30.215 C 53.152 29.938,52.911 29.727,53.751 27.827 C 55.408 24.083,60.917 22.311,65.737 23.973 M101.777 23.752 C 104.335 24.364,107.388 27.212,107.870 29.437 C 107.937 29.747,108.074 30.242,108.174 30.538 C 110.544 37.541,106.272 45.336,100.000 45.454 C 94.460 45.558,91.175 41.457,91.186 34.452 C 91.198 26.908,95.748 22.312,101.777 23.752 M124.616 24.082 C 127.336 25.399,127.721 26.974,127.733 36.820 C 127.743 46.015,128.026 45.161,124.976 45.161 C 122.151 45.161,122.366 45.800,122.366 37.397 C 122.366 29.794,122.298 29.246,121.265 28.523 C 119.995 27.633,118.669 28.188,117.609 30.055 L 116.907 31.290 116.822 37.957 C 116.722 45.727,116.919 45.161,114.318 45.161 C 111.581 45.161,111.828 46.215,111.828 34.516 C 111.828 22.856,111.602 23.871,114.194 23.871 C 116.433 23.871,116.559 23.971,116.559 25.742 C 116.559 27.237,116.675 27.353,117.312 26.503 C 119.501 23.579,121.920 22.777,124.616 24.082 M74.452 23.914 C 74.295 24.070,74.194 24.828,74.194 25.834 C 74.194 28.197,74.151 28.172,78.080 28.172 C 80.119 28.172,81.290 28.252,81.290 28.391 C 81.290 28.819,77.148 34.923,76.202 35.888 C 75.927 36.170,75.243 37.138,74.683 38.039 L 73.665 39.677 73.661 42.151 L 73.656 44.624 74.409 44.594 C 74.823 44.578,75.742 44.350,76.452 44.089 C 79.375 43.013,83.359 43.017,86.344 44.100 C 87.054 44.357,87.973 44.580,88.387 44.596 L 89.140 44.624 89.203 42.796 C 89.287 40.391,89.191 40.089,88.173 39.570 C 87.056 39.000,84.034 38.283,82.742 38.281 C 81.945 38.280,81.720 38.203,81.720 37.931 C 81.720 37.567,85.690 31.719,86.627 30.704 C 88.660 28.501,89.774 24.608,88.587 23.857 C 88.097 23.547,74.765 23.601,74.452 23.914 M88.262 24.002 C 89.441 24.454,88.438 28.145,86.544 30.323 C 85.548 31.468,81.521 37.389,81.394 37.896 C 81.262 38.421,81.288 38.433,82.834 38.560 C 87.844 38.972,89.107 39.841,88.989 42.798 C 88.914 44.676,88.851 44.704,86.559 43.867 C 83.313 42.682,79.439 42.685,76.237 43.876 C 75.527 44.140,74.704 44.368,74.409 44.382 L 73.871 44.409 73.871 42.150 L 73.871 39.892 75.118 37.918 C 75.803 36.832,76.442 35.912,76.538 35.875 C 76.745 35.794,80.027 31.138,81.039 29.491 C 82.103 27.758,82.075 27.742,78.094 27.742 C 75.170 27.742,74.651 27.692,74.539 27.402 C 74.306 26.794,74.400 24.396,74.667 24.129 C 74.940 23.856,87.574 23.737,88.262 24.002 M98.315 27.852 C 96.010 29.792,96.321 40.163,98.721 41.404 C 100.136 42.135,101.673 41.484,102.431 39.833 C 103.370 37.791,103.183 30.696,102.135 28.591 C 101.456 27.226,99.507 26.849,98.315 27.852 M101.103 27.864 C 103.333 29.017,103.483 39.027,101.299 40.968 C 100.656 41.539,99.141 41.552,98.522 40.992 C 96.522 39.182,96.514 29.764,98.512 28.083 C 99.271 27.444,100.148 27.370,101.103 27.864 M355.374 28.989 C 350.418 30.703,347.276 35.783,348.242 40.519 C 349.625 47.304,356.704 50.891,362.037 47.509 C 363.265 46.730,363.349 46.786,363.280 48.349 C 363.021 54.232,356.356 56.161,353.302 51.237 C 352.763 50.368,352.682 50.369,350.672 51.285 C 348.818 52.130,348.870 52.048,349.505 53.093 C 354.186 60.795,365.703 58.942,367.294 50.229 C 367.635 48.360,367.613 29.849,367.269 29.505 C 366.579 28.815,363.226 29.245,363.226 30.023 C 363.226 30.697,363.078 30.676,361.621 29.799 C 359.613 28.590,357.370 28.299,355.374 28.989 M360.392 33.206 C 363.935 35.038,364.715 40.431,361.852 43.295 C 358.096 47.051,352.344 43.861,352.742 38.242 C 353.029 34.185,357.101 31.504,360.392 33.206 M9.131 35.348 C 5.880 36.861,6.399 41.987,9.770 41.663 C 11.771 41.471,12.903 39.597,12.903 36.480 L 12.903 34.839 11.559 34.841 C 10.603 34.842,9.902 34.989,9.131 35.348 M60.538 35.253 C 57.342 36.713,57.504 41.724,60.747 41.719 C 62.888 41.716,64.474 39.147,64.265 36.022 L 64.194 34.946 62.796 34.903 C 61.823 34.873,61.136 34.979,60.538 35.253 M12.688 36.417 C 12.688 40.603,8.934 43.466,7.608 40.292 C 6.448 37.517,8.328 35.094,11.667 35.063 L 12.688 35.054 12.688 36.417 M63.835 37.051 C 63.682 40.547,61.462 42.610,59.507 41.072 C 56.969 39.075,59.183 35.131,62.875 35.071 L 63.922 35.054 63.835 37.051 M300.323 77.609 C 299.299 78.079,298.841 78.558,298.395 79.625 C 297.962 80.662,297.886 143.332,298.316 144.768 C 298.624 145.797,299.890 146.986,301.006 147.296 C 301.983 147.568,335.008 147.618,335.432 147.349 C 335.645 147.213,335.691 144.349,335.647 133.750 L 335.591 120.323 331.075 120.215 L 326.559 120.108 326.559 114.946 L 326.559 109.785 331.075 109.677 L 335.591 109.570 335.726 103.978 C 335.903 96.594,336.573 94.360,339.468 91.508 C 342.397 88.622,345.172 87.850,352.069 88.003 C 358.019 88.135,357.442 87.581,357.370 93.094 L 357.312 97.527 353.548 97.635 C 347.036 97.823,346.559 98.344,346.559 105.269 L 346.559 109.570 351.606 109.628 C 354.382 109.660,356.726 109.759,356.815 109.848 C 357.002 110.034,355.763 119.807,355.523 120.047 C 355.436 120.134,353.383 120.232,350.962 120.264 L 346.559 120.323 346.504 133.632 C 346.464 143.284,346.515 147.022,346.691 147.234 C 347.001 147.608,364.119 147.665,365.445 147.296 C 366.562 146.986,367.827 145.797,368.136 144.768 C 368.620 143.150,368.474 80.532,367.983 79.462 C 367.513 78.439,367.033 77.981,365.967 77.535 C 364.632 76.978,301.543 77.048,300.323 77.609 M120.002 102.493 C 118.360 103.205,117.735 104.190,117.516 106.407 L 117.364 107.957 116.535 107.957 C 115.140 107.957,114.959 109.940,116.343 110.071 C 117.642 110.195,117.634 110.166,117.634 115.080 L 117.634 119.570 118.925 119.570 L 120.215 119.570 120.215 115.097 C 120.215 109.860,120.106 110.108,122.401 110.108 C 124.547 110.108,124.516 110.046,124.517 114.341 C 124.518 118.867,125.111 119.846,127.847 119.846 C 129.683 119.846,129.892 119.705,129.892 118.470 L 129.892 117.400 129.162 117.537 C 127.515 117.846,127.100 116.935,127.169 113.157 C 127.223 110.202,127.280 110.066,128.463 110.113 C 129.921 110.170,129.892 110.191,129.892 109.032 L 129.892 107.957 128.625 107.957 C 127.140 107.957,127.097 107.898,127.097 105.896 C 127.097 104.342,127.154 104.382,125.699 104.902 C 124.674 105.269,124.621 105.326,124.566 106.138 C 124.439 108.022,124.518 107.957,122.366 107.957 C 120.207 107.957,119.999 107.777,120.302 106.165 C 120.523 104.986,120.905 104.652,122.181 104.524 C 123.292 104.413,123.336 104.384,123.400 103.720 C 123.548 102.186,121.999 101.627,120.002 102.493 M58.653 103.280 C 57.750 103.965,57.821 105.281,58.797 105.920 C 59.834 106.600,61.290 105.809,61.290 104.566 C 61.290 103.428,59.565 102.587,58.653 103.280 M51.716 103.548 C 51.513 103.715,47.676 113.161,47.016 115.121 C 46.878 115.531,46.448 115.428,46.456 114.987 C 46.459 114.846,45.468 112.188,44.256 109.079 L 42.051 103.426 40.004 103.487 L 37.957 103.548 37.957 111.505 L 37.957 119.462 39.247 119.462 L 40.538 119.462 40.563 113.595 C 40.577 110.368,40.638 107.678,40.698 107.617 C 40.758 107.557,41.896 110.226,43.226 113.549 L 45.644 119.591 46.724 119.526 L 47.803 119.462 50.192 113.371 L 52.581 107.279 52.688 113.371 L 52.796 119.462 54.140 119.526 C 55.130 119.574,55.485 119.517,55.487 119.311 C 55.536 114.528,55.464 103.565,55.383 103.483 C 55.175 103.275,51.981 103.332,51.716 103.548 M66.856 108.026 C 62.958 109.482,61.570 114.342,64.068 117.791 C 66.005 120.465,71.817 120.683,72.003 118.089 C 72.089 116.894,71.872 116.678,71.014 117.106 C 68.183 118.518,65.659 116.804,65.841 113.591 C 66.010 110.594,68.568 109.078,71.178 110.428 C 71.506 110.597,71.834 110.675,71.908 110.601 C 72.199 110.310,72.041 108.438,71.701 108.156 C 71.211 107.749,67.841 107.659,66.856 108.026 M78.387 108.132 C 78.032 108.352,77.610 108.692,77.449 108.888 C 77.074 109.342,76.774 109.157,76.774 108.472 C 76.774 107.952,76.736 107.938,75.430 108.000 L 74.086 108.065 74.086 113.763 L 74.086 119.462 75.430 119.526 L 76.774 119.590 76.775 116.408 C 76.777 111.462,77.414 110.151,79.700 110.387 L 80.880 110.509 80.816 109.179 L 80.753 107.849 79.892 107.791 C 79.342 107.753,78.800 107.876,78.387 108.132 M84.643 108.080 C 79.969 109.793,79.810 117.551,84.409 119.478 C 87.405 120.734,91.272 119.297,92.490 116.477 C 94.803 111.117,90.098 106.082,84.643 108.080 M96.344 108.224 C 93.268 109.870,93.672 112.957,97.194 114.726 C 100.771 116.523,99.182 118.864,95.514 117.200 C 94.999 116.966,94.539 116.774,94.493 116.774 C 94.446 116.774,94.409 117.351,94.409 118.056 L 94.409 119.338 95.323 119.589 C 101.417 121.261,104.930 115.491,99.399 112.893 C 97.664 112.078,97.204 111.697,97.204 111.075 C 97.204 109.998,99.145 109.480,100.430 110.215 C 101.361 110.747,101.505 110.634,101.505 109.368 C 101.505 107.932,101.444 107.891,99.143 107.788 C 97.528 107.716,97.198 107.767,96.344 108.224 M107.310 107.943 C 102.204 109.496,101.844 117.409,106.786 119.483 C 111.070 121.281,115.161 118.435,115.161 113.656 C 115.161 109.126,111.700 106.608,107.310 107.943 M58.280 113.763 L 58.280 119.570 59.570 119.570 C 60.280 119.570,60.867 119.497,60.876 119.409 C 60.966 118.454,61.013 108.475,60.928 108.254 C 60.849 108.048,60.426 107.957,59.547 107.957 L 58.280 107.957 58.280 113.763 M88.799 110.483 C 90.023 111.380,90.538 114.058,89.813 115.760 C 88.784 118.173,85.603 118.262,84.360 115.911 C 82.538 112.466,85.897 108.359,88.799 110.483 M111.184 110.539 C 112.065 111.166,112.559 112.615,112.419 114.160 C 111.969 119.121,106.229 118.753,106.240 113.763 C 106.248 110.609,108.876 108.895,111.184 110.539 M1.864 112.401 C 1.785 112.480,1.720 115.384,1.720 118.853 L 1.720 125.161 8.172 125.161 C 11.720 125.161,14.625 125.089,14.626 125.000 C 14.632 124.575,14.636 112.761,14.630 112.527 C 14.623 112.236,2.152 112.114,1.864 112.401 M39.462 150.762 C 26.788 152.159,18.574 164.856,22.496 176.989 L 23.018 178.602 22.210 179.247 C 8.194 190.450,14.535 211.136,32.032 211.285 L 35.354 211.314 36.165 212.915 C 42.774 225.954,61.809 226.714,68.817 214.218 C 70.129 211.879,69.988 211.963,71.613 212.559 C 78.282 215.003,85.883 212.736,90.185 207.020 L 91.419 205.381 94.267 205.517 C 108.039 206.178,118.437 195.956,118.011 182.177 C 117.547 167.188,103.372 157.089,89.053 161.547 L 86.817 162.243 86.473 161.722 C 80.035 151.972,65.969 149.899,58.616 157.617 C 57.776 158.498,57.744 158.489,56.245 156.918 C 52.919 153.433,48.509 151.249,43.792 150.752 C 41.631 150.524,41.618 150.524,39.462 150.762 M346.344 152.387 C 337.456 154.354,332.018 162.306,332.903 172.043 L 333.011 173.226 331.398 173.171 C 320.829 172.812,308.911 167.209,300.249 158.528 C 298.553 156.828,297.089 155.520,296.996 155.622 C 296.904 155.723,296.575 156.450,296.266 157.236 C 293.531 164.185,295.280 171.813,300.722 176.680 C 301.508 177.382,302.150 178.044,302.150 178.149 C 302.151 178.519,299.323 178.074,297.463 177.413 C 296.434 177.046,295.407 176.689,295.181 176.619 C 294.794 176.498,294.778 176.584,294.905 178.095 C 295.425 184.240,299.776 190.046,305.550 192.298 C 306.460 192.652,307.437 193.035,307.721 193.148 C 309.048 193.677,305.716 194.304,302.826 194.070 L 301.029 193.924 301.184 194.435 C 302.848 199.903,309.032 204.742,315.377 205.541 C 317.113 205.760,317.062 206.019,315.011 207.376 C 308.978 211.366,302.446 213.306,294.946 213.336 C 291.578 213.349,291.548 213.297,296.237 215.606 C 313.845 224.277,335.398 221.708,350.011 209.198 C 360.529 200.192,367.224 185.886,367.347 172.151 C 367.376 168.878,367.331 169.017,368.709 167.977 C 371.001 166.246,375.771 161.075,375.409 160.713 C 375.343 160.647,374.224 160.940,372.922 161.363 C 370.372 162.193,366.932 162.922,366.701 162.680 C 366.623 162.598,366.942 162.228,367.411 161.857 C 369.944 159.852,372.468 156.702,373.116 154.738 C 373.487 153.615,373.341 153.601,371.334 154.578 C 369.321 155.557,365.886 156.798,364.063 157.205 L 362.857 157.474 361.267 156.139 C 357.258 152.772,351.333 151.283,346.344 152.387 M197.795 173.123 C 196.396 173.476,194.972 174.329,193.943 175.429 C 192.249 177.240,192.165 177.507,192.080 181.357 C 191.995 185.187,191.890 185.396,190.285 184.935 C 187.714 184.198,187.426 185.620,189.959 186.548 C 191.968 187.284,192.237 188.097,191.149 190.138 C 190.200 191.919,188.119 193.818,186.449 194.427 C 184.467 195.150,184.999 195.751,188.233 196.443 C 188.619 196.525,188.914 196.779,189.063 197.156 C 189.548 198.388,189.467 198.351,191.751 198.370 C 193.829 198.386,193.951 198.414,195.072 199.129 C 198.666 201.420,200.723 201.698,203.058 200.208 C 205.848 198.427,206.387 198.239,208.475 198.316 L 210.390 198.387 210.625 197.698 C 210.958 196.720,211.171 196.569,212.714 196.212 C 214.977 195.687,215.374 195.111,213.814 194.615 C 211.059 193.739,208.041 190.287,208.214 188.209 C 208.276 187.461,208.361 187.380,209.831 186.664 C 211.886 185.663,212.076 185.460,211.444 184.944 C 210.991 184.574,210.870 184.566,209.946 184.844 C 209.013 185.125,207.973 185.082,207.945 184.762 C 207.938 184.686,207.914 183.220,207.891 181.505 C 207.842 177.799,207.430 176.640,205.570 174.968 C 203.750 173.332,200.253 172.502,197.795 173.123 M203.219 173.820 C 206.376 175.001,207.634 177.246,207.634 181.694 C 207.634 185.374,207.805 185.679,209.593 185.201 C 212.021 184.551,212.194 185.454,209.810 186.336 C 207.722 187.108,207.378 187.984,208.372 190.001 C 209.308 191.903,211.190 193.747,213.000 194.536 C 213.775 194.873,214.409 195.221,214.409 195.308 C 214.409 195.483,212.384 196.129,211.837 196.129 C 211.256 196.129,210.579 196.743,210.434 197.400 L 210.297 198.026 208.085 198.099 C 205.999 198.168,205.809 198.213,204.711 198.906 C 200.757 201.403,199.233 201.498,196.115 199.444 C 194.140 198.144,193.695 198.001,191.534 197.978 L 189.627 197.957 189.383 197.209 C 189.128 196.425,189.130 196.426,186.813 195.801 C 185.412 195.423,185.329 195.118,186.515 194.707 C 188.267 194.101,190.028 192.523,191.276 190.443 C 192.637 188.175,192.270 187.135,189.767 186.166 C 187.666 185.352,188.159 184.845,190.645 185.264 C 192.188 185.524,192.276 185.326,192.324 181.499 C 192.362 178.477,192.411 178.086,192.864 177.238 C 194.729 173.743,199.131 172.290,203.219 173.820 M76.191 176.332 C 76.625 176.736,75.931 177.634,75.184 177.634 C 74.147 177.634,73.795 177.811,73.433 178.510 C 72.863 179.611,73.003 179.967,74.032 180.041 C 75.697 180.162,75.237 181.720,73.537 181.720 C 72.840 181.720,72.678 181.803,72.591 182.204 C 72.533 182.470,72.155 184.544,71.751 186.813 C 70.743 192.473,70.019 193.631,67.488 193.631 C 66.203 193.631,65.849 193.345,66.195 192.586 C 66.397 192.142,66.594 192.043,67.270 192.043 C 68.828 192.043,68.987 191.702,69.999 186.181 C 70.899 181.272,70.881 181.764,70.161 181.681 C 69.057 181.554,69.311 180.101,70.462 179.959 C 70.900 179.905,71.072 179.681,71.381 178.763 C 71.926 177.147,72.615 176.471,74.086 176.112 C 74.764 175.946,75.904 176.065,76.191 176.332 M49.204 176.387 C 49.393 176.576,49.462 178.302,49.462 182.812 C 49.462 189.609,49.457 189.637,48.181 189.357 L 47.527 189.213 47.527 182.797 C 47.527 177.864,47.589 176.355,47.796 176.271 C 48.289 176.072,48.943 176.126,49.204 176.387 M35.631 180.325 C 36.311 180.609,36.376 180.705,36.243 181.235 C 36.042 182.035,36.033 182.039,35.084 181.755 C 31.648 180.725,30.269 182.706,33.619 183.858 C 36.951 185.005,37.775 187.550,35.308 189.075 C 33.809 190.001,29.677 189.377,29.677 188.225 C 29.677 187.281,30.137 187.048,31.067 187.523 C 32.692 188.351,34.839 187.965,34.839 186.845 C 34.839 186.392,33.783 185.676,32.804 185.465 C 30.927 185.060,29.892 184.073,29.892 182.688 C 29.892 180.286,32.736 179.116,35.631 180.325 M43.011 180.018 C 45.103 180.498,45.590 181.573,45.587 185.699 C 45.584 189.321,45.449 189.459,41.875 189.461 C 36.276 189.465,36.267 183.775,41.865 183.481 C 43.883 183.375,44.156 183.061,43.128 182.033 C 42.527 181.432,41.483 181.342,39.858 181.751 C 38.816 182.014,38.505 181.849,38.498 181.029 C 38.490 180.154,41.079 179.574,43.011 180.018 M57.454 180.347 C 58.663 180.958,59.451 182.584,59.318 184.194 L 59.247 185.054 56.344 185.161 L 53.441 185.269 53.375 185.843 C 53.202 187.338,55.407 188.357,57.534 187.766 C 58.918 187.381,59.590 188.758,58.247 189.226 C 55.427 190.210,52.066 188.869,51.407 186.499 C 50.197 182.142,53.785 178.491,57.454 180.347 M66.750 180.386 C 68.022 181.129,67.503 182.190,66.076 181.762 C 62.581 180.715,61.474 182.753,64.917 183.896 C 68.170 184.976,68.833 187.787,66.164 189.181 C 64.581 190.007,60.860 189.263,60.860 188.120 C 60.860 187.248,61.232 187.091,62.227 187.543 C 63.573 188.154,65.272 188.101,65.709 187.434 C 66.260 186.593,65.837 186.139,63.908 185.496 C 61.456 184.680,60.612 183.606,61.083 181.901 C 61.602 180.020,64.703 179.190,66.750 180.386 M81.828 180.509 C 83.076 181.175,83.871 182.817,83.871 184.731 C 83.871 188.988,79.524 191.139,76.607 188.326 C 74.316 186.116,75.307 180.721,78.113 180.121 C 78.382 180.064,78.796 179.976,79.032 179.926 C 79.742 179.777,80.915 180.022,81.828 180.509 M98.263 180.331 C 99.023 181.067,98.284 181.591,96.470 181.603 C 94.552 181.614,93.990 182.015,93.538 183.694 C 92.830 186.323,94.371 188.163,97.030 187.862 C 98.241 187.725,98.269 187.734,98.412 188.303 C 98.798 189.842,94.503 189.942,92.834 188.433 C 91.122 186.884,91.029 183.071,92.660 181.215 C 93.774 179.946,97.293 179.391,98.263 180.331 M105.646 180.354 C 106.695 180.891,107.376 182.197,107.399 183.717 L 107.419 185.054 104.453 185.114 C 101.145 185.180,101.044 185.231,101.592 186.542 C 102.107 187.774,103.885 188.293,105.754 187.757 C 107.008 187.397,107.588 188.597,106.450 189.195 C 104.574 190.181,100.722 189.119,99.883 187.385 C 97.757 182.992,101.612 178.289,105.646 180.354 M87.329 180.338 C 87.669 180.646,87.762 180.646,88.357 180.338 C 89.163 179.921,90.723 179.888,90.876 180.285 C 91.143 180.981,90.576 181.720,89.776 181.720 C 87.919 181.720,87.527 182.505,87.527 186.218 C 87.527 189.288,87.350 189.681,86.109 189.369 L 85.591 189.239 85.591 184.745 C 85.591 181.351,85.657 180.224,85.860 180.142 C 86.389 179.929,86.961 180.005,87.329 180.338 M53.962 182.134 C 52.747 183.349,53.033 183.656,55.376 183.656 L 57.419 183.656 57.419 183.109 C 57.419 181.574,55.159 180.937,53.962 182.134 M78.441 181.738 C 76.968 182.595,76.998 186.941,78.483 187.736 C 80.723 188.935,82.582 186.314,81.712 183.182 C 81.324 181.786,79.637 181.041,78.441 181.738 M102.062 182.167 C 100.998 183.432,101.221 183.656,103.548 183.656 C 105.259 183.656,105.591 183.601,105.591 183.319 C 105.591 181.611,103.190 180.827,102.062 182.167 M40.363 185.383 C 38.852 186.572,39.895 188.022,42.183 187.914 L 43.548 187.849 43.548 186.452 L 43.548 185.054 42.245 184.991 C 41.182 184.939,40.835 185.012,40.363 185.383 " stroke="none" fill="#308dcb" fill-rule="evenodd"></path><path id="path1" d="M333.978 28.901 C 327.137 30.423,323.788 38.662,327.699 44.347 C 333.010 52.065,344.751 49.508,346.254 40.305 C 347.383 33.393,340.893 27.363,333.978 28.901 M338.645 33.300 C 342.299 35.165,343.049 40.399,340.072 43.268 C 335.512 47.662,328.693 42.581,330.972 36.489 C 332.131 33.391,335.819 31.859,338.645 33.300 M77.458 46.895 C 73.958 47.799,72.327 49.435,75.215 49.146 C 77.732 48.893,81.412 48.941,82.122 49.235 C 83.341 49.740,83.270 51.284,81.832 55.530 C 80.689 58.906,80.850 59.412,82.520 57.695 C 84.721 55.432,86.549 50.086,85.944 47.679 C 85.635 46.448,80.887 46.010,77.458 46.895 M19.250 47.953 C 18.945 48.446,22.463 51.558,25.175 53.194 C 25.597 53.448,26.479 54.013,27.134 54.450 C 31.181 57.143,38.373 59.777,43.978 60.619 C 44.806 60.743,46.180 60.945,47.031 61.067 C 56.922 62.493,73.434 58.621,79.234 53.515 C 80.975 51.982,80.324 50.755,78.207 51.581 C 77.597 51.820,76.116 52.352,74.918 52.764 C 73.719 53.176,72.558 53.615,72.337 53.740 C 71.692 54.104,68.608 54.922,66.505 55.288 C 65.884 55.396,64.820 55.583,64.140 55.704 C 57.092 56.958,47.732 56.861,40.753 55.462 C 37.562 54.823,34.160 53.960,33.548 53.635 C 33.253 53.478,32.536 53.197,31.955 53.010 C 29.632 52.262,24.284 50.012,22.212 48.910 C 19.996 47.732,19.488 47.568,19.250 47.953 M5.658 97.795 C 7.291 97.832,9.904 97.832,11.464 97.795 C 13.025 97.758,11.688 97.728,8.495 97.729 C 5.301 97.729,4.025 97.759,5.658 97.795 M16.395 97.814 C 16.183 97.948,16.135 99.417,16.180 104.423 L 16.237 110.860 22.473 110.918 C 28.184 110.970,28.733 110.943,28.983 110.602 C 29.420 110.005,29.342 98.405,28.898 97.961 C 28.537 97.600,16.947 97.463,16.395 97.814 M16.276 112.398 C 15.926 112.748,16.113 125.109,16.469 125.246 C 16.980 125.442,28.668 125.396,28.982 125.197 C 29.193 125.063,29.241 123.615,29.197 118.695 L 29.140 112.366 22.781 112.309 C 19.284 112.277,16.356 112.318,16.276 112.398 M133.833 150.714 C 133.363 151.184,133.416 223.063,133.886 223.533 C 134.257 223.904,264.955 224.064,265.536 223.694 C 265.841 223.501,265.950 150.693,265.646 150.592 C 264.904 150.344,134.081 150.466,133.833 150.714 M201.979 172.500 C 206.357 173.429,208.426 176.174,208.602 181.290 C 208.704 184.256,208.731 184.406,209.140 184.346 C 211.229 184.041,211.409 184.044,211.931 184.386 C 212.973 185.068,212.269 186.656,210.781 186.983 C 209.641 187.233,208.817 187.901,208.817 188.574 C 208.817 190.186,211.631 193.140,213.984 193.998 C 216.689 194.984,215.874 196.265,212.025 197.077 C 211.602 197.167,211.407 197.401,211.210 198.060 C 211.067 198.535,210.833 198.939,210.690 198.957 C 210.547 198.975,209.503 199.000,208.370 199.011 C 206.407 199.031,206.256 199.067,205.145 199.775 C 200.899 202.477,198.920 202.468,194.745 199.729 C 193.726 199.060,193.598 199.032,191.520 199.032 C 189.086 199.032,188.909 198.970,188.706 198.048 C 188.552 197.348,188.408 197.263,186.382 196.675 C 185.011 196.278,184.301 195.723,184.301 195.049 C 184.301 194.607,184.426 194.532,186.284 193.876 C 188.750 193.005,192.023 188.701,190.914 187.789 C 190.766 187.667,190.073 187.338,189.374 187.058 C 188.658 186.771,187.911 186.292,187.665 185.962 L 187.228 185.376 187.672 184.785 C 188.128 184.177,188.763 184.079,190.645 184.324 L 191.290 184.409 191.321 181.505 C 191.392 174.841,195.732 171.174,201.979 172.500 " stroke="none" fill="#f9f504" fill-rule="evenodd"></path><path id="path2" d="M0.000 112.473 L 0.000 224.946 200.000 224.946 L 400.000 224.946 400.000 112.473 L 400.000 0.000 200.000 0.000 L 0.000 0.000 0.000 112.473 M209.032 10.759 C 209.032 14.816,205.682 19.051,201.613 20.138 C 199.685 20.653,199.706 20.669,199.843 18.763 C 200.159 14.382,204.230 10.199,208.871 9.487 C 208.960 9.473,209.032 10.046,209.032 10.759 M291.828 17.996 C 293.582 18.400,296.824 19.960,297.957 20.946 L 298.817 21.695 297.273 23.250 L 295.729 24.805 295.015 24.261 C 285.052 16.668,271.741 28.830,278.494 39.355 C 283.520 47.186,296.840 45.682,297.985 37.155 L 298.122 36.137 293.093 36.079 L 288.065 36.022 288.065 33.978 L 288.065 31.935 295.269 31.935 L 302.473 31.935 302.534 34.278 C 302.906 48.460,284.808 54.404,275.633 43.113 C 266.151 31.444,277.019 14.590,291.828 17.996 M374.923 18.835 C 375.192 19.536,375.069 47.856,374.796 48.129 C 374.386 48.539,371.082 48.471,370.655 48.044 C 370.235 47.623,370.162 19.269,370.580 18.766 C 370.940 18.332,374.753 18.392,374.923 18.835 M196.977 21.678 C 199.644 22.750,200.558 22.804,202.688 22.012 C 209.059 19.646,214.277 20.338,217.901 24.031 L 218.814 24.961 218.064 25.545 C 211.687 30.508,212.051 39.641,218.795 43.871 C 220.123 44.704,220.144 44.755,219.660 45.941 C 217.706 50.731,214.140 55.272,211.194 56.720 C 209.503 57.552,208.421 57.482,205.161 56.333 C 201.407 55.010,199.730 55.002,196.008 56.289 C 190.767 58.101,188.757 57.278,184.732 51.669 C 173.138 35.514,181.352 15.397,196.977 21.678 M14.635 23.797 C 18.030 25.056,18.359 25.877,18.494 33.441 L 18.602 39.462 19.416 40.769 C 20.384 42.323,20.366 42.397,18.643 43.916 C 16.407 45.889,15.748 45.895,14.271 43.958 C 13.585 43.059,13.476 43.056,12.512 43.902 C 7.907 47.946,1.309 45.323,1.295 39.443 C 1.283 34.600,5.563 31.613,12.513 31.613 C 12.768 31.613,12.728 29.639,12.457 28.863 C 11.735 26.791,8.140 27.136,7.379 29.350 C 6.953 30.590,6.910 30.607,4.618 30.435 C 1.617 30.210,1.328 29.819,2.367 27.393 C 3.939 23.726,9.805 22.007,14.635 23.797 M63.548 23.209 C 68.937 24.003,69.720 25.308,69.885 33.769 L 70.000 39.689 70.699 40.777 C 71.645 42.250,71.617 42.357,69.883 43.910 C 67.745 45.823,66.784 45.810,65.471 43.850 C 64.952 43.075,64.874 43.076,63.867 43.874 C 58.819 47.872,52.584 45.431,52.598 39.462 C 52.609 34.902,55.259 32.582,61.183 31.944 C 61.892 31.868,62.798 31.749,63.195 31.681 L 63.916 31.557 63.831 30.053 C 63.654 26.913,59.272 26.413,58.603 29.457 C 58.375 30.498,58.068 30.605,55.802 30.435 C 53.563 30.267,53.118 30.038,53.118 29.051 C 53.118 28.315,54.230 26.046,54.889 25.438 C 56.807 23.667,60.392 22.745,63.548 23.209 M35.751 23.840 C 36.448 24.144,36.990 24.594,37.459 25.261 C 38.271 26.412,38.460 26.445,39.032 25.537 C 41.092 22.267,46.914 22.618,48.706 26.120 L 49.355 27.388 49.422 35.974 C 49.503 46.294,49.793 45.376,46.445 45.376 C 43.424 45.376,43.689 46.120,43.613 37.410 C 43.541 29.114,43.520 28.987,42.146 28.575 C 41.071 28.253,40.009 28.753,39.445 29.846 C 39.067 30.578,39.027 31.245,38.965 37.736 C 38.886 46.079,39.147 45.376,36.118 45.376 C 32.843 45.376,33.119 46.075,33.117 37.780 C 33.116 29.426,32.885 28.387,31.036 28.387 C 28.798 28.387,28.541 29.323,28.433 37.849 C 28.330 46.054,28.584 45.376,25.608 45.376 C 22.493 45.376,22.796 46.545,22.796 34.516 C 22.796 22.518,22.514 23.656,25.484 23.656 C 27.938 23.656,28.172 23.772,28.172 24.989 C 28.172 25.878,28.455 26.053,28.813 25.385 C 29.829 23.487,33.212 22.733,35.751 23.840 M102.052 23.557 C 106.808 24.786,109.699 30.403,108.816 36.699 C 107.216 48.106,93.642 49.268,91.266 38.201 C 89.281 28.953,94.662 21.647,102.052 23.557 M123.774 23.466 C 125.068 23.792,126.561 25.148,127.275 26.647 L 127.849 27.849 127.912 36.340 C 127.987 46.320,128.288 45.376,125.028 45.376 C 121.891 45.376,122.151 46.075,122.151 37.612 C 122.151 30.009,122.083 29.461,121.050 28.738 C 119.860 27.904,118.687 28.519,117.727 30.477 L 117.117 31.720 117.033 38.280 C 116.934 45.976,117.163 45.376,114.318 45.376 C 111.328 45.376,111.613 46.519,111.613 34.516 C 111.613 22.547,111.349 23.656,114.194 23.656 C 116.596 23.656,116.774 23.763,116.774 25.204 C 116.774 26.481,117.096 26.532,117.893 25.380 C 119.148 23.564,121.336 22.852,123.774 23.466 M88.587 23.857 C 89.774 24.608,88.660 28.501,86.627 30.704 C 85.690 31.719,81.720 37.567,81.720 37.931 C 81.720 38.203,81.945 38.280,82.742 38.281 C 84.034 38.283,87.056 39.000,88.173 39.570 C 89.191 40.089,89.287 40.391,89.203 42.796 L 89.140 44.624 88.387 44.596 C 87.973 44.580,87.054 44.357,86.344 44.100 C 83.359 43.017,79.375 43.013,76.452 44.089 C 75.742 44.350,74.823 44.578,74.409 44.594 L 73.656 44.624 73.661 42.151 L 73.665 39.677 74.683 38.039 C 75.243 37.138,75.927 36.170,76.202 35.888 C 77.148 34.923,81.290 28.819,81.290 28.391 C 81.290 28.252,80.119 28.172,78.080 28.172 C 74.151 28.172,74.194 28.197,74.194 25.834 C 74.194 24.828,74.295 24.070,74.452 23.914 C 74.765 23.601,88.097 23.547,88.587 23.857 M98.512 28.083 C 96.514 29.764,96.522 39.182,98.522 40.992 C 101.341 43.543,103.742 37.681,102.582 31.080 C 102.001 27.775,100.335 26.549,98.512 28.083 M316.172 28.839 C 325.813 30.843,327.246 43.943,318.273 48.045 C 310.422 51.634,301.910 44.020,304.493 35.718 C 306.007 30.855,311.188 27.803,316.172 28.839 M338.088 28.822 C 343.364 29.822,347.107 35.085,346.254 40.305 C 344.751 49.508,333.010 52.065,327.699 44.347 C 322.735 37.131,329.398 27.174,338.088 28.822 M359.326 28.831 C 359.914 28.957,360.946 29.393,361.621 29.799 C 363.078 30.676,363.226 30.697,363.226 30.023 C 363.226 29.245,366.579 28.815,367.269 29.505 C 367.613 29.849,367.635 48.360,367.294 50.229 C 365.703 58.942,354.186 60.795,349.505 53.093 C 348.870 52.048,348.818 52.130,350.672 51.285 C 352.682 50.369,352.763 50.368,353.302 51.237 C 356.356 56.161,363.021 54.232,363.280 48.349 C 363.349 46.786,363.265 46.730,362.037 47.509 C 356.704 50.891,349.625 47.304,348.242 40.519 C 346.935 34.109,353.188 27.515,359.326 28.831 M390.043 29.578 C 392.431 30.739,395.911 35.397,395.019 36.240 C 394.774 36.472,390.685 38.236,383.817 41.072 C 381.970 41.835,381.868 42.023,382.706 43.122 C 384.464 45.428,388.389 45.523,390.748 43.317 C 391.980 42.164,391.818 42.168,393.480 43.251 C 395.150 44.339,395.165 44.575,393.658 46.001 C 386.808 52.479,375.680 46.685,377.001 37.329 C 377.890 31.033,384.706 26.983,390.043 29.578 M312.341 33.036 C 309.208 34.147,307.565 38.253,308.995 41.398 C 311.679 47.297,319.847 45.354,319.874 38.810 C 319.892 34.656,316.058 31.718,312.341 33.036 M334.291 33.115 C 331.047 34.403,329.576 38.438,331.181 41.648 C 332.984 45.256,337.210 46.026,340.072 43.268 C 344.625 38.880,340.042 30.832,334.291 33.115 M356.479 32.991 C 350.594 35.181,351.964 44.856,358.155 44.833 C 365.152 44.807,365.495 33.278,358.514 32.768 C 357.784 32.715,356.985 32.803,356.479 32.991 M384.945 32.889 C 382.836 33.531,381.307 35.451,381.295 37.473 C 381.289 38.536,381.171 38.560,385.905 36.551 C 390.625 34.549,390.258 34.778,389.825 34.117 C 389.082 32.984,386.648 32.371,384.945 32.889 M9.841 35.360 C 6.306 36.621,6.410 42.085,9.956 41.420 C 11.561 41.119,12.688 39.055,12.688 36.417 L 12.688 35.054 11.667 35.063 C 11.105 35.068,10.283 35.202,9.841 35.360 M60.923 35.408 C 57.883 36.485,57.722 41.508,60.728 41.505 C 62.589 41.502,63.711 39.895,63.835 37.051 L 63.922 35.054 62.875 35.071 C 62.299 35.080,61.421 35.232,60.923 35.408 M84.801 46.795 C 87.165 47.600,85.747 54.377,82.520 57.695 C 80.850 59.412,80.689 58.906,81.832 55.530 C 83.270 51.284,83.341 49.740,82.122 49.235 C 81.412 48.941,77.732 48.893,75.215 49.146 C 73.871 49.280,73.763 49.260,73.763 48.873 C 73.763 47.231,81.697 45.737,84.801 46.795 M22.212 48.910 C 24.284 50.012,29.632 52.262,31.955 53.010 C 32.536 53.197,33.253 53.478,33.548 53.635 C 34.160 53.960,37.562 54.823,40.753 55.462 C 47.732 56.861,57.092 56.958,64.140 55.704 C 64.820 55.583,65.884 55.396,66.505 55.288 C 68.608 54.922,71.692 54.104,72.337 53.740 C 72.558 53.615,73.719 53.176,74.918 52.764 C 76.116 52.352,77.597 51.820,78.207 51.581 C 80.324 50.755,80.975 51.982,79.234 53.515 C 73.434 58.621,56.922 62.493,47.031 61.067 C 46.180 60.945,44.806 60.743,43.978 60.619 C 38.373 59.777,31.181 57.143,27.134 54.450 C 26.479 54.013,25.597 53.448,25.175 53.194 C 23.865 52.404,19.568 49.001,19.338 48.571 C 18.714 47.405,19.573 47.507,22.212 48.910 M365.967 77.535 C 367.033 77.981,367.513 78.439,367.983 79.462 C 368.474 80.532,368.620 143.150,368.136 144.768 C 367.827 145.797,366.562 146.986,365.445 147.296 C 364.119 147.665,347.001 147.608,346.691 147.234 C 346.515 147.022,346.464 143.284,346.504 133.632 L 346.559 120.323 350.962 120.264 C 353.383 120.232,355.436 120.134,355.523 120.047 C 355.763 119.807,357.002 110.034,356.815 109.848 C 356.726 109.759,354.382 109.660,351.606 109.628 L 346.559 109.570 346.559 105.269 C 346.559 98.344,347.036 97.823,353.548 97.635 L 357.312 97.527 357.370 93.094 C 357.442 87.581,358.019 88.135,352.069 88.003 C 345.172 87.850,342.397 88.622,339.468 91.508 C 336.573 94.360,335.903 96.594,335.726 103.978 L 335.591 109.570 331.075 109.677 L 326.559 109.785 326.559 114.946 L 326.559 120.108 331.075 120.215 L 335.591 120.323 335.647 133.750 C 335.691 144.349,335.645 147.213,335.432 147.349 C 335.008 147.618,301.983 147.568,301.006 147.296 C 299.890 146.986,298.624 145.797,298.316 144.768 C 297.886 143.332,297.962 80.662,298.395 79.625 C 298.841 78.558,299.299 78.079,300.323 77.609 C 301.543 77.048,364.632 76.978,365.967 77.535 M14.479 97.903 C 14.813 98.148,14.841 98.736,14.788 104.409 L 14.731 110.645 8.232 110.702 L 1.733 110.759 1.673 104.498 C 1.640 101.055,1.661 98.160,1.720 98.065 C 2.016 97.591,13.847 97.441,14.479 97.903 M28.898 97.961 C 29.342 98.405,29.420 110.005,28.983 110.602 C 28.733 110.943,28.184 110.970,22.473 110.918 L 16.237 110.860 16.180 104.423 C 16.135 99.417,16.183 97.948,16.395 97.814 C 16.947 97.463,28.537 97.600,28.898 97.961 M123.231 102.591 C 123.818 103.688,123.433 104.399,122.181 104.524 C 120.905 104.652,120.523 104.986,120.302 106.165 C 119.999 107.777,120.207 107.957,122.366 107.957 C 124.518 107.957,124.439 108.022,124.566 106.138 C 124.621 105.326,124.674 105.269,125.699 104.902 C 127.154 104.382,127.097 104.342,127.097 105.896 C 127.097 107.898,127.140 107.957,128.625 107.957 L 129.892 107.957 129.892 109.032 C 129.892 110.191,129.921 110.170,128.463 110.113 C 127.280 110.066,127.223 110.202,127.169 113.157 C 127.100 116.935,127.515 117.846,129.162 117.537 L 129.892 117.400 129.892 118.470 C 129.892 119.705,129.683 119.846,127.847 119.846 C 125.111 119.846,124.518 118.867,124.517 114.341 C 124.516 110.046,124.547 110.108,122.401 110.108 C 120.106 110.108,120.215 109.860,120.215 115.097 L 120.215 119.570 118.925 119.570 L 117.634 119.570 117.634 115.080 C 117.634 110.166,117.642 110.195,116.343 110.071 C 114.959 109.940,115.140 107.957,116.535 107.957 L 117.364 107.957 117.516 106.407 C 117.682 104.729,117.960 104.024,118.745 103.291 C 119.974 102.143,122.759 101.708,123.231 102.591 M177.879 102.965 C 182.971 105.045,181.561 112.915,175.994 113.489 C 174.464 113.647,174.450 113.622,177.419 116.138 C 180.527 118.771,180.516 118.711,177.903 118.706 L 175.806 118.702 171.344 114.815 C 168.889 112.677,166.935 110.840,167.002 110.733 C 167.068 110.625,169.125 110.536,171.572 110.534 C 177.029 110.531,177.908 110.181,177.908 108.011 C 177.908 105.666,177.016 105.354,170.497 105.426 L 165.269 105.484 165.161 112.043 L 165.054 118.602 163.548 118.602 L 162.043 118.602 161.987 110.594 L 161.930 102.587 168.653 102.530 C 175.421 102.473,176.837 102.540,177.879 102.965 M194.393 102.957 C 195.154 103.664,204.532 118.295,204.381 118.540 C 204.323 118.633,203.516 118.710,202.588 118.710 L 200.901 118.710 200.313 117.688 C 199.228 115.802,199.559 115.914,195.074 115.911 C 190.568 115.907,190.833 115.981,189.905 114.467 C 188.947 112.904,188.949 112.903,193.262 112.903 C 196.644 112.903,197.021 112.867,196.902 112.557 C 196.504 111.518,193.059 106.274,192.837 106.368 C 192.696 106.428,190.856 109.229,188.748 112.593 L 184.914 118.710 183.185 118.710 C 180.977 118.710,180.715 119.397,186.225 110.723 C 191.232 102.840,191.612 102.366,192.903 102.366 C 193.537 102.366,193.921 102.518,194.393 102.957 M227.097 109.014 C 227.097 113.693,227.166 115.467,227.355 115.656 C 227.545 115.846,229.443 115.914,234.559 115.914 C 238.380 115.914,241.505 115.994,241.505 116.092 C 241.505 116.190,241.139 116.795,240.691 117.436 L 239.877 118.602 232.414 118.659 C 225.183 118.713,224.938 118.702,224.519 118.282 C 224.101 117.865,224.086 117.579,224.086 110.226 L 224.086 102.603 225.215 102.538 C 227.279 102.419,227.097 101.790,227.097 109.014 M264.677 103.138 C 265.750 104.338,264.892 106.022,263.208 106.022 C 262.009 106.022,261.153 104.519,261.748 103.459 C 262.411 102.277,263.775 102.128,264.677 103.138 M155.538 103.160 C 161.840 106.071,161.836 115.071,155.531 118.026 L 154.301 118.602 147.527 118.602 L 140.753 118.602 139.402 117.978 C 132.905 114.978,133.257 105.650,139.968 102.986 C 141.598 102.339,154.062 102.478,155.538 103.160 M222.151 102.710 C 222.151 102.780,221.802 103.403,221.376 104.094 L 220.601 105.349 215.300 105.417 C 210.338 105.480,209.944 105.514,209.125 105.952 C 205.578 107.851,205.198 112.504,208.402 114.825 C 209.699 115.764,210.866 115.914,216.892 115.914 C 220.453 115.914,222.366 115.990,222.366 116.132 C 222.366 116.252,222.013 116.881,221.582 117.530 L 220.799 118.710 215.385 118.710 C 209.553 118.710,208.529 118.566,206.869 117.519 C 201.269 113.983,202.002 105.615,208.134 103.093 C 209.318 102.606,222.151 102.255,222.151 102.710 M260.000 102.799 C 260.000 102.919,259.652 103.542,259.226 104.183 L 258.452 105.349 253.151 105.417 C 247.123 105.493,246.809 105.570,245.283 107.353 C 243.727 109.172,243.583 109.132,251.882 109.196 C 256.549 109.233,259.140 109.330,259.140 109.469 C 259.140 109.587,258.787 110.215,258.357 110.864 L 257.574 112.043 251.146 112.043 C 244.030 112.043,244.092 112.030,244.881 113.381 C 246.147 115.549,247.567 115.914,254.742 115.914 C 258.415 115.914,260.215 115.988,260.215 116.139 C 260.215 116.263,259.874 116.898,259.457 117.550 L 258.699 118.735 252.839 118.669 L 246.978 118.602 245.549 117.898 C 239.149 114.745,239.551 105.594,246.205 102.992 C 247.364 102.538,260.000 102.362,260.000 102.799 M60.762 103.539 C 61.685 104.461,61.271 105.850,59.991 106.131 C 58.775 106.398,57.686 105.220,58.102 104.086 C 58.532 102.913,59.863 102.639,60.762 103.539 M55.383 103.483 C 55.464 103.565,55.536 114.528,55.487 119.311 C 55.485 119.517,55.130 119.574,54.140 119.526 L 52.796 119.462 52.688 113.371 L 52.581 107.279 50.192 113.371 L 47.803 119.462 46.724 119.526 L 45.644 119.591 43.226 113.549 C 41.896 110.226,40.758 107.557,40.698 107.617 C 40.638 107.678,40.577 110.368,40.563 113.595 L 40.538 119.462 39.247 119.462 L 37.957 119.462 37.957 111.505 L 37.957 103.548 40.004 103.487 L 42.051 103.426 44.256 109.079 C 45.468 112.188,46.459 114.846,46.456 114.987 C 46.448 115.428,46.878 115.531,47.016 115.121 C 47.676 113.161,51.513 103.715,51.716 103.548 C 51.981 103.332,55.175 103.275,55.383 103.483 M263.993 103.977 C 263.820 104.900,263.997 105.288,264.428 104.930 C 264.816 104.608,264.819 103.782,264.434 103.462 C 264.192 103.261,264.109 103.359,263.993 103.977 M262.079 103.584 C 261.764 103.899,261.965 104.679,262.475 105.123 C 263.095 105.662,263.871 105.743,263.871 105.269 C 263.871 104.944,263.652 104.864,262.957 104.935 C 262.662 104.965,262.581 104.808,262.581 104.207 C 262.581 103.483,262.402 103.261,262.079 103.584 M141.719 105.571 C 136.510 107.218,136.668 114.549,141.937 115.679 C 143.347 115.982,151.692 115.985,153.097 115.683 C 157.819 114.671,158.626 108.259,154.321 105.955 C 153.390 105.456,143.075 105.142,141.719 105.571 M71.701 108.156 C 72.041 108.438,72.199 110.310,71.908 110.601 C 71.834 110.675,71.506 110.597,71.178 110.428 C 68.568 109.078,66.010 110.594,65.841 113.591 C 65.659 116.804,68.183 118.518,71.014 117.106 C 71.872 116.678,72.089 116.894,72.003 118.089 C 71.817 120.683,66.005 120.465,64.068 117.791 C 61.570 114.342,62.958 109.482,66.856 108.026 C 67.841 107.659,71.211 107.749,71.701 108.156 M80.816 109.179 L 80.880 110.509 79.700 110.387 C 77.414 110.151,76.777 111.462,76.775 116.408 L 76.774 119.590 75.430 119.526 L 74.086 119.462 74.086 113.763 L 74.086 108.065 75.430 108.000 C 76.736 107.938,76.774 107.952,76.774 108.472 C 76.774 109.157,77.074 109.342,77.449 108.888 C 78.042 108.170,79.018 107.731,79.892 107.791 L 80.753 107.849 80.816 109.179 M89.619 108.071 C 94.247 110.005,94.223 117.322,89.582 119.372 C 88.240 119.965,85.695 120.017,84.409 119.478 C 79.810 117.551,79.969 109.793,84.643 108.080 C 85.790 107.660,88.622 107.655,89.619 108.071 M101.240 108.034 C 101.398 108.131,101.505 108.672,101.505 109.368 C 101.505 110.634,101.361 110.747,100.430 110.215 C 99.145 109.480,97.204 109.998,97.204 111.075 C 97.204 111.697,97.664 112.078,99.399 112.893 C 104.930 115.491,101.417 121.261,95.323 119.589 L 94.409 119.338 94.409 118.056 C 94.409 117.351,94.446 116.774,94.493 116.774 C 94.539 116.774,94.999 116.966,95.514 117.200 C 99.182 118.864,100.771 116.523,97.194 114.726 C 93.672 112.957,93.268 109.870,96.344 108.224 C 97.325 107.699,100.499 107.576,101.240 108.034 M111.596 107.952 C 116.479 109.352,116.558 117.447,111.709 119.483 C 107.566 121.221,103.388 118.430,103.370 113.911 C 103.352 109.332,107.054 106.650,111.596 107.952 M60.928 108.254 C 61.013 108.475,60.966 118.454,60.876 119.409 C 60.867 119.497,60.280 119.570,59.570 119.570 L 58.280 119.570 58.280 113.763 L 58.280 107.957 59.547 107.957 C 60.426 107.957,60.849 108.048,60.928 108.254 M85.914 110.185 C 82.404 111.806,83.607 117.900,87.373 117.571 C 89.176 117.413,90.108 116.100,90.107 113.717 C 90.106 110.912,88.064 109.192,85.914 110.185 M107.957 110.278 C 105.812 111.451,105.572 115.598,107.565 117.058 C 108.965 118.084,111.173 117.604,111.949 116.104 C 113.710 112.697,110.936 108.648,107.957 110.278 M14.630 112.527 C 14.636 112.761,14.632 124.575,14.626 125.000 C 14.625 125.089,11.720 125.161,8.172 125.161 L 1.720 125.161 1.720 118.853 C 1.720 115.384,1.785 112.480,1.864 112.401 C 2.152 112.114,14.623 112.236,14.630 112.527 M29.197 118.695 C 29.241 123.615,29.193 125.063,28.982 125.197 C 28.668 125.396,16.980 125.442,16.469 125.246 C 16.113 125.109,15.926 112.748,16.276 112.398 C 16.356 112.318,19.284 112.277,22.781 112.309 L 29.140 112.366 29.197 118.695 M265.646 150.592 C 265.950 150.693,265.841 223.501,265.536 223.694 C 264.955 224.064,134.257 223.904,133.886 223.533 C 133.416 223.063,133.363 151.184,133.833 150.714 C 134.081 150.466,264.904 150.344,265.646 150.592 M43.792 150.752 C 48.509 151.249,52.919 153.433,56.245 156.918 C 57.744 158.489,57.776 158.498,58.616 157.617 C 65.969 149.899,80.035 151.972,86.473 161.722 L 86.817 162.243 89.053 161.547 C 103.372 157.089,117.547 167.188,118.011 182.177 C 118.437 195.956,108.039 206.178,94.267 205.517 L 91.419 205.381 90.185 207.020 C 85.883 212.736,78.282 215.003,71.613 212.559 C 69.988 211.963,70.129 211.879,68.817 214.218 C 61.809 226.714,42.774 225.954,36.165 212.915 L 35.354 211.314 32.032 211.285 C 14.535 211.136,8.194 190.450,22.210 179.247 L 23.018 178.602 22.496 176.989 C 18.574 164.856,26.788 152.159,39.462 150.762 C 41.618 150.524,41.631 150.524,43.792 150.752 M354.516 152.556 C 356.572 153.113,359.538 154.687,361.267 156.139 L 362.857 157.474 364.063 157.205 C 365.886 156.798,369.321 155.557,371.334 154.578 C 373.341 153.601,373.487 153.615,373.116 154.738 C 372.468 156.702,369.944 159.852,367.411 161.857 C 366.942 162.228,366.623 162.598,366.701 162.680 C 366.932 162.922,370.372 162.193,372.922 161.363 C 374.224 160.940,375.343 160.647,375.409 160.713 C 375.771 161.075,371.001 166.246,368.709 167.977 C 367.331 169.017,367.376 168.878,367.347 172.151 C 367.224 185.886,360.529 200.192,350.011 209.198 C 335.398 221.708,313.845 224.277,296.237 215.606 C 291.548 213.297,291.578 213.349,294.946 213.336 C 302.446 213.306,308.978 211.366,315.011 207.376 C 317.062 206.019,317.113 205.760,315.377 205.541 C 309.032 204.742,302.848 199.903,301.184 194.435 L 301.029 193.924 302.826 194.070 C 305.716 194.304,309.048 193.677,307.721 193.148 C 307.437 193.035,306.460 192.652,305.550 192.298 C 299.776 190.046,295.425 184.240,294.905 178.095 C 294.778 176.584,294.794 176.498,295.181 176.619 C 295.407 176.689,296.434 177.046,297.463 177.413 C 299.323 178.074,302.151 178.519,302.150 178.149 C 302.150 178.044,301.508 177.382,300.722 176.680 C 295.280 171.813,293.531 164.185,296.266 157.236 C 296.575 156.450,296.904 155.723,296.996 155.622 C 297.089 155.520,298.553 156.828,300.249 158.528 C 308.911 167.209,320.829 172.812,331.398 173.171 L 333.011 173.226 332.903 172.043 C 331.725 159.081,342.555 149.317,354.516 152.556 M198.277 173.324 C 194.154 174.064,192.387 176.491,192.324 181.499 C 192.276 185.326,192.188 185.524,190.645 185.264 C 188.159 184.845,187.666 185.352,189.767 186.166 C 192.270 187.135,192.637 188.175,191.276 190.443 C 190.028 192.523,188.267 194.101,186.515 194.707 C 185.329 195.118,185.412 195.423,186.813 195.801 C 189.130 196.426,189.128 196.425,189.383 197.209 L 189.627 197.957 191.534 197.978 C 193.695 198.001,194.140 198.144,196.115 199.444 C 199.233 201.498,200.757 201.403,204.711 198.906 C 205.809 198.213,205.999 198.168,208.085 198.099 L 210.297 198.026 210.434 197.400 C 210.579 196.743,211.256 196.129,211.837 196.129 C 212.384 196.129,214.409 195.483,214.409 195.308 C 214.409 195.221,213.775 194.873,213.000 194.536 C 211.190 193.747,209.308 191.903,208.372 190.001 C 207.378 187.984,207.722 187.108,209.810 186.336 C 212.194 185.454,212.021 184.551,209.593 185.201 C 207.805 185.679,207.634 185.374,207.634 181.694 C 207.634 175.603,203.948 172.306,198.277 173.324 M74.086 176.112 C 72.615 176.471,71.926 177.147,71.381 178.763 C 71.072 179.681,70.900 179.905,70.462 179.959 C 69.311 180.101,69.057 181.554,70.161 181.681 C 70.881 181.764,70.899 181.272,69.999 186.181 C 68.987 191.702,68.828 192.043,67.270 192.043 C 66.594 192.043,66.397 192.142,66.195 192.586 C 65.849 193.345,66.203 193.631,67.488 193.631 C 70.019 193.631,70.743 192.473,71.751 186.813 C 72.155 184.544,72.533 182.470,72.591 182.204 C 72.678 181.803,72.840 181.720,73.537 181.720 C 75.237 181.720,75.697 180.162,74.032 180.041 C 72.143 179.905,73.230 177.634,75.184 177.634 C 75.931 177.634,76.625 176.736,76.191 176.332 C 75.904 176.065,74.764 175.946,74.086 176.112 M47.796 176.271 C 47.589 176.355,47.527 177.864,47.527 182.797 L 47.527 189.213 48.181 189.357 C 49.457 189.637,49.462 189.609,49.462 182.812 C 49.462 175.900,49.393 175.627,47.796 176.271 M31.935 180.010 C 28.748 181.048,29.332 184.716,32.804 185.465 C 33.783 185.676,34.839 186.392,34.839 186.845 C 34.839 187.965,32.692 188.351,31.067 187.523 C 30.137 187.048,29.677 187.281,29.677 188.225 C 29.677 189.377,33.809 190.001,35.308 189.075 C 37.775 187.550,36.951 185.005,33.619 183.858 C 30.269 182.706,31.648 180.725,35.084 181.755 C 36.033 182.039,36.042 182.035,36.243 181.235 C 36.484 180.273,33.625 179.460,31.935 180.010 M40.279 180.011 C 38.644 180.334,38.156 180.853,38.691 181.698 C 38.846 181.943,39.059 181.953,39.858 181.751 C 41.483 181.342,42.527 181.432,43.128 182.033 C 44.156 183.061,43.883 183.375,41.865 183.481 C 36.267 183.775,36.276 189.465,41.875 189.461 C 45.449 189.459,45.584 189.321,45.587 185.699 C 45.591 180.605,44.295 179.217,40.279 180.011 M54.624 179.986 C 50.540 180.799,49.837 187.327,53.647 189.058 C 55.267 189.794,58.925 189.492,58.925 188.622 C 58.925 187.802,58.452 187.510,57.534 187.766 C 55.407 188.357,53.202 187.338,53.375 185.843 L 53.441 185.269 56.344 185.161 L 59.247 185.054 59.318 184.194 C 59.549 181.393,57.369 179.439,54.624 179.986 M62.943 180.084 C 59.785 181.257,60.328 184.304,63.908 185.496 C 65.837 186.139,66.260 186.593,65.709 187.434 C 65.272 188.101,63.573 188.154,62.227 187.543 C 61.232 187.091,60.860 187.248,60.860 188.120 C 60.860 189.263,64.581 190.007,66.164 189.181 C 68.833 187.787,68.170 184.976,64.917 183.896 C 61.474 182.753,62.581 180.715,66.076 181.762 C 66.952 182.025,67.671 181.616,67.459 180.978 C 67.174 180.124,64.345 179.564,62.943 180.084 M79.032 179.926 C 78.796 179.976,78.382 180.064,78.113 180.121 C 76.032 180.566,74.763 183.810,75.586 186.580 C 76.639 190.128,81.616 190.611,83.280 187.327 C 85.122 183.689,82.540 179.190,79.032 179.926 M94.946 179.977 C 90.724 181.064,90.084 187.482,94.033 189.132 C 95.980 189.945,98.695 189.431,98.412 188.303 C 98.269 187.734,98.241 187.725,97.030 187.862 C 94.371 188.163,92.830 186.323,93.538 183.694 C 93.990 182.015,94.552 181.614,96.470 181.603 C 98.284 181.591,99.023 181.067,98.263 180.331 C 97.889 179.969,95.830 179.750,94.946 179.977 M102.688 179.981 C 99.006 180.904,97.992 186.694,101.146 188.783 C 102.700 189.812,106.841 189.662,107.052 188.569 C 107.174 187.935,106.532 187.534,105.754 187.757 C 103.885 188.293,102.107 187.774,101.592 186.542 C 101.044 185.231,101.145 185.180,104.453 185.114 L 107.419 185.054 107.399 183.717 C 107.358 181.053,105.210 179.350,102.688 179.981 M85.860 180.142 C 85.657 180.224,85.591 181.351,85.591 184.745 L 85.591 189.239 86.109 189.369 C 87.350 189.681,87.527 189.288,87.527 186.218 C 87.527 182.505,87.919 181.720,89.776 181.720 C 90.576 181.720,91.143 180.981,90.876 180.285 C 90.723 179.888,89.163 179.921,88.357 180.338 C 87.762 180.646,87.669 180.646,87.329 180.338 C 86.961 180.005,86.389 179.929,85.860 180.142 M56.891 182.033 C 57.182 182.324,57.419 182.807,57.419 183.109 L 57.419 183.656 55.376 183.656 C 53.451 183.656,53.333 183.630,53.333 183.209 C 53.333 181.766,55.806 180.948,56.891 182.033 M80.931 181.945 C 82.313 183.032,82.252 186.614,80.835 187.606 C 79.056 188.852,77.352 187.430,77.369 184.714 C 77.386 181.935,79.163 180.554,80.931 181.945 M104.750 181.781 C 105.173 182.106,105.591 182.871,105.591 183.319 C 105.591 183.601,105.259 183.656,103.548 183.656 C 101.221 183.656,100.998 183.432,102.062 182.167 C 102.670 181.444,104.053 181.246,104.750 181.781 M43.548 186.452 L 43.548 187.849 42.183 187.914 C 40.444 187.996,39.785 187.627,39.785 186.570 C 39.785 185.429,40.592 184.911,42.245 184.991 L 43.548 185.054 43.548 186.452 " stroke="none" fill="#fbfbfb" fill-rule="evenodd"></path><path id="path3" d="M312.171 28.829 C 305.271 29.985,301.749 38.634,305.783 44.516 C 309.790 50.358,318.649 50.353,322.552 44.508 C 327.606 36.939,321.231 27.312,312.171 28.829 M383.761 29.190 C 380.113 30.498,377.526 33.614,377.001 37.329 C 375.680 46.685,386.808 52.479,393.658 46.001 C 395.165 44.575,395.150 44.339,393.480 43.251 C 391.818 42.168,391.980 42.164,390.748 43.317 C 388.389 45.523,384.464 45.428,382.706 43.122 C 381.868 42.023,381.970 41.835,383.817 41.072 C 396.578 35.802,395.547 36.458,394.486 34.283 C 392.362 29.927,387.777 27.750,383.761 29.190 M315.831 33.006 C 320.881 34.506,321.299 42.184,316.453 44.441 C 311.597 46.702,306.647 41.075,309.099 36.081 C 310.432 33.366,313.037 32.176,315.831 33.006 M388.545 33.143 C 389.397 33.555,390.305 34.498,390.073 34.730 C 389.885 34.918,381.823 38.280,381.561 38.280 C 380.813 38.280,381.598 35.352,382.648 34.227 C 384.019 32.757,386.722 32.260,388.545 33.143 M1.686 98.060 C 1.646 98.179,1.640 101.085,1.673 104.518 L 1.733 110.759 8.232 110.702 L 14.731 110.645 14.731 104.301 L 14.731 97.957 8.245 97.900 C 4.024 97.863,1.733 97.919,1.686 98.060 M168.653 102.530 L 161.930 102.587 161.987 110.594 L 162.043 118.602 163.548 118.602 L 165.054 118.602 165.161 112.043 L 165.269 105.484 170.497 105.426 C 177.016 105.354,177.908 105.666,177.908 108.011 C 177.908 110.181,177.029 110.531,171.572 110.534 C 169.125 110.536,167.068 110.625,167.002 110.733 C 166.935 110.840,168.889 112.677,171.344 114.815 L 175.806 118.702 177.903 118.706 C 180.516 118.711,180.527 118.771,177.419 116.138 C 174.450 113.622,174.464 113.647,175.994 113.489 C 180.799 112.993,182.826 107.042,179.257 103.909 C 177.665 102.511,177.255 102.457,168.653 102.530 M191.416 102.957 C 190.750 103.579,181.745 117.602,181.562 118.303 C 181.464 118.677,181.595 118.710,183.185 118.710 L 184.914 118.710 188.748 112.593 C 190.856 109.229,192.696 106.428,192.837 106.368 C 193.059 106.274,196.504 111.518,196.902 112.557 C 197.021 112.867,196.644 112.903,193.262 112.903 C 188.949 112.903,188.947 112.904,189.905 114.467 C 190.833 115.981,190.568 115.907,195.074 115.911 C 199.559 115.914,199.228 115.802,200.313 117.688 L 200.901 118.710 202.588 118.710 C 203.516 118.710,204.323 118.633,204.381 118.540 C 204.532 118.295,195.154 103.664,194.393 102.957 C 193.921 102.518,193.537 102.366,192.903 102.366 C 192.269 102.366,191.887 102.518,191.416 102.957 M225.215 102.538 L 224.086 102.603 224.086 110.226 C 224.086 117.579,224.101 117.865,224.519 118.282 C 224.938 118.702,225.183 118.713,232.414 118.659 L 239.877 118.602 240.691 117.436 C 241.139 116.795,241.505 116.190,241.505 116.092 C 241.505 115.994,238.380 115.914,234.559 115.914 C 229.443 115.914,227.545 115.846,227.355 115.656 C 227.166 115.467,227.097 113.693,227.097 109.014 C 227.097 101.790,227.279 102.419,225.215 102.538 M262.587 102.635 C 260.461 103.732,261.941 106.748,264.184 105.888 C 264.601 105.728,265.161 104.707,265.161 104.109 C 265.161 103.027,263.582 102.123,262.587 102.635 M139.968 102.986 C 133.257 105.650,132.905 114.978,139.402 117.978 L 140.753 118.602 147.527 118.602 L 154.301 118.602 155.531 118.026 C 161.836 115.071,161.840 106.071,155.538 103.160 C 154.062 102.478,141.598 102.339,139.968 102.986 M208.134 103.093 C 202.002 105.615,201.269 113.983,206.869 117.519 C 208.529 118.566,209.553 118.710,215.385 118.710 L 220.799 118.710 221.582 117.530 C 222.013 116.881,222.366 116.252,222.366 116.132 C 222.366 115.990,220.453 115.914,216.892 115.914 C 210.866 115.914,209.699 115.764,208.402 114.825 C 205.198 112.504,205.578 107.851,209.125 105.952 C 209.944 105.514,210.338 105.480,215.300 105.417 L 220.601 105.349 221.376 104.094 C 221.802 103.403,222.151 102.780,222.151 102.710 C 222.151 102.255,209.318 102.606,208.134 103.093 M246.205 102.992 C 239.551 105.594,239.149 114.745,245.549 117.898 L 246.978 118.602 252.839 118.669 L 258.699 118.735 259.457 117.550 C 259.874 116.898,260.215 116.263,260.215 116.139 C 260.215 115.988,258.415 115.914,254.742 115.914 C 247.567 115.914,246.147 115.549,244.881 113.381 C 244.092 112.030,244.030 112.043,251.146 112.043 L 257.574 112.043 258.357 110.864 C 258.787 110.215,259.140 109.587,259.140 109.469 C 259.140 109.330,256.549 109.233,251.882 109.196 C 243.583 109.132,243.727 109.172,245.283 107.353 C 246.809 105.570,247.123 105.493,253.151 105.417 L 258.452 105.349 259.226 104.183 C 259.652 103.542,260.000 102.919,260.000 102.799 C 260.000 102.362,247.364 102.538,246.205 102.992 M264.731 104.194 C 264.731 104.758,264.200 105.305,263.987 104.960 C 263.912 104.838,263.914 104.396,263.993 103.977 C 264.155 103.115,264.731 103.285,264.731 104.194 M262.581 104.207 C 262.581 104.808,262.662 104.965,262.957 104.935 C 263.652 104.864,263.871 104.944,263.871 105.269 C 263.871 105.743,263.095 105.662,262.475 105.123 C 261.965 104.679,261.764 103.899,262.079 103.584 C 262.402 103.261,262.581 103.483,262.581 104.207 M154.321 105.955 C 158.626 108.259,157.819 114.671,153.097 115.683 C 151.692 115.985,143.347 115.982,141.937 115.679 C 136.668 114.549,136.510 107.218,141.719 105.571 C 143.075 105.142,153.390 105.456,154.321 105.955 M199.301 172.414 C 199.685 172.461,200.315 172.461,200.699 172.414 C 201.083 172.366,200.769 172.327,200.000 172.327 C 199.231 172.327,198.917 172.366,199.301 172.414 M193.427 174.892 L 192.796 175.591 193.495 174.960 C 193.879 174.612,194.194 174.298,194.194 174.261 C 194.194 174.095,194.016 174.241,193.427 174.892 M191.237 180.968 C 191.239 181.441,191.283 181.609,191.335 181.342 C 191.386 181.074,191.384 180.687,191.331 180.481 C 191.277 180.276,191.235 180.495,191.237 180.968 M208.412 183.159 C 208.398 183.773,208.461 184.322,208.552 184.378 C 208.643 184.434,208.686 184.077,208.648 183.584 C 208.537 182.137,208.439 181.961,208.412 183.159 M208.860 187.785 C 208.718 187.927,208.615 188.290,208.631 188.591 L 208.661 189.140 208.760 188.602 C 208.814 188.306,208.958 187.944,209.079 187.796 C 209.361 187.453,209.200 187.445,208.860 187.785 M188.817 192.151 C 188.295 192.683,187.916 193.118,187.975 193.118 C 188.034 193.118,188.510 192.683,189.032 192.151 C 189.555 191.618,189.934 191.183,189.874 191.183 C 189.815 191.183,189.340 191.618,188.817 192.151 M209.516 199.073 C 209.723 199.127,210.062 199.127,210.269 199.073 C 210.476 199.019,210.306 198.975,209.892 198.975 C 209.478 198.975,209.309 199.019,209.516 199.073 " stroke="none" fill="#e21f24" fill-rule="evenodd"></path><path id="path4" d="M7.527 23.747 C 4.961 24.515,3.426 25.693,2.597 27.527 C 1.655 29.613,1.957 29.979,4.787 30.187 L 6.671 30.325 7.188 29.156 C 8.628 25.900,12.903 26.760,12.903 30.306 L 12.903 31.780 12.204 31.904 C 11.820 31.972,10.973 32.086,10.323 32.157 C 3.487 32.900,0.260 36.430,1.712 41.575 C 2.852 45.615,8.221 46.718,12.263 43.743 L 13.560 42.788 14.718 43.975 C 16.194 45.486,16.456 45.476,18.298 43.840 C 20.005 42.322,20.026 42.241,19.086 40.777 L 18.387 39.689 18.262 33.769 C 18.124 27.191,18.025 26.628,16.809 25.411 C 15.148 23.750,10.376 22.895,7.527 23.747 M31.720 23.693 C 30.616 23.990,29.591 24.760,28.888 25.824 C 28.144 26.947,27.957 26.887,27.957 25.527 C 27.957 23.980,27.795 23.871,25.484 23.871 C 22.767 23.871,23.011 22.822,23.011 34.516 C 23.011 46.246,22.746 45.161,25.608 45.161 C 28.341 45.161,28.122 45.794,28.217 37.634 C 28.319 28.927,28.547 28.172,31.073 28.172 C 33.202 28.172,33.543 29.537,33.546 38.075 C 33.549 45.741,33.347 45.163,36.011 45.158 C 38.843 45.153,38.585 45.877,38.710 37.589 C 38.838 29.062,39.115 28.176,41.650 28.173 C 43.714 28.170,43.904 28.980,43.878 37.691 C 43.865 41.994,43.938 44.455,44.087 44.734 C 44.361 45.245,48.290 45.387,48.774 44.903 C 49.288 44.389,49.117 27.627,48.586 26.455 C 46.959 22.870,41.627 22.466,39.253 25.748 C 38.464 26.838,38.313 26.825,37.389 25.591 C 36.151 23.940,33.769 23.142,31.720 23.693 M58.451 23.845 C 55.912 24.680,54.683 25.721,53.751 27.827 C 52.911 29.727,53.152 29.938,56.472 30.215 L 57.999 30.342 58.370 29.371 C 59.400 26.672,63.275 26.412,64.048 28.989 C 64.758 31.359,64.504 31.762,62.107 32.071 C 55.238 32.956,52.844 34.867,52.849 39.462 C 52.855 45.088,58.900 47.522,63.519 43.760 C 64.899 42.635,64.992 42.615,65.386 43.352 C 66.461 45.361,67.694 45.504,69.578 43.838 C 71.384 42.242,71.349 42.320,70.714 41.333 C 69.712 39.777,69.677 39.553,69.677 34.546 C 69.677 26.808,69.046 25.113,65.737 23.973 C 64.048 23.390,60.048 23.320,58.451 23.845 M97.753 23.786 C 89.121 25.874,88.773 42.742,97.312 45.177 C 104.691 47.282,110.974 38.813,108.174 30.538 C 108.074 30.242,107.937 29.747,107.870 29.437 C 107.037 25.590,101.978 22.764,97.753 23.786 M120.561 23.694 C 119.758 23.919,118.309 25.171,117.312 26.503 C 116.675 27.353,116.559 27.237,116.559 25.742 C 116.559 23.971,116.433 23.871,114.194 23.871 C 111.602 23.871,111.828 22.856,111.828 34.516 C 111.828 46.215,111.581 45.161,114.318 45.161 C 116.919 45.161,116.722 45.727,116.822 37.957 L 116.907 31.290 117.609 30.055 C 118.669 28.188,119.995 27.633,121.265 28.523 C 122.298 29.246,122.366 29.794,122.366 37.397 C 122.366 45.800,122.151 45.161,124.976 45.161 C 128.026 45.161,127.743 46.015,127.733 36.820 C 127.723 28.076,127.606 27.224,126.156 25.324 C 125.052 23.876,122.535 23.143,120.561 23.694 M74.667 24.129 C 74.400 24.396,74.306 26.794,74.539 27.402 C 74.651 27.692,75.170 27.742,78.094 27.742 C 82.075 27.742,82.103 27.758,81.039 29.491 C 80.027 31.138,76.745 35.794,76.538 35.875 C 76.442 35.912,75.803 36.832,75.118 37.918 L 73.871 39.892 73.871 42.150 L 73.871 44.409 74.409 44.382 C 74.704 44.368,75.527 44.140,76.237 43.876 C 79.439 42.685,83.313 42.682,86.559 43.867 C 88.851 44.704,88.914 44.676,88.989 42.798 C 89.107 39.841,87.844 38.972,82.834 38.560 C 81.288 38.433,81.262 38.421,81.394 37.896 C 81.521 37.389,85.548 31.468,86.544 30.323 C 88.438 28.145,89.441 24.454,88.262 24.002 C 87.574 23.737,74.940 23.856,74.667 24.129 M101.190 27.569 C 103.703 28.714,103.752 39.759,101.251 41.284 C 98.289 43.090,96.563 39.892,96.844 33.118 C 97.046 28.254,98.531 26.358,101.190 27.569 M12.903 36.480 C 12.903 40.498,10.247 43.077,8.031 41.212 C 5.337 38.945,7.607 34.847,11.559 34.841 L 12.903 34.839 12.903 36.480 M64.265 36.022 C 64.572 40.611,60.381 43.870,58.601 40.428 C 57.197 37.712,59.409 34.798,62.796 34.903 L 64.194 34.946 64.265 36.022 M196.954 172.874 C 193.073 174.153,191.556 176.480,191.437 181.344 C 191.349 184.892,191.369 184.858,189.703 184.278 C 188.221 183.761,186.929 185.086,187.932 186.095 C 188.185 186.350,188.997 186.802,189.734 187.098 C 190.963 187.592,191.081 187.696,191.143 188.345 C 191.323 190.215,188.309 193.429,185.643 194.210 C 183.429 194.858,184.084 196.012,187.097 196.769 C 188.447 197.108,188.504 197.151,188.778 198.005 C 189.124 199.083,189.331 199.174,190.866 198.924 C 192.268 198.696,193.671 198.907,194.582 199.485 C 197.629 201.416,198.310 201.700,199.892 201.704 C 201.316 201.707,202.821 201.160,204.459 200.042 C 206.004 198.989,207.099 198.721,209.235 198.874 C 210.728 198.981,210.737 198.978,210.982 198.362 C 211.118 198.021,211.297 197.604,211.381 197.435 C 211.464 197.266,212.218 196.944,213.056 196.719 C 215.774 195.990,216.260 194.964,214.237 194.227 C 211.900 193.375,210.072 191.745,208.937 189.502 C 208.322 188.285,208.523 187.944,210.416 186.989 C 212.444 185.967,212.772 185.441,211.917 184.586 C 211.445 184.113,211.254 184.057,210.576 184.193 C 210.141 184.281,209.495 184.365,209.140 184.380 L 208.495 184.409 208.474 181.505 C 208.442 176.871,207.263 174.811,203.702 173.164 C 202.052 172.402,198.810 172.263,196.954 172.874 M203.269 173.538 C 206.539 174.775,207.831 177.002,207.891 181.505 C 207.914 183.220,207.938 184.686,207.945 184.762 C 207.973 185.082,209.013 185.125,209.946 184.844 C 210.870 184.566,210.991 184.574,211.444 184.944 C 212.076 185.460,211.886 185.663,209.831 186.664 C 208.361 187.380,208.276 187.461,208.214 188.209 C 208.041 190.287,211.059 193.739,213.814 194.615 C 215.374 195.111,214.977 195.687,212.714 196.212 C 211.171 196.569,210.958 196.720,210.625 197.698 L 210.390 198.387 208.475 198.316 C 206.387 198.239,205.848 198.427,203.058 200.208 C 200.723 201.698,198.666 201.420,195.072 199.129 C 193.951 198.414,193.829 198.386,191.751 198.370 C 189.467 198.351,189.548 198.388,189.063 197.156 C 188.914 196.779,188.619 196.525,188.233 196.443 C 184.999 195.751,184.467 195.150,186.449 194.427 C 188.119 193.818,190.200 191.919,191.149 190.138 C 192.237 188.097,191.968 187.284,189.959 186.548 C 187.426 185.620,187.714 184.198,190.285 184.935 C 191.890 185.396,191.995 185.187,192.080 181.357 C 192.165 177.507,192.249 177.240,193.943 175.429 C 196.192 173.025,199.919 172.269,203.269 173.538 " stroke="none" fill="#070707" fill-rule="evenodd"></path></g></svg>