<svg id="svg" version="1.1" xmlns="http://www.w3.org/2000/svg" xmlns:xlink="http://www.w3.org/1999/xlink" width="400" height="400" viewBox="0, 0, 400,400"><g id="svgg"><path id="path0" d="M322.800 88.213 C 322.800 88.857,323.865 89.469,324.274 89.059 C 324.559 88.774,323.655 87.600,323.151 87.600 C 322.958 87.600,322.800 87.876,322.800 88.213 M336.800 92.213 C 336.800 92.857,337.865 93.469,338.274 93.059 C 338.559 92.774,337.655 91.600,337.151 91.600 C 336.958 91.600,336.800 91.876,336.800 92.213 M366.806 113.438 C 366.798 114.041,368.343 115.390,368.669 115.064 C 368.814 114.919,368.723 114.800,368.467 114.800 C 368.210 114.800,368.045 114.665,368.100 114.500 C 368.155 114.335,368.040 114.170,367.845 114.134 C 367.649 114.098,367.337 113.828,367.151 113.534 C 366.962 113.236,366.810 113.194,366.806 113.438 M192.938 139.417 C 192.808 139.757,192.809 140.142,192.941 140.274 C 193.226 140.559,194.400 139.655,194.400 139.151 C 194.400 138.547,193.187 138.768,192.938 139.417 M42.681 146.213 C 42.056 147.071,41.653 147.200,39.581 147.200 C 37.308 147.200,37.200 147.245,37.200 148.200 C 37.200 149.133,37.067 149.200,35.200 149.200 C 33.333 149.200,33.200 149.267,33.200 150.200 C 33.200 151.005,33.001 151.200,32.182 151.200 C 31.622 151.200,30.714 151.650,30.164 152.200 C 29.614 152.750,28.722 153.200,28.182 153.200 C 27.429 153.200,27.200 153.411,27.200 154.105 C 27.200 154.660,26.852 155.163,26.300 155.405 C 25.605 155.710,25.372 156.187,25.277 157.500 C 25.168 159.002,25.040 159.200,24.177 159.200 C 23.402 159.200,23.200 159.406,23.200 160.200 C 23.200 161.000,23.000 161.200,22.200 161.200 C 21.267 161.200,21.200 161.333,21.200 163.200 C 21.200 164.300,21.033 165.200,20.829 165.200 C 19.310 165.200,19.200 166.109,19.200 178.647 L 19.200 190.836 20.182 191.819 C 21.015 192.651,21.183 193.244,21.282 195.701 C 21.390 198.343,21.478 198.611,22.282 198.726 C 23.077 198.839,23.176 199.115,23.282 201.526 C 23.385 203.857,23.516 204.251,24.300 204.595 C 25.052 204.925,25.200 205.303,25.200 206.895 C 25.200 208.660,25.273 208.800,26.200 208.800 C 27.146 208.800,27.200 208.919,27.200 211.019 C 27.200 212.856,27.368 213.394,28.173 214.140 C 28.864 214.780,29.183 215.558,29.273 216.821 C 29.380 218.315,29.544 218.620,30.300 218.728 C 31.094 218.841,31.200 219.087,31.200 220.828 C 31.200 222.665,31.269 222.800,32.200 222.800 C 33.133 222.800,33.200 222.933,33.200 224.800 C 33.200 226.667,33.267 226.800,34.200 226.800 C 35.133 226.800,35.200 226.933,35.200 228.800 C 35.200 230.667,35.267 230.800,36.200 230.800 C 37.044 230.800,37.200 230.987,37.200 232.000 C 37.200 233.013,37.356 233.200,38.200 233.200 C 38.750 233.200,39.200 233.384,39.200 233.610 C 39.200 233.835,39.626 234.182,40.147 234.380 C 42.260 235.183,45.174 242.530,45.193 247.100 C 45.199 248.635,45.295 248.800,46.178 248.800 C 47.061 248.800,47.168 248.985,47.278 250.700 C 47.381 252.304,47.536 252.619,48.275 252.725 C 48.821 252.802,49.198 253.179,49.275 253.725 C 49.464 255.046,52.540 255.024,52.728 253.700 C 52.820 253.049,53.124 252.800,53.828 252.800 C 54.728 252.800,54.800 252.651,54.800 250.800 C 54.800 248.933,54.867 248.800,55.800 248.800 C 56.733 248.800,56.800 248.667,56.800 246.800 C 56.800 244.933,56.867 244.800,57.800 244.800 C 58.554 244.800,58.800 244.590,58.800 243.946 C 58.800 243.476,59.250 242.675,59.800 242.165 C 60.435 241.576,60.800 240.804,60.800 240.047 C 60.800 239.116,60.997 238.828,61.700 238.728 C 62.468 238.619,62.618 238.321,62.722 236.700 C 62.832 234.985,62.939 234.800,63.822 234.800 C 64.729 234.800,64.800 234.655,64.800 232.800 C 64.800 230.933,64.867 230.800,65.800 230.800 C 66.733 230.800,66.800 230.667,66.800 228.800 C 66.800 226.933,66.867 226.800,67.800 226.800 C 68.733 226.800,68.800 226.667,68.800 224.800 C 68.800 222.933,68.867 222.800,69.800 222.800 C 70.733 222.800,70.800 222.667,70.800 220.800 C 70.800 218.933,70.867 218.800,71.800 218.800 C 72.731 218.800,72.800 218.665,72.800 216.828 C 72.800 215.087,72.906 214.841,73.700 214.728 C 74.526 214.611,74.610 214.361,74.718 211.700 C 74.830 208.919,74.875 208.800,75.818 208.800 C 76.728 208.800,76.800 208.655,76.800 206.828 C 76.800 205.087,76.906 204.841,77.700 204.728 C 78.658 204.592,78.954 200.753,78.327 196.600 C 78.172 195.574,78.287 194.611,78.645 193.916 C 78.953 193.319,79.467 191.583,79.788 190.057 C 80.109 188.532,80.921 186.351,81.593 185.211 L 82.815 183.139 82.708 174.270 C 82.600 165.413,82.599 165.400,81.700 165.272 C 80.906 165.159,80.800 164.913,80.800 163.172 C 80.800 161.335,80.731 161.200,79.800 161.200 C 78.995 161.200,78.800 161.001,78.800 160.182 C 78.800 159.622,78.363 158.727,77.829 158.193 C 77.295 157.659,76.800 156.812,76.729 156.311 C 76.646 155.722,76.282 155.355,75.700 155.272 C 75.049 155.180,74.800 154.876,74.800 154.172 C 74.800 153.446,74.584 153.200,73.946 153.200 C 73.476 153.200,72.675 152.750,72.165 152.200 C 71.567 151.555,70.806 151.200,70.019 151.200 C 68.985 151.200,68.800 151.048,68.800 150.200 C 68.800 149.328,68.625 149.200,67.429 149.200 C 66.443 149.200,65.837 148.919,65.271 148.200 C 64.653 147.414,64.122 147.200,62.788 147.200 C 61.492 147.200,60.873 146.964,60.165 146.200 L 59.238 145.200 51.319 145.213 L 43.400 145.225 42.681 146.213 M156.938 153.417 C 156.808 153.757,156.809 154.142,156.941 154.274 C 157.226 154.559,158.400 153.655,158.400 153.151 C 158.400 152.547,157.187 152.768,156.938 153.417 M300.800 161.533 C 300.800 161.790,300.665 161.955,300.500 161.900 C 300.335 161.845,300.170 161.960,300.134 162.155 C 300.098 162.351,299.828 162.663,299.534 162.849 C 299.236 163.038,299.194 163.190,299.438 163.194 C 300.041 163.202,301.390 161.657,301.064 161.331 C 300.919 161.186,300.800 161.277,300.800 161.533 M116.938 173.417 C 116.808 173.757,116.809 174.142,116.941 174.274 C 117.226 174.559,118.400 173.655,118.400 173.151 C 118.400 172.547,117.187 172.768,116.938 173.417 M106.938 179.417 C 106.808 179.757,106.809 180.142,106.941 180.274 C 107.226 180.559,108.400 179.655,108.400 179.151 C 108.400 178.547,107.187 178.768,106.938 179.417 M88.938 191.417 C 88.808 191.757,88.809 192.142,88.941 192.274 C 89.226 192.559,90.400 191.655,90.400 191.151 C 90.400 190.547,89.187 190.768,88.938 191.417 M80.938 197.417 C 80.808 197.757,80.809 198.142,80.941 198.274 C 81.226 198.559,82.400 197.655,82.400 197.151 C 82.400 196.547,81.187 196.768,80.938 197.417 M275.845 207.388 C 275.480 207.944,275.359 208.400,275.577 208.400 C 276.020 208.400,276.964 206.830,276.687 206.553 C 276.589 206.455,276.210 206.831,275.845 207.388 M262.800 209.533 C 262.800 209.790,262.665 209.955,262.500 209.900 C 262.335 209.845,262.170 209.960,262.134 210.155 C 262.098 210.351,261.828 210.663,261.534 210.849 C 261.236 211.038,261.194 211.190,261.438 211.194 C 262.041 211.202,263.390 209.657,263.064 209.331 C 262.919 209.186,262.800 209.277,262.800 209.533 M178.800 212.213 C 178.800 212.857,179.865 213.469,180.274 213.059 C 180.559 212.774,179.655 211.600,179.151 211.600 C 178.958 211.600,178.800 211.876,178.800 212.213 M203.200 217.700 C 203.200 218.059,203.392 218.471,203.627 218.616 C 204.313 219.040,204.380 218.661,203.767 217.823 C 203.293 217.174,203.200 217.154,203.200 217.700 M169.200 221.700 C 169.200 222.059,169.392 222.471,169.627 222.616 C 170.313 223.040,170.380 222.661,169.767 221.823 C 169.293 221.174,169.200 221.154,169.200 221.700 M219.500 225.633 C 219.115 226.055,218.800 226.496,218.800 226.614 C 218.800 227.048,220.314 226.002,220.540 225.411 C 220.856 224.588,220.357 224.695,219.500 225.633 M159.714 227.842 C 159.227 228.369,158.989 228.800,159.186 228.800 C 159.656 228.800,160.800 227.645,160.800 227.171 C 160.800 226.688,160.758 226.713,159.714 227.842 M313.534 229.151 C 313.828 229.337,314.098 229.649,314.134 229.845 C 314.170 230.040,314.335 230.155,314.500 230.100 C 314.665 230.045,314.800 230.210,314.800 230.467 C 314.800 230.723,314.919 230.814,315.064 230.669 C 315.390 230.343,314.041 228.798,313.438 228.806 C 313.194 228.810,313.236 228.962,313.534 229.151 M286.080 230.080 C 285.375 230.785,285.493 231.200,286.400 231.200 C 286.933 231.200,287.200 230.933,287.200 230.400 C 287.200 229.493,286.785 229.375,286.080 230.080 M307.500 231.633 C 307.115 232.055,306.800 232.496,306.800 232.614 C 306.800 233.048,308.314 232.002,308.540 231.411 C 308.856 230.588,308.357 230.695,307.500 231.633 M295.200 241.649 C 295.200 242.358,295.299 242.416,295.800 242.000 C 296.130 241.726,296.400 241.344,296.400 241.151 C 296.400 240.958,296.130 240.800,295.800 240.800 C 295.455 240.800,295.200 241.161,295.200 241.649 M287.200 247.649 C 287.200 248.358,287.299 248.416,287.800 248.000 C 288.130 247.726,288.400 247.344,288.400 247.151 C 288.400 246.958,288.130 246.800,287.800 246.800 C 287.455 246.800,287.200 247.161,287.200 247.649 M220.800 259.533 C 220.800 259.790,220.665 259.955,220.500 259.900 C 220.335 259.845,220.170 259.960,220.134 260.155 C 220.098 260.351,219.828 260.663,219.534 260.849 C 219.236 261.038,219.194 261.190,219.438 261.194 C 220.041 261.202,221.390 259.657,221.064 259.331 C 220.919 259.186,220.800 259.277,220.800 259.533 M269.784 260.027 C 269.639 260.261,269.616 260.549,269.733 260.667 C 270.020 260.953,270.800 260.448,270.800 259.976 C 270.800 259.465,270.109 259.499,269.784 260.027 M263.200 263.649 C 263.200 264.358,263.299 264.416,263.800 264.000 C 264.130 263.726,264.400 263.344,264.400 263.151 C 264.400 262.958,264.130 262.800,263.800 262.800 C 263.455 262.800,263.200 263.161,263.200 263.649 M27.681 267.271 C 28.436 268.408,29.322 268.724,29.138 267.791 C 29.062 267.406,28.571 266.932,28.047 266.738 C 27.134 266.401,27.119 266.424,27.681 267.271 M249.500 271.633 C 249.115 272.055,248.800 272.496,248.800 272.614 C 248.800 273.048,250.314 272.002,250.540 271.411 C 250.856 270.588,250.357 270.695,249.500 271.633 M130.800 281.533 C 130.800 281.790,130.665 281.955,130.500 281.900 C 130.335 281.845,130.170 281.960,130.134 282.155 C 130.098 282.351,129.828 282.663,129.534 282.849 C 129.236 283.038,129.194 283.190,129.438 283.194 C 130.041 283.202,131.390 281.657,131.064 281.331 C 130.919 281.186,130.800 281.277,130.800 281.533 M206.938 291.417 C 206.808 291.757,206.809 292.142,206.941 292.274 C 207.226 292.559,208.400 291.655,208.400 291.151 C 208.400 290.547,207.187 290.768,206.938 291.417 " stroke="none" fill="#cb1415" fill-rule="evenodd"></path><path id="path1" d="M359.445 172.000 C 359.598 176.829,359.843 179.360,360.233 180.161 C 360.545 180.800,360.800 181.668,360.800 182.089 C 360.800 183.235,362.560 182.880,362.728 181.700 C 362.832 180.967,362.665 180.800,361.828 180.800 C 361.029 180.800,360.800 180.599,360.798 179.900 C 360.794 177.522,359.909 167.660,359.587 166.412 C 359.352 165.496,359.302 167.459,359.445 172.000 M305.272 217.573 C 305.391 218.756,305.099 219.200,304.200 219.200 C 303.400 219.200,303.200 219.400,303.200 220.200 C 303.200 221.133,303.067 221.200,301.200 221.200 C 299.333 221.200,299.200 221.267,299.200 222.200 C 299.200 222.950,298.989 223.200,298.358 223.200 C 297.894 223.200,297.161 223.650,296.729 224.200 C 296.163 224.919,295.557 225.200,294.571 225.200 C 293.383 225.200,293.200 225.331,293.200 226.178 C 293.200 227.061,293.015 227.168,291.300 227.278 C 289.679 227.382,289.381 227.532,289.272 228.300 C 289.180 228.951,288.876 229.200,288.172 229.200 C 287.402 229.200,287.200 229.408,287.200 230.200 C 287.200 231.133,287.067 231.200,285.200 231.200 C 283.333 231.200,283.200 231.267,283.200 232.200 C 283.200 233.133,283.067 233.200,281.200 233.200 C 279.333 233.200,279.200 233.267,279.200 234.200 C 279.200 235.133,279.067 235.200,277.200 235.200 C 275.333 235.200,275.200 235.267,275.200 236.200 C 275.200 237.133,275.067 237.200,273.200 237.200 C 271.333 237.200,271.200 237.267,271.200 238.200 C 271.200 239.141,269.633 239.584,267.500 239.247 C 267.335 239.221,267.221 239.335,267.247 239.500 C 267.475 240.943,267.166 241.200,265.200 241.200 C 263.345 241.200,263.200 241.271,263.200 242.178 C 263.200 243.061,263.015 243.168,261.300 243.278 C 259.679 243.382,259.381 243.532,259.272 244.300 C 259.159 245.094,258.913 245.200,257.172 245.200 C 255.335 245.200,255.200 245.269,255.200 246.200 C 255.200 247.133,255.067 247.200,253.200 247.200 C 251.333 247.200,251.200 247.267,251.200 248.200 C 251.200 249.168,249.964 249.447,246.400 249.286 C 246.097 249.272,245.181 250.342,245.197 250.692 C 245.204 250.861,244.308 251.054,243.205 251.121 C 241.377 251.231,241.200 251.328,241.200 252.221 C 241.200 253.141,241.067 253.200,239.000 253.200 C 237.718 253.200,236.800 253.377,236.800 253.624 C 236.800 253.857,236.632 253.944,236.428 253.817 C 236.223 253.691,235.925 253.798,235.766 254.055 C 235.574 254.366,235.666 254.425,236.038 254.232 C 236.347 254.072,236.251 254.224,235.824 254.570 C 235.357 254.948,234.278 255.200,233.124 255.200 C 231.338 255.200,231.200 255.272,231.200 256.200 C 231.200 257.150,231.080 257.203,228.800 257.250 C 225.493 257.319,225.406 257.335,225.350 257.900 C 225.322 258.175,225.278 258.580,225.250 258.800 C 225.222 259.020,224.371 259.200,223.358 259.200 C 221.869 259.200,221.364 259.392,220.729 260.200 C 220.048 261.066,219.624 261.200,217.571 261.200 C 215.309 261.200,215.200 261.246,215.200 262.200 C 215.200 263.178,215.133 263.200,212.200 263.200 C 209.267 263.200,209.200 263.222,209.200 264.200 C 209.200 265.178,209.133 265.200,206.200 265.200 C 203.267 265.200,203.200 265.222,203.200 266.200 C 203.200 267.127,199.404 267.726,196.658 267.233 C 196.057 267.126,195.156 268.109,195.363 268.648 C 195.514 269.040,194.809 269.195,192.481 269.284 C 189.632 269.391,189.390 269.468,189.272 270.300 C 189.157 271.113,184.354 271.698,181.500 271.247 C 181.335 271.221,181.221 271.335,181.247 271.500 C 181.503 273.117,181.305 273.200,177.200 273.200 L 173.200 273.200 173.200 274.200 C 173.200 275.197,173.189 275.200,169.358 275.200 C 165.735 275.200,165.470 275.257,164.729 276.200 C 163.975 277.158,163.757 277.200,159.571 277.200 L 155.200 277.200 155.200 278.200 L 155.200 279.200 150.000 279.200 C 147.140 279.200,144.706 279.196,144.592 279.192 C 144.192 279.175,143.277 280.204,143.338 280.600 C 143.376 280.847,141.129 281.042,137.449 281.111 C 131.670 281.219,131.476 281.250,130.726 282.203 C 129.957 283.181,129.929 283.184,121.677 283.292 C 113.435 283.400,113.399 283.404,113.272 284.300 L 113.144 285.200 95.972 285.200 C 79.390 285.200,78.800 285.174,78.800 284.443 C 78.800 283.361,78.072 283.200,73.167 283.200 L 68.800 283.200 68.800 282.200 C 68.800 281.222,68.733 281.200,65.800 281.200 C 62.867 281.200,62.800 281.178,62.800 280.200 C 62.800 279.267,62.667 279.200,60.800 279.200 C 58.933 279.200,58.800 279.133,58.800 278.200 C 58.800 277.267,58.667 277.200,56.800 277.200 C 54.933 277.200,54.800 277.133,54.800 276.200 C 54.800 275.400,54.600 275.200,53.800 275.200 C 53.000 275.200,52.800 275.000,52.800 274.200 C 52.800 273.446,52.590 273.200,51.946 273.200 C 51.476 273.200,50.675 272.750,50.165 272.200 C 49.655 271.650,49.039 271.200,48.795 271.200 C 48.552 271.200,48.437 271.063,48.541 270.896 C 48.791 270.491,47.766 269.112,47.336 269.273 C 47.151 269.343,46.943 268.905,46.873 268.300 C 46.774 267.436,46.538 267.200,45.773 267.200 C 44.872 267.200,44.800 267.052,44.800 265.200 C 44.800 263.333,44.733 263.200,43.800 263.200 L 42.800 263.200 42.800 256.000 L 42.800 248.800 43.848 248.800 L 44.895 248.800 44.731 245.044 C 44.541 240.701,42.344 235.520,40.249 234.478 C 39.672 234.191,39.200 233.774,39.200 233.550 C 39.200 232.701,37.400 233.401,37.272 234.300 C 37.180 234.951,36.876 235.200,36.172 235.200 C 35.402 235.200,35.200 235.408,35.200 236.200 C 35.200 236.750,35.033 237.200,34.829 237.200 C 34.028 237.200,33.200 238.523,33.200 239.801 C 33.200 240.890,33.029 241.169,32.300 241.272 C 31.503 241.385,31.386 241.663,31.280 243.686 C 31.183 245.556,30.982 246.113,30.180 246.744 C 29.261 247.467,29.200 247.756,29.200 251.358 C 29.200 253.619,29.035 255.221,28.800 255.250 C 28.580 255.278,28.175 255.322,27.900 255.350 C 26.838 255.456,27.228 266.576,28.300 266.728 C 29.178 266.853,29.200 266.976,29.200 271.828 L 29.200 276.800 30.200 276.800 C 31.133 276.800,31.200 276.933,31.200 278.800 C 31.200 280.667,31.267 280.800,32.200 280.800 C 33.133 280.800,33.200 280.933,33.200 282.800 C 33.200 284.667,33.267 284.800,34.200 284.800 C 35.072 284.800,35.200 284.976,35.200 286.167 C 35.200 288.052,35.553 288.800,36.443 288.800 C 36.984 288.800,37.200 289.086,37.200 289.800 C 37.200 290.600,37.400 290.800,38.200 290.800 C 39.000 290.800,39.200 291.000,39.200 291.800 C 39.200 292.600,39.400 292.800,40.200 292.800 C 41.000 292.800,41.200 293.000,41.200 293.800 C 41.200 294.600,41.400 294.800,42.200 294.800 C 43.000 294.800,43.200 295.000,43.200 295.800 C 43.200 296.600,43.400 296.800,44.200 296.800 C 44.993 296.800,45.200 297.002,45.200 297.773 C 45.200 298.515,45.441 298.777,46.212 298.873 C 46.769 298.943,47.203 299.164,47.177 299.364 C 47.090 300.021,48.494 300.665,50.200 300.750 C 50.987 300.789,51.200 301.013,51.200 301.800 C 51.200 302.672,51.375 302.800,52.571 302.800 C 53.557 302.800,54.163 303.081,54.729 303.800 C 55.161 304.350,55.849 304.803,56.258 304.806 C 57.111 304.813,58.038 305.326,58.134 305.845 C 58.170 306.040,58.335 306.155,58.500 306.100 C 58.665 306.045,58.800 306.180,58.800 306.400 C 58.800 306.620,59.790 306.800,61.000 306.800 C 63.080 306.800,63.200 306.855,63.200 307.800 C 63.200 308.733,63.333 308.800,65.200 308.800 C 66.300 308.800,67.223 308.980,67.250 309.200 C 67.278 309.420,67.323 309.825,67.350 310.100 C 67.404 310.639,67.666 310.674,72.200 310.750 C 75.120 310.799,75.200 310.827,75.200 311.800 L 75.200 312.800 81.200 312.800 L 87.200 312.800 87.200 313.800 L 87.200 314.800 107.000 314.800 L 126.800 314.800 126.800 313.809 L 126.800 312.819 133.700 312.709 C 140.513 312.601,140.602 312.589,140.728 311.700 C 140.853 310.822,140.976 310.800,145.828 310.800 L 150.800 310.800 150.800 309.800 L 150.800 308.800 154.800 308.800 C 158.784 308.800,158.800 308.796,158.800 307.814 C 158.800 306.842,158.853 306.827,162.700 306.714 C 166.400 306.606,166.607 306.554,166.728 305.700 C 166.847 304.864,167.056 304.800,169.670 304.800 C 172.196 304.800,172.566 304.697,173.271 303.800 C 173.944 302.945,174.387 302.799,176.329 302.795 C 179.289 302.787,180.282 302.496,180.526 301.563 C 180.690 300.935,181.122 300.791,182.963 300.750 C 186.177 300.678,186.600 300.529,186.600 299.467 C 186.600 299.187,187.403 298.958,188.600 298.895 C 191.538 298.742,192.318 298.489,192.600 297.599 C 192.809 296.943,193.206 296.800,194.827 296.800 C 196.665 296.800,196.800 296.732,196.800 295.800 C 196.800 294.822,196.867 294.800,199.800 294.800 C 202.733 294.800,202.800 294.778,202.800 293.800 C 202.800 292.867,202.933 292.800,204.800 292.800 C 206.657 292.800,206.800 292.730,206.800 291.818 C 206.800 290.875,206.919 290.830,209.700 290.718 C 212.361 290.610,212.611 290.526,212.728 289.700 C 212.841 288.906,213.087 288.800,214.828 288.800 C 216.665 288.800,216.800 288.731,216.800 287.800 C 216.800 286.854,216.919 286.800,219.019 286.800 C 220.873 286.800,221.391 286.635,222.167 285.798 C 222.842 285.069,223.572 284.770,224.848 284.698 C 226.301 284.617,226.600 284.463,226.600 283.800 C 226.600 283.133,226.933 282.967,228.600 282.800 C 230.281 282.632,230.620 282.460,230.725 281.721 C 230.831 280.979,231.144 280.823,232.725 280.721 C 234.307 280.619,234.620 280.462,234.725 279.721 C 234.831 278.979,235.144 278.823,236.725 278.721 C 238.307 278.619,238.620 278.462,238.725 277.721 C 238.831 276.979,239.144 276.823,240.725 276.721 C 242.321 276.618,242.619 276.466,242.728 275.700 C 242.822 275.036,243.137 274.789,243.928 274.757 C 246.493 274.656,246.600 274.613,246.568 273.700 C 246.544 273.002,246.757 272.800,247.522 272.800 C 248.065 272.800,248.925 272.350,249.435 271.800 C 250.033 271.155,250.794 270.800,251.581 270.800 C 252.615 270.800,252.800 270.648,252.800 269.800 C 252.800 268.867,252.934 268.800,254.792 268.800 C 256.573 268.800,256.811 268.696,257.030 267.821 C 257.235 267.008,257.557 266.822,258.938 266.721 C 260.312 266.621,260.622 266.444,260.728 265.700 C 260.827 265.000,261.117 264.800,262.028 264.800 C 263.011 264.800,263.200 264.639,263.200 263.800 C 263.200 262.882,263.347 262.800,264.992 262.800 C 266.571 262.800,266.815 262.681,267.036 261.800 C 267.216 261.082,267.557 260.800,268.243 260.800 C 269.114 260.800,271.202 259.271,270.500 259.147 C 270.335 259.118,270.830 258.983,271.600 258.847 C 272.641 258.663,273.032 258.375,273.125 257.722 C 273.227 257.001,273.551 256.822,274.925 256.722 C 276.298 256.622,276.622 256.442,276.725 255.724 C 276.812 255.111,277.172 254.811,277.925 254.724 C 278.687 254.636,279.037 254.338,279.128 253.700 C 279.218 253.066,279.543 252.785,280.228 252.750 C 280.763 252.722,281.365 252.678,281.567 252.650 C 282.098 252.577,282.600 252.005,282.600 251.471 C 282.600 251.216,283.140 250.915,283.800 250.801 C 284.659 250.653,285.036 250.340,285.128 249.697 C 285.220 249.049,285.525 248.800,286.228 248.800 C 286.998 248.800,287.200 248.592,287.200 247.800 C 287.200 246.884,287.349 246.800,288.972 246.800 C 290.495 246.800,290.762 246.676,290.872 245.916 C 290.953 245.358,291.368 244.947,292.000 244.800 C 292.632 244.653,293.047 244.242,293.128 243.684 C 293.220 243.050,293.530 242.800,294.228 242.800 C 294.992 242.800,295.200 242.591,295.200 241.823 C 295.200 240.960,295.398 240.832,296.900 240.723 C 298.313 240.621,298.622 240.448,298.728 239.700 C 298.820 239.051,299.124 238.800,299.820 238.800 C 300.509 238.800,300.855 238.521,301.030 237.823 C 301.179 237.228,301.613 236.798,302.138 236.723 C 302.679 236.646,303.048 236.265,303.128 235.700 C 303.210 235.122,303.532 234.800,304.028 234.800 C 304.585 234.800,304.800 234.521,304.800 233.800 C 304.800 233.046,305.010 232.800,305.654 232.800 C 306.124 232.800,306.911 232.366,307.403 231.835 C 307.895 231.303,308.726 230.808,309.249 230.735 C 309.772 230.661,310.378 230.195,310.595 229.700 C 310.827 229.172,311.342 228.800,311.843 228.800 C 313.009 228.800,313.851 223.263,312.848 222.180 C 312.655 221.971,312.285 221.137,312.026 220.326 C 311.405 218.383,309.351 217.135,306.975 217.258 C 306.026 217.307,305.259 217.449,305.272 217.573 " stroke="none" fill="#74d34c" fill-rule="evenodd"></path><path id="path2" d="M321.200 146.188 C 321.200 147.181,321.143 147.200,318.200 147.200 C 315.267 147.200,315.200 147.222,315.200 148.200 C 315.200 149.133,315.067 149.200,313.200 149.200 C 311.333 149.200,311.200 149.267,311.200 150.200 C 311.200 151.000,311.000 151.200,310.200 151.200 C 309.400 151.200,309.200 151.400,309.200 152.200 C 309.200 153.072,309.025 153.200,307.829 153.200 C 306.086 153.200,305.200 154.086,305.200 155.829 C 305.200 157.025,305.072 157.200,304.200 157.200 C 303.400 157.200,303.200 157.400,303.200 158.200 C 303.200 159.000,303.000 159.200,302.200 159.200 C 301.259 159.200,300.816 160.767,301.153 162.900 C 301.179 163.065,301.065 163.179,300.900 163.153 C 299.457 162.925,299.200 163.234,299.200 165.200 C 299.200 167.075,299.136 167.200,298.185 167.200 L 297.170 167.200 297.285 178.900 C 297.397 190.295,297.421 190.600,298.200 190.600 C 298.921 190.600,299.012 190.906,299.117 193.700 C 299.229 196.678,299.272 196.800,300.199 196.800 C 301.121 196.800,301.170 196.933,301.282 199.700 C 301.390 202.361,301.474 202.611,302.300 202.728 C 303.134 202.846,303.200 203.058,303.200 205.620 C 303.200 208.220,303.258 208.399,304.180 208.631 C 305.019 208.841,305.177 209.143,305.280 210.738 C 305.382 212.320,305.535 212.619,306.300 212.728 C 307.087 212.840,307.200 213.091,307.200 214.733 C 307.200 216.600,307.212 216.617,309.254 217.586 C 310.838 218.338,311.436 218.887,311.864 219.981 C 312.170 220.761,312.596 221.713,312.810 222.095 C 313.025 222.477,313.200 224.142,313.200 225.795 C 313.200 228.820,313.308 229.025,314.827 228.872 C 314.951 228.859,315.096 229.675,315.148 230.684 C 315.220 232.071,315.476 232.702,316.197 233.269 C 316.771 233.721,317.200 234.533,317.275 235.310 C 317.371 236.296,317.612 236.630,318.300 236.728 C 319.094 236.841,319.200 237.087,319.200 238.828 C 319.200 240.653,319.273 240.800,320.178 240.800 C 321.061 240.800,321.168 240.985,321.278 242.700 C 321.382 244.321,321.532 244.619,322.300 244.728 C 323.021 244.830,323.210 245.128,323.250 246.228 C 323.333 248.514,323.373 248.602,324.302 248.552 C 325.035 248.513,325.200 248.715,325.200 249.652 C 325.200 250.610,325.366 250.800,326.200 250.800 C 327.014 250.800,327.208 251.005,327.243 251.900 C 327.349 254.643,327.305 254.577,329.000 254.589 C 330.405 254.599,330.596 254.490,330.568 253.700 C 330.543 252.971,330.752 252.800,331.668 252.800 C 332.760 252.800,332.800 252.729,332.800 250.800 C 332.800 248.933,332.867 248.800,333.800 248.800 C 334.610 248.800,334.800 248.602,334.800 247.763 C 334.800 247.078,335.060 246.657,335.563 246.526 C 336.342 246.322,336.785 245.306,336.795 243.700 C 336.798 243.205,336.980 242.778,337.200 242.750 C 337.420 242.722,337.825 242.678,338.100 242.650 C 338.627 242.597,338.670 242.435,338.750 240.200 C 338.793 238.987,338.933 238.800,339.800 238.800 C 340.733 238.800,340.800 238.667,340.800 236.800 C 340.800 234.933,340.867 234.800,341.800 234.800 C 342.733 234.800,342.800 234.667,342.800 232.800 C 342.800 230.933,342.867 230.800,343.800 230.800 C 344.733 230.800,344.800 230.667,344.800 228.800 C 344.800 226.933,344.867 226.800,345.800 226.800 C 346.733 226.800,346.800 226.667,346.800 224.800 C 346.800 222.933,346.867 222.800,347.800 222.800 C 348.733 222.800,348.800 222.667,348.800 220.800 C 348.800 218.933,348.867 218.800,349.800 218.800 C 350.733 218.800,350.800 218.667,350.800 216.800 C 350.800 214.933,350.867 214.800,351.800 214.800 C 352.742 214.800,352.800 214.675,352.800 212.668 C 352.800 210.715,352.875 210.539,353.700 210.568 C 354.669 210.602,354.684 210.553,354.757 206.900 C 354.797 204.938,354.866 204.800,355.800 204.800 C 356.754 204.800,356.800 204.691,356.800 202.429 C 356.800 200.376,356.934 199.952,357.800 199.271 C 358.697 198.566,358.800 198.196,358.800 195.670 C 358.800 193.056,358.864 192.847,359.700 192.728 C 360.551 192.607,360.606 192.394,360.716 188.831 C 360.821 185.418,360.925 184.976,361.816 184.150 C 363.074 182.985,363.068 182.460,361.800 182.702 C 361.008 182.853,360.800 182.730,360.800 182.108 C 360.800 181.676,360.550 180.800,360.244 180.161 C 359.901 179.444,359.592 176.858,359.437 173.400 C 358.925 162.001,358.814 161.200,357.745 161.200 C 356.862 161.200,356.474 160.066,356.753 158.300 C 356.779 158.135,356.609 158.000,356.376 158.000 C 356.143 158.000,356.071 157.808,356.217 157.573 C 356.375 157.317,356.184 157.197,355.740 157.273 C 355.191 157.367,354.967 157.117,354.873 156.300 C 354.774 155.436,354.538 155.200,353.773 155.200 C 352.886 155.200,352.568 154.670,352.753 153.500 C 352.779 153.335,352.370 153.200,351.843 153.200 C 351.157 153.200,350.816 152.918,350.636 152.200 C 350.415 151.319,350.171 151.200,348.592 151.200 C 346.947 151.200,346.800 151.118,346.800 150.200 C 346.800 149.414,346.597 149.200,345.849 149.200 C 345.307 149.200,344.641 148.814,344.302 148.303 C 343.819 147.575,343.224 147.368,341.153 147.203 C 339.749 147.091,338.597 146.820,338.594 146.600 C 338.575 145.363,337.885 145.256,329.594 145.216 L 321.200 145.175 321.200 146.188 " stroke="none" fill="#e4db0c" fill-rule="evenodd"></path><path id="path3" d="M254.400 89.557 C 254.400 89.827,254.192 89.919,253.938 89.762 C 253.665 89.593,253.584 89.651,253.741 89.904 C 253.886 90.139,253.779 90.423,253.502 90.534 C 253.189 90.660,253.170 90.749,253.451 90.768 C 254.034 90.809,254.993 89.660,254.657 89.324 C 254.516 89.182,254.400 89.287,254.400 89.557 M330.800 89.538 C 330.800 89.925,332.128 91.200,332.531 91.200 C 333.008 91.200,332.817 90.475,332.171 89.829 C 331.488 89.145,330.800 88.999,330.800 89.538 M348.800 97.538 C 348.800 97.925,350.128 99.200,350.531 99.200 C 351.008 99.200,350.817 98.475,350.171 97.829 C 349.488 97.145,348.800 96.999,348.800 97.538 M224.400 98.600 C 223.992 99.091,224.020 99.200,224.551 99.200 C 224.908 99.200,225.200 98.930,225.200 98.600 C 225.200 98.270,225.132 98.000,225.049 98.000 C 224.966 98.000,224.674 98.270,224.400 98.600 M202.800 105.533 C 202.800 105.790,202.665 105.955,202.500 105.900 C 202.335 105.845,202.170 105.960,202.134 106.155 C 202.098 106.351,201.828 106.663,201.534 106.849 C 201.236 107.038,201.194 107.190,201.438 107.194 C 202.041 107.202,203.390 105.657,203.064 105.331 C 202.919 105.186,202.800 105.277,202.800 105.533 M192.400 110.600 C 191.992 111.091,192.020 111.200,192.551 111.200 C 192.908 111.200,193.200 110.930,193.200 110.600 C 193.200 110.270,193.132 110.000,193.049 110.000 C 192.966 110.000,192.674 110.270,192.400 110.600 M367.067 113.867 C 366.920 114.013,366.800 114.373,366.800 114.667 C 366.800 115.293,367.839 115.384,368.206 114.790 C 368.345 114.565,368.221 114.430,367.930 114.490 C 367.638 114.551,367.445 114.375,367.500 114.100 C 367.611 113.543,367.467 113.466,367.067 113.867 M340.000 122.951 C 340.000 123.034,340.270 123.326,340.600 123.600 C 341.091 124.008,341.200 123.980,341.200 123.449 C 341.200 123.092,340.930 122.800,340.600 122.800 C 340.270 122.800,340.000 122.868,340.000 122.951 M245.500 125.633 C 244.713 126.495,244.627 126.800,245.171 126.800 C 245.652 126.800,246.800 125.652,246.800 125.171 C 246.800 124.600,246.272 124.787,245.500 125.633 M347.200 127.171 C 347.200 127.652,348.348 128.800,348.829 128.800 C 349.426 128.800,349.258 128.176,348.469 127.462 C 347.649 126.720,347.200 126.617,347.200 127.171 M151.829 129.829 C 151.145 130.512,150.999 131.200,151.538 131.200 C 151.925 131.200,153.200 129.872,153.200 129.469 C 153.200 128.992,152.475 129.183,151.829 129.829 M374.800 130.600 C 374.800 130.930,375.092 131.200,375.449 131.200 C 375.980 131.200,376.008 131.091,375.600 130.600 C 375.326 130.270,375.034 130.000,374.951 130.000 C 374.868 130.000,374.800 130.270,374.800 130.600 M198.800 137.449 C 198.800 137.980,198.909 138.008,199.400 137.600 C 199.730 137.326,200.000 137.034,200.000 136.951 C 200.000 136.868,199.730 136.800,199.400 136.800 C 199.070 136.800,198.800 137.092,198.800 137.449 M187.500 141.633 C 187.115 142.055,186.800 142.496,186.800 142.614 C 186.800 143.048,188.314 142.002,188.540 141.411 C 188.856 140.588,188.357 140.695,187.500 141.633 M132.400 142.600 C 131.992 143.091,132.020 143.200,132.551 143.200 C 132.908 143.200,133.200 142.930,133.200 142.600 C 133.200 142.270,133.132 142.000,133.049 142.000 C 132.966 142.000,132.674 142.270,132.400 142.600 M361.262 145.564 C 361.343 146.129,361.704 146.571,362.135 146.633 C 362.846 146.736,362.846 146.712,362.139 145.870 C 361.737 145.391,361.344 144.910,361.266 144.800 C 361.187 144.690,361.186 145.034,361.262 145.564 M102.400 164.600 C 101.992 165.091,102.020 165.200,102.551 165.200 C 102.908 165.200,103.200 164.930,103.200 164.600 C 103.200 164.270,103.132 164.000,103.049 164.000 C 102.966 164.000,102.674 164.270,102.400 164.600 M133.489 169.444 C 133.330 169.603,133.200 170.063,133.200 170.467 C 133.200 170.982,132.903 171.200,132.200 171.200 C 131.408 171.200,131.200 171.402,131.200 172.172 C 131.200 172.876,130.951 173.180,130.300 173.272 C 129.503 173.385,129.386 173.663,129.280 175.686 C 129.183 177.559,128.983 178.113,128.176 178.747 L 127.191 179.522 127.296 196.061 L 127.400 212.600 128.282 212.726 C 129.077 212.839,129.176 213.115,129.282 215.526 C 129.385 217.857,129.516 218.251,130.300 218.595 C 130.852 218.837,131.200 219.340,131.200 219.895 C 131.200 220.587,131.429 220.800,132.172 220.800 C 132.876 220.800,133.180 221.049,133.272 221.700 C 133.427 222.790,146.196 223.363,146.864 222.310 C 147.043 222.029,147.190 223.458,147.194 225.500 C 147.197 227.671,147.035 229.221,146.800 229.250 C 146.580 229.278,146.175 229.322,145.900 229.350 C 145.625 229.378,145.378 229.625,145.350 229.900 C 145.322 230.175,145.278 230.580,145.250 230.800 C 145.222 231.020,144.210 231.200,143.000 231.200 L 140.800 231.200 140.800 229.219 C 140.800 225.385,140.715 225.330,134.563 225.235 L 129.200 225.151 129.200 230.976 L 129.200 236.800 130.200 236.800 C 130.984 236.800,131.213 237.016,131.260 237.800 C 131.293 238.350,131.338 239.025,131.360 239.300 C 131.417 240.007,132.808 240.769,134.072 240.786 C 134.874 240.796,135.177 241.027,135.272 241.700 C 135.472 243.104,150.525 243.124,150.725 241.721 C 150.831 240.979,151.144 240.823,152.725 240.721 C 154.304 240.619,154.620 240.462,154.725 239.725 C 154.802 239.179,155.179 238.802,155.725 238.725 C 156.464 238.619,156.619 238.304,156.722 236.700 C 156.832 234.985,156.939 234.800,157.822 234.800 C 158.772 234.800,158.800 234.714,158.800 231.818 C 158.800 229.169,158.912 228.725,159.803 227.834 L 160.805 226.831 160.703 198.116 L 160.600 169.400 154.900 169.289 L 149.200 169.178 149.200 170.213 C 149.200 170.812,149.029 171.141,148.793 170.996 C 148.570 170.858,148.461 170.622,148.551 170.472 C 149.172 169.445,134.490 168.443,133.489 169.444 M173.200 170.200 C 173.200 171.000,173.000 171.200,172.200 171.200 C 171.400 171.200,171.200 171.400,171.200 172.200 C 171.200 173.000,171.000 173.200,170.200 173.200 C 169.400 173.200,169.200 173.400,169.200 174.200 C 169.200 175.101,168.738 175.402,167.560 175.267 C 167.428 175.252,167.283 176.525,167.237 178.096 C 167.165 180.551,167.016 181.079,166.177 181.857 L 165.200 182.762 165.200 197.000 L 165.200 211.238 166.180 212.146 C 167.008 212.914,167.179 213.486,167.280 215.827 C 167.389 218.355,167.479 218.611,168.300 218.728 C 168.980 218.824,169.200 219.120,169.200 219.939 C 169.200 221.248,170.212 222.800,171.065 222.800 C 171.407 222.800,171.599 223.026,171.493 223.302 C 171.317 223.760,172.097 224.829,172.592 224.808 C 176.487 224.651,177.200 224.804,177.200 225.800 L 177.200 226.800 182.000 226.800 L 186.800 226.800 186.800 225.800 C 186.800 224.867,186.933 224.800,188.800 224.800 C 190.667 224.800,190.800 224.733,190.800 223.800 C 190.800 223.000,191.000 222.800,191.800 222.800 C 192.600 222.800,192.800 222.600,192.800 221.800 C 192.800 221.000,193.000 220.800,193.800 220.800 C 194.600 220.800,194.800 220.600,194.800 219.800 C 194.800 219.250,194.967 218.800,195.171 218.800 C 196.319 218.800,196.800 217.461,196.800 214.266 C 196.800 211.252,196.872 210.958,197.700 210.595 L 198.600 210.200 198.705 196.909 L 198.811 183.618 197.805 183.366 C 196.832 183.121,196.800 183.006,196.800 179.789 C 196.800 175.942,196.599 175.200,195.557 175.200 C 195.016 175.200,194.800 174.914,194.800 174.200 C 194.800 173.400,194.600 173.200,193.800 173.200 C 193.000 173.200,192.800 173.000,192.800 172.200 C 192.800 171.400,192.600 171.200,191.800 171.200 C 191.000 171.200,190.800 171.000,190.800 170.200 L 190.800 169.200 182.000 169.200 L 173.200 169.200 173.200 170.200 M203.200 193.218 L 203.200 217.236 204.200 218.236 C 204.967 219.004,205.200 219.651,205.200 221.018 C 205.200 222.652,205.283 222.800,206.200 222.800 C 207.000 222.800,207.200 223.000,207.200 223.800 C 207.200 224.733,207.333 224.800,209.200 224.800 C 211.067 224.800,211.200 224.867,211.200 225.800 C 211.200 226.794,211.223 226.800,214.854 226.800 C 218.238 226.800,218.577 226.726,219.435 225.800 C 220.124 225.056,220.770 224.800,221.952 224.800 C 223.193 224.800,223.724 224.569,224.371 223.746 L 225.200 222.692 225.200 223.746 L 225.200 224.800 231.000 224.800 L 236.800 224.800 236.800 197.000 L 236.800 169.200 230.000 169.200 L 223.200 169.200 223.200 191.200 L 223.200 213.200 222.200 213.200 C 221.400 213.200,221.200 213.400,221.200 214.200 C 221.200 215.540,219.021 215.687,218.676 214.370 C 218.557 213.914,218.086 213.443,217.630 213.324 C 216.803 213.107,216.800 213.032,216.800 191.153 L 216.800 169.200 210.000 169.200 L 203.200 169.200 203.200 193.218 M243.200 206.000 L 243.200 242.800 249.950 242.800 L 256.700 242.800 256.950 241.550 C 257.088 240.863,257.200 236.903,257.200 232.750 C 257.200 227.983,257.347 225.200,257.600 225.200 C 257.820 225.200,257.955 225.425,257.900 225.700 C 257.845 225.975,258.025 226.155,258.300 226.100 C 258.575 226.045,258.800 226.180,258.800 226.400 C 258.800 227.366,266.734 226.875,266.872 225.900 C 266.981 225.132,267.279 224.982,268.898 224.878 C 270.530 224.773,270.830 224.619,271.041 223.778 C 271.187 223.198,271.577 222.800,272.001 222.800 C 272.789 222.800,273.200 222.038,273.200 220.577 C 273.200 219.996,273.594 219.360,274.200 218.963 C 275.178 218.322,275.200 218.199,275.209 213.254 C 275.217 208.854,275.319 208.071,276.000 207.200 C 276.723 206.275,276.782 205.524,276.782 197.200 C 276.782 188.876,276.723 188.125,276.000 187.200 C 275.331 186.345,275.216 185.550,275.209 181.726 C 275.200 177.066,274.813 175.200,273.855 175.200 C 273.493 175.200,273.194 174.556,273.021 173.402 C 272.810 171.994,272.558 171.554,271.861 171.380 C 271.371 171.257,270.797 170.761,270.585 170.278 C 270.212 169.427,269.988 169.398,263.254 169.327 C 256.478 169.256,254.866 169.513,255.504 170.562 C 255.625 170.761,255.516 170.795,255.262 170.638 C 255.008 170.481,254.800 170.093,254.800 169.776 C 254.800 169.301,253.783 169.200,249.000 169.200 L 243.200 169.200 243.200 206.000 M368.800 173.449 C 368.800 173.980,368.909 174.008,369.400 173.600 C 369.730 173.326,370.000 173.034,370.000 172.951 C 370.000 172.868,369.730 172.800,369.400 172.800 C 369.070 172.800,368.800 173.092,368.800 173.449 M145.200 179.800 C 145.200 180.600,145.400 180.800,146.200 180.800 L 147.200 180.800 147.200 195.267 C 147.200 203.223,147.095 209.628,146.967 209.500 C 146.685 209.218,145.271 210.492,145.460 210.857 C 145.816 211.541,142.658 211.404,141.758 210.696 L 140.800 209.942 140.800 195.371 L 140.800 180.800 141.800 180.800 C 142.600 180.800,142.800 180.600,142.800 179.800 C 142.800 178.956,142.987 178.800,144.000 178.800 C 145.013 178.800,145.200 178.956,145.200 179.800 M183.247 180.300 C 183.273 181.125,183.274 181.932,183.250 182.093 C 183.225 182.254,183.654 182.499,184.202 182.636 L 185.200 182.887 185.200 196.897 L 185.200 210.908 184.200 211.835 C 183.555 212.433,183.200 213.194,183.200 213.981 C 183.200 215.069,183.071 215.200,182.000 215.200 C 180.996 215.200,180.800 215.041,180.800 214.228 C 180.800 213.524,180.551 213.220,179.900 213.128 L 179.000 213.000 178.895 198.050 L 178.790 183.101 179.795 182.170 C 180.445 181.567,180.800 180.807,180.800 180.019 C 180.800 177.936,183.181 178.210,183.247 180.300 M261.200 181.000 C 261.200 182.210,261.380 183.200,261.600 183.200 C 261.820 183.200,261.955 183.335,261.900 183.500 C 261.845 183.665,261.960 183.830,262.155 183.866 C 263.054 184.032,263.188 185.792,263.194 197.471 L 263.200 209.942 262.200 210.729 C 261.392 211.364,261.200 211.869,261.200 213.358 C 261.200 215.588,259.228 216.176,258.333 214.213 C 258.085 213.669,257.729 213.320,257.542 213.436 C 257.354 213.552,257.200 206.278,257.200 197.270 C 257.200 181.230,257.216 180.889,258.000 180.684 C 258.479 180.559,258.800 180.138,258.800 179.637 C 258.800 178.974,259.049 178.800,260.000 178.800 C 261.188 178.800,261.200 178.822,261.200 181.000 M81.408 185.497 C 80.825 186.540,80.091 188.617,79.776 190.112 C 79.462 191.608,78.953 193.319,78.645 193.916 C 78.322 194.542,78.160 195.670,78.262 196.586 C 78.470 198.463,78.800 198.991,78.800 197.447 C 78.800 196.849,79.066 195.846,79.390 195.219 C 79.715 194.591,80.182 192.782,80.427 191.199 C 80.673 189.616,81.196 187.753,81.590 187.060 C 82.302 185.807,82.973 183.600,82.642 183.600 C 82.546 183.600,81.991 184.453,81.408 185.497 " stroke="none" fill="#8c24b4" fill-rule="evenodd"></path><path id="path4" d="M279.837 85.820 C 279.487 86.170,279.200 86.620,279.200 86.819 C 279.200 87.018,276.095 87.230,272.300 87.291 C 265.487 87.399,265.398 87.411,265.272 88.300 C 265.147 89.179,265.025 89.200,260.136 89.200 C 255.425 89.200,255.085 89.253,254.401 90.100 C 253.760 90.893,253.205 91.024,249.737 91.200 C 246.134 91.383,245.767 91.476,245.405 92.300 C 245.048 93.114,244.734 93.200,242.105 93.200 C 240.507 93.200,239.110 93.200,239.000 93.200 C 238.604 93.200,237.330 94.607,237.477 94.883 C 237.559 95.039,236.225 95.219,234.513 95.283 C 231.631 95.391,231.391 95.467,231.272 96.300 C 231.153 97.141,230.950 97.200,228.172 97.200 C 225.269 97.200,225.200 97.223,225.200 98.200 C 225.200 99.178,225.133 99.200,222.200 99.200 C 219.281 99.200,219.200 99.227,219.200 100.182 C 219.200 101.125,219.081 101.170,216.300 101.282 C 213.657 101.390,213.389 101.478,213.274 102.282 C 213.161 103.077,212.885 103.176,210.474 103.282 C 208.143 103.385,207.749 103.516,207.405 104.300 C 207.082 105.036,206.691 105.200,205.263 105.200 C 203.875 105.200,203.353 105.406,202.729 106.200 C 202.048 107.066,201.624 107.200,199.571 107.200 C 197.309 107.200,197.200 107.246,197.200 108.200 C 197.200 109.133,197.067 109.200,195.200 109.200 C 193.333 109.200,193.200 109.267,193.200 110.200 C 193.200 111.144,193.070 111.203,190.900 111.261 C 189.635 111.294,188.330 111.340,188.001 111.361 C 187.671 111.383,187.401 111.761,187.401 112.201 C 187.400 112.883,187.092 113.018,185.300 113.121 C 183.385 113.231,183.200 113.326,183.200 114.199 C 183.200 115.057,183.003 115.169,181.300 115.278 C 179.679 115.382,179.381 115.532,179.272 116.300 C 179.159 117.094,178.913 117.200,177.172 117.200 C 175.335 117.200,175.200 117.269,175.200 118.200 C 175.200 119.133,175.067 119.200,173.200 119.200 C 171.333 119.200,171.200 119.267,171.200 120.200 C 171.200 121.133,171.067 121.200,169.200 121.200 C 167.345 121.200,167.200 121.271,167.200 122.178 C 167.200 123.061,167.015 123.168,165.300 123.278 C 163.693 123.381,163.381 123.536,163.275 124.279 C 163.169 125.021,162.856 125.177,161.275 125.279 C 159.694 125.381,159.380 125.538,159.275 126.278 C 159.173 126.999,158.849 127.178,157.475 127.278 C 156.188 127.372,155.709 127.608,155.405 128.300 C 155.188 128.795,154.674 129.200,154.263 129.200 C 153.852 129.200,153.161 129.650,152.729 130.200 C 152.163 130.919,151.557 131.200,150.571 131.200 C 149.383 131.200,149.200 131.331,149.200 132.178 C 149.200 133.061,149.015 133.168,147.300 133.278 C 145.679 133.382,145.381 133.532,145.272 134.300 C 145.183 134.930,144.853 135.218,144.172 135.260 C 143.637 135.293,142.975 135.338,142.700 135.360 C 141.928 135.422,141.279 136.141,141.493 136.698 C 141.622 137.034,141.275 137.200,140.443 137.200 C 139.384 137.200,139.200 137.348,139.200 138.200 C 139.200 139.141,137.633 139.584,135.500 139.247 C 135.335 139.221,135.221 139.335,135.247 139.500 C 135.434 140.682,135.115 141.200,134.200 141.200 C 133.406 141.200,133.200 141.401,133.200 142.178 C 133.200 143.061,133.015 143.168,131.300 143.278 C 129.679 143.382,129.381 143.532,129.272 144.300 C 129.180 144.951,128.876 145.200,128.172 145.200 C 127.402 145.200,127.200 145.408,127.200 146.200 C 127.200 147.141,125.633 147.584,123.500 147.247 C 123.335 147.221,123.221 147.335,123.247 147.500 C 123.434 148.682,123.115 149.200,122.200 149.200 C 121.400 149.200,121.200 149.400,121.200 150.200 C 121.200 150.984,120.984 151.213,120.200 151.260 C 119.650 151.293,118.975 151.338,118.700 151.360 C 117.944 151.420,117.277 152.136,117.482 152.668 C 117.589 152.948,117.201 153.194,116.531 153.270 C 115.712 153.364,115.365 153.648,115.272 154.300 C 115.180 154.951,114.876 155.200,114.172 155.200 C 113.402 155.200,113.200 155.408,113.200 156.200 C 113.200 157.049,113.004 157.209,111.900 157.261 C 111.185 157.294,110.330 157.340,110.001 157.361 C 109.671 157.383,109.401 157.752,109.401 158.181 C 109.400 158.684,109.044 159.046,108.400 159.197 C 107.769 159.346,107.353 159.759,107.272 160.316 C 107.180 160.950,106.870 161.200,106.172 161.200 C 105.402 161.200,105.200 161.408,105.200 162.200 C 105.200 163.000,105.000 163.200,104.200 163.200 C 103.400 163.200,103.200 163.400,103.200 164.200 C 103.200 164.984,102.984 165.213,102.200 165.260 C 101.650 165.293,100.975 165.338,100.700 165.360 C 99.945 165.420,99.277 166.136,99.481 166.666 C 99.580 166.926,99.244 167.195,98.731 167.268 C 98.219 167.341,97.625 167.798,97.412 168.284 C 97.199 168.770,96.659 169.220,96.212 169.284 C 95.721 169.354,95.349 169.756,95.272 170.300 C 95.180 170.951,94.876 171.200,94.172 171.200 C 93.402 171.200,93.200 171.408,93.200 172.200 C 93.200 173.000,93.000 173.200,92.200 173.200 C 91.400 173.200,91.200 173.400,91.200 174.200 C 91.200 175.000,91.000 175.200,90.200 175.200 C 89.400 175.200,89.200 175.400,89.200 176.200 C 89.200 177.000,89.000 177.200,88.200 177.200 C 87.400 177.200,87.200 177.400,87.200 178.200 C 87.200 179.000,87.000 179.200,86.200 179.200 C 85.400 179.200,85.200 179.400,85.200 180.200 C 85.200 180.973,84.994 181.200,84.291 181.200 C 83.512 181.200,83.307 181.528,82.858 183.500 C 82.570 184.765,82.005 186.367,81.604 187.060 C 81.202 187.753,80.673 189.616,80.427 191.199 C 80.182 192.782,79.715 194.591,79.390 195.219 C 78.409 197.117,78.601 198.800,79.800 198.800 C 80.594 198.800,80.800 198.599,80.800 197.822 C 80.800 196.939,80.985 196.832,82.700 196.722 C 84.321 196.618,84.619 196.468,84.728 195.700 C 84.820 195.049,85.124 194.800,85.828 194.800 C 86.598 194.800,86.800 194.592,86.800 193.800 C 86.800 193.000,87.000 192.800,87.800 192.800 C 88.600 192.800,88.800 192.600,88.800 191.800 C 88.800 190.867,88.933 190.800,90.800 190.800 C 92.667 190.800,92.800 190.733,92.800 189.800 C 92.800 189.000,93.000 188.800,93.800 188.800 C 94.594 188.800,94.800 188.599,94.800 187.822 C 94.800 186.939,94.985 186.832,96.700 186.722 C 98.321 186.618,98.619 186.468,98.728 185.700 C 98.820 185.049,99.124 184.800,99.828 184.800 C 100.598 184.800,100.800 184.592,100.800 183.800 C 100.800 182.867,100.933 182.800,102.800 182.800 C 104.667 182.800,104.800 182.733,104.800 181.800 C 104.800 181.000,105.000 180.800,105.800 180.800 C 106.600 180.800,106.800 180.600,106.800 179.800 C 106.800 178.867,106.933 178.800,108.800 178.800 C 110.655 178.800,110.800 178.729,110.800 177.822 C 110.800 176.939,110.985 176.832,112.700 176.722 C 114.321 176.618,114.619 176.468,114.728 175.700 C 114.820 175.049,115.124 174.800,115.828 174.800 C 116.598 174.800,116.800 174.592,116.800 173.800 C 116.800 172.867,116.933 172.800,118.800 172.800 C 120.667 172.800,120.800 172.733,120.800 171.800 C 120.800 170.867,120.933 170.800,122.800 170.800 C 124.655 170.800,124.800 170.729,124.800 169.822 C 124.800 168.939,124.985 168.832,126.700 168.722 C 128.321 168.618,128.619 168.468,128.728 167.700 C 128.825 167.015,129.136 166.788,130.028 166.750 C 132.089 166.662,132.600 166.407,132.600 165.467 C 132.600 165.210,133.410 164.910,134.400 164.800 C 135.760 164.649,136.294 164.385,136.587 163.719 C 136.878 163.056,137.374 162.808,138.587 162.719 C 139.800 162.629,140.296 162.381,140.587 161.718 C 140.890 161.027,141.366 160.811,142.787 160.718 C 144.319 160.618,144.620 160.461,144.728 159.700 C 144.841 158.906,145.087 158.800,146.828 158.800 C 148.665 158.800,148.800 158.731,148.800 157.800 C 148.800 156.867,148.933 156.800,150.800 156.800 C 152.667 156.800,152.800 156.733,152.800 155.800 C 152.800 154.867,152.933 154.800,154.800 154.800 C 156.667 154.800,156.800 154.733,156.800 153.800 C 156.800 152.860,159.032 152.352,161.342 152.767 C 161.952 152.876,162.842 151.887,162.631 151.336 C 162.474 150.928,162.949 150.800,164.613 150.800 C 166.679 150.800,166.800 150.745,166.800 149.800 C 166.800 148.846,166.909 148.800,169.171 148.800 C 171.224 148.800,171.648 148.666,172.329 147.800 C 172.964 146.992,173.469 146.800,174.958 146.800 C 176.656 146.800,176.800 146.722,176.800 145.800 C 176.800 144.861,176.933 144.797,179.000 144.750 C 182.173 144.678,182.600 144.526,182.600 143.467 C 182.600 143.191,183.409 142.949,184.577 142.875 C 186.057 142.781,186.782 142.505,187.458 141.775 C 188.207 140.967,188.743 140.800,190.581 140.800 C 192.681 140.800,192.800 140.746,192.800 139.800 C 192.800 138.822,192.867 138.800,195.800 138.800 C 198.733 138.800,198.800 138.778,198.800 137.800 C 198.800 136.812,198.842 136.800,202.171 136.800 C 205.290 136.800,205.601 136.725,206.329 135.800 C 207.036 134.901,207.402 134.800,209.958 134.800 C 212.723 134.800,212.800 134.773,212.800 133.800 C 212.800 132.873,216.596 132.274,219.342 132.767 C 219.952 132.876,220.842 131.887,220.631 131.336 C 220.468 130.913,221.174 130.800,223.984 130.800 C 227.288 130.800,227.597 130.730,228.316 129.816 C 229.026 128.913,229.402 128.822,232.845 128.716 C 236.394 128.606,236.607 128.551,236.728 127.700 C 236.850 126.838,237.018 126.800,240.682 126.800 C 244.237 126.800,244.573 126.730,245.423 125.813 C 246.288 124.880,246.611 124.819,251.269 124.713 C 255.929 124.606,256.221 124.551,256.590 123.710 C 256.965 122.857,257.220 122.816,262.790 122.710 C 268.472 122.602,268.603 122.580,268.728 121.700 C 268.855 120.807,268.912 120.800,276.028 120.750 C 284.810 120.689,284.600 120.720,284.600 119.467 C 284.600 119.118,289.991 118.974,305.872 118.897 L 327.143 118.793 327.272 119.697 C 327.393 120.554,327.597 120.606,331.274 120.714 C 334.928 120.822,335.155 120.879,335.274 121.714 C 335.389 122.523,335.653 122.610,338.300 122.718 C 341.081 122.830,341.200 122.875,341.200 123.818 C 341.200 124.730,341.343 124.800,343.200 124.800 C 345.067 124.800,345.200 124.867,345.200 125.800 C 345.200 126.672,345.375 126.800,346.571 126.800 C 347.557 126.800,348.163 127.081,348.729 127.800 C 349.161 128.350,349.894 128.800,350.358 128.800 C 350.989 128.800,351.200 129.050,351.200 129.800 C 351.200 130.592,351.402 130.800,352.172 130.800 C 352.876 130.800,353.180 131.049,353.272 131.700 C 353.353 132.270,353.721 132.646,354.275 132.725 C 354.821 132.802,355.198 133.179,355.275 133.725 C 355.354 134.279,355.730 134.647,356.300 134.728 C 356.951 134.820,357.200 135.124,357.200 135.828 C 357.200 136.592,357.409 136.800,358.177 136.800 C 359.040 136.800,359.168 136.998,359.277 138.500 C 359.372 139.813,359.605 140.290,360.300 140.595 C 361.049 140.924,361.200 141.304,361.200 142.864 C 361.200 144.280,361.445 145.029,362.200 145.927 C 363.353 147.297,363.801 155.916,362.698 155.493 C 362.141 155.279,361.422 155.928,361.360 156.700 C 361.338 156.975,361.293 158.537,361.260 160.172 C 361.204 162.929,361.135 163.154,360.300 163.272 C 359.270 163.419,359.257 163.603,359.914 168.800 C 360.150 170.670,360.464 174.135,360.610 176.500 L 360.877 180.800 362.838 180.800 C 364.664 180.800,364.800 180.731,364.800 179.800 C 364.800 179.000,365.000 178.800,365.800 178.800 C 366.592 178.800,366.800 178.598,366.800 177.828 C 366.800 177.124,367.049 176.820,367.700 176.728 C 368.468 176.619,368.618 176.321,368.722 174.700 C 368.832 172.985,368.939 172.800,369.822 172.800 C 370.591 172.800,370.800 172.592,370.800 171.828 C 370.800 171.124,371.049 170.820,371.700 170.728 C 372.461 170.620,372.618 170.319,372.718 168.787 C 372.811 167.366,373.027 166.890,373.718 166.587 C 374.481 166.252,374.616 165.839,374.718 163.526 C 374.824 161.115,374.923 160.839,375.718 160.726 L 376.600 160.600 376.705 145.900 L 376.810 131.200 375.805 131.200 C 374.821 131.200,374.800 131.137,374.800 128.200 C 374.800 125.267,374.778 125.200,373.800 125.200 C 372.867 125.200,372.800 125.067,372.800 123.200 C 372.800 121.333,372.733 121.200,371.800 121.200 C 370.867 121.200,370.800 121.067,370.800 119.200 C 370.800 117.333,370.733 117.200,369.800 117.200 C 369.000 117.200,368.800 117.000,368.800 116.200 C 368.800 115.406,368.599 115.200,367.822 115.200 C 366.939 115.200,366.832 115.015,366.722 113.300 C 366.618 111.679,366.468 111.381,365.700 111.272 C 365.049 111.180,364.800 110.876,364.800 110.172 C 364.800 109.402,364.592 109.200,363.800 109.200 C 363.000 109.200,362.800 109.000,362.800 108.200 C 362.800 107.400,362.600 107.200,361.800 107.200 C 361.000 107.200,360.800 107.000,360.800 106.200 C 360.800 105.400,360.600 105.200,359.800 105.200 C 359.062 105.200,358.800 104.988,358.800 104.387 C 358.800 103.941,358.485 103.478,358.100 103.359 C 356.843 102.970,356.198 102.483,356.310 102.007 C 356.370 101.751,356.235 101.655,356.010 101.794 C 355.784 101.933,355.600 101.857,355.600 101.624 C 355.600 101.391,355.465 101.221,355.300 101.247 C 353.672 101.504,352.800 101.139,352.800 100.200 C 352.800 99.328,352.625 99.200,351.429 99.200 C 350.443 99.200,349.837 98.919,349.271 98.200 C 348.839 97.650,348.106 97.200,347.642 97.200 C 347.083 97.200,346.800 96.946,346.800 96.443 C 346.800 95.553,346.052 95.200,344.167 95.200 C 343.092 95.200,342.800 95.038,342.800 94.443 C 342.800 93.457,342.050 93.200,339.167 93.200 C 336.909 93.200,336.800 93.154,336.800 92.200 C 336.800 91.246,336.691 91.200,334.429 91.200 C 332.376 91.200,331.952 91.066,331.271 90.200 C 330.530 89.257,330.265 89.200,326.642 89.200 C 322.811 89.200,322.800 89.197,322.800 88.200 L 322.800 87.200 316.849 87.200 C 311.024 87.200,309.357 86.843,310.303 85.799 C 310.467 85.619,310.375 85.601,310.100 85.759 C 309.825 85.918,309.600 85.865,309.600 85.642 C 309.600 84.882,280.603 85.055,279.837 85.820 " stroke="none" fill="#4c94d4" fill-rule="evenodd"></path></g></svg>