<!-- Generated by IcoMoon.io -->
<svg version="1.1" xmlns="http://www.w3.org/2000/svg" width="32" height="32" viewBox="0 0 32 32">
<title>contacts</title>
<path d="M22.688 22.688v-2q0-1.5-2.281-2.438t-4.406-0.938-4.406 0.938-2.281 2.438v2h13.375zM16 9q-1.25 0-2.125 0.875t-0.875 2.125 0.875 2.125 2.125 0.875 2.125-0.875 0.875-2.125-0.875-2.125-2.125-0.875zM26.688 5.313q1.063 0 1.844 0.813t0.781 1.875v16q0 1.063-0.781 1.875t-1.844 0.813h-21.375q-1.063 0-1.844-0.813t-0.781-1.875v-16q0-1.063 0.781-1.875t1.844-0.813h21.375zM5.313 32v-2.688h21.375v2.688h-21.375zM26.688 0v2.688h-21.375v-2.688h21.375z"></path>
</svg>
