<svg id="Layer_1" data-name="Layer 1" xmlns="http://www.w3.org/2000/svg" viewBox="0 0 913.1 722.6"><defs><style>.cls-1{fill:#2196f3;}</style></defs><title>logo-blue</title><path class="cls-1" d="M675.1,103.4v46.2c-.4,2.7-.3,5.4-.6,8a46.58,46.58,0,0,1-2.3,9.8c-1.4,4.1-2.8,8.1-4.6,12.1-3.6,7.7-6.8,15.6-12.1,22.5a116.7,116.7,0,0,1-14.3,16.2,167,167,0,0,1-22.9,17.2,178.22,178.22,0,0,1-22.7,12.4c-7.4,3.3-14.7,6.8-22.1,10a96.9,96.9,0,0,0-17,9.4,35.53,35.53,0,0,0-12.6,14.5,54.31,54.31,0,0,0-4.2,12.1c-.8,4.5-1.9,9-2.8,13.4-1.1,5.7-2.1,11.4-3.6,17-1,3.7-1.8,7.5-2.9,11.1-2,6.4-3.5,13-5,19.5-1.1,4.5-2.2,9-3,13.6s-1.8,9.1-2.8,13.6c-1,4.9-2.7,9.6-3.8,14.4-.9,3.9-2.4,7.7-3.3,11.6-1,4.4-2.7,8.5-4,12.7a67.64,67.64,0,0,1-4.2,10.5c-1.9,3.9-2.9,8.1-4.5,12.1-2.2,5.5-4.8,10.9-6.9,16.4-1.3,3.3-2.9,6.4-4.2,9.7-2.4,6.2-4.9,12.3-7.3,18.4-2.2,5.7-4.2,11.5-6.3,17.2-2.3,6.5-4.4,13.2-6.6,19.8-1.4,4.3-2.4,8.8-3.5,13.3-.8,3.3-1.2,6.7-1.8,10.1-.7,4.3-.5,8.5-.6,12.7-.1,6.2,1.5,12.1,3.1,18,.9,3.2,1.7,6.4,2.7,9.5.9,2.8,1.2,5.8,2.1,8.6a34.27,34.27,0,0,1,1.3,10.6c.1,12.2.2,24.3,0,36.5a50.15,50.15,0,0,1-2.9,15.8A81.68,81.68,0,0,1,458,680.3c-2.6,3.7-6,6.8-8.9,10.2a62.9,62.9,0,0,1-9.7,9.6c-2,1.5-3.7,3.3-5.6,4.8-5.7,4.5-12.4,7.1-18.8,10.2a90.94,90.94,0,0,1-15.4,5.5A75,75,0,0,1,378,723a1.2,1.2,0,0,0-.8.2H299.4c-1.7-.4-3.5,0-5.2-.2-3.3-.4-6.6-.2-9.8-.9a32.78,32.78,0,0,1-5-1.7,194.76,194.76,0,0,1-22.4-8.5,65.64,65.64,0,0,1-22.8-18.1c-3.9-4.9-8.2-9.5-12.1-14.4a79.33,79.33,0,0,1-13.3-24.6,47.06,47.06,0,0,1-2.3-13.9c-.1-10-.2-20,0-30a53.16,53.16,0,0,1,1.6-11.8c1.7-6.7,4.2-13.1,6.2-19.7,2.3-7.4,4.2-15,3.8-22.8-.3-5.6-.6-11.3-2.3-16.7-1.2-3.7-1.8-7.6-3.2-11.2-1.6-3.9-2.6-8-4.3-11.9-1.3-2.9-2.1-6.1-3.4-9.1-2.6-6.3-5.5-12.4-8.1-18.7-1.9-4.5-4.1-8.9-5.7-13.6-1.7-5-3.7-9.8-5.2-14.9-2.1-7.3-4.6-14.5-6.9-21.8-1.5-5-3.8-9.8-5.7-14.7-2.9-7.6-5.8-15.2-8.4-23-2.1-6.1-4.3-12.2-6.3-18.3a180.64,180.64,0,0,1-5.5-20.4c-1.6-8.5-3.2-17-5.2-25.5-.8-3.4-1.2-6.9-1.9-10.3s-1.3-7-2.1-10.4c-1.1-4.7-2.7-12.4-3.6-17.1-1.5-8.3-3.6-16.3-8.9-23a43.93,43.93,0,0,0-16.6-12.9c-5.3-2.3-10.5-4.8-15.9-7a234.86,234.86,0,0,1-25.4-11.9c-8.3-4.5-16.6-9-24.2-14.5-5.7-4.2-10.3-9.5-15.4-14.3a97.72,97.72,0,0,1-16.6-21.3c-3.6-6.2-6.3-12.8-9.2-19.3-1.6-3.5-3.2-7-4.7-10.5A38.11,38.11,0,0,1,.3,151.5c-.9-16.2-.2-32.4-.4-48.7v-1.9c.3-5.5,3.6-9,8.7-10.8,4.6-1.7,9.2-1.3,13.9-1.3,4.3,0,8.5.8,12.8.8a18.51,18.51,0,0,1,4.6.8c2.6.6,5.2.4,7.8.9,3.2.5,6.4,1,9.5,1.7a113.45,113.45,0,0,1,14.1,4c5.6,1.9,11.2,3.6,16.7,5.9a138.74,138.74,0,0,1,23.9,12.4,72.66,72.66,0,0,1,11.6,9.1c3.9,3.9,7.8,7.9,11.3,12.1,2.9,3.4,5.4,7.2,8.1,10.8,3,4,5.7,8.1,8.9,12,2.8,3.3,5.5,6.7,8.9,9.4a26.08,26.08,0,0,0,12.3,5.6c3.7.5,7-.6,10.2-2.4,8.6-5,13.2-13.1,16.6-22.1.3-.7.6-1.5.9-2.2,1.7-3.9,2.2-8.2,3.2-12.3a72.3,72.3,0,0,0,1.6-9.1c.8-6.5,1.8-13,1.6-19.7a95.15,95.15,0,0,1,.7-14.1c.9-6.5,1.4-13.1,2.6-19.5.7-3.9,1.2-8,2.7-11.8a24.72,24.72,0,0,0,1.1-4.7,59.74,59.74,0,0,1,4.2-13.2,102.43,102.43,0,0,0,4-11.8,24.3,24.3,0,0,1,1.6-3.7c2.3-4.6,3.9-9.4,6.5-13.9A32,32,0,0,1,242,2.2,8.65,8.65,0,0,1,247,1a7.41,7.41,0,0,0,2.1-.1l3.6-.3c1.9.6,3.8.2,5.7.5,5.2.7,9.2,3.6,12.4,7.4,6.5,7.7,10,17,12.9,26.5,1.6,5.2,2.2,10.6,3.3,16,.6,2.8,1.1,5.6,1.8,8.3a75.79,75.79,0,0,1,1.3,8.1,32.69,32.69,0,0,0,1,4.5c1.2,7.1,2.3,14.2,4.1,21.2,2.4,9,6,17.5,13.1,24a32.61,32.61,0,0,0,11.2,7,59.55,59.55,0,0,0,23.6,3.3,78.06,78.06,0,0,0,12.7-2,34.25,34.25,0,0,0,13.7-6.6,39.6,39.6,0,0,0,12.4-16.4c1.9-4.7,2.8-9.5,4.2-14.3.6-2,.6-4.2,1-6.4a148.83,148.83,0,0,0,2.3-14.9c.4-4.6,1.7-9,2-13.6.2-3,1.3-6,1.9-9.1.7-3.6,1.5-7.1,2.1-10.7.5-3.4,1.9-6.6,3-9.8.9-2.5,2.1-4.8,3.2-7.2A26.6,26.6,0,0,1,417.1,1.6c1.6-.6,3.3-.4,5-.5,4-.2,8.1-.4,12,.7a20.09,20.09,0,0,1,8.1,4.4c5.8,4.9,9.2,11.2,11.6,18.2,1,3.1,3,5.8,3.8,8.9,1.3,5.1,3.4,9.9,5,15a113.38,113.38,0,0,1,3.6,15.3c.8,4.5,1.8,9,2.7,13.6a62.25,62.25,0,0,1,.9,7.4c.2,4.4,1,8.7,1.1,13.1.1,7.6,1.1,15.2,1.4,22.8.2,5.2,1.7,10.2,1.9,15.4a34.23,34.23,0,0,0,1.7,7.7c2,6.7,4.2,13.2,8.2,19A25.32,25.32,0,0,0,497.6,173a16.71,16.71,0,0,0,3.9.6c7.2,0,13-3.1,18.2-7.7,4.8-4.3,8.2-9.6,11.7-14.9,4.9-7.5,9.8-15.1,16.4-21.2a153.37,153.37,0,0,1,17.4-13.6,139.65,139.65,0,0,1,21.7-12.1c7.1-3.2,14.3-6,22-7.4a72.32,72.32,0,0,0,8-2.1c4.8-1.6,9.9-2,14.9-2.9,3.4-.6,6.8-.3,10.1-1.3a5.85,5.85,0,0,1,1.3-.2c5.6,0,11.2-.7,16.8-.5a20.73,20.73,0,0,1,10,2.9c3.3,2,4.2,5.2,4.5,8.8C674.9,101.7,674.6,102.5,675.1,103.4Z" transform="translate(238 -0.6)"/><text x="238" y="-0.6"></text></svg>